<mxfile host="app.diagrams.net" agent="Mozilla/5.0 (Macintosh; Intel Mac OS X 10_15_7) AppleWebKit/537.36 (KHTML, like Gecko) Chrome/130.0.0.0 Safari/537.36" version="25.0.3">
  <diagram name="第 1 页" id="4vVQxp9wlOrCnbY_lGH3">
    <mxGraphModel dx="1985" dy="775" grid="1" gridSize="10" guides="1" tooltips="1" connect="1" arrows="1" fold="1" page="1" pageScale="1" pageWidth="827" pageHeight="1169" math="0" shadow="0">
      <root>
        <mxCell id="0" />
        <mxCell id="1" parent="0" />
        <mxCell id="gvpjUYc1p56nosvnUNie-1" value="&lt;font style=&quot;font-size: 16px;&quot;&gt;在 JDK1.7 中&amp;nbsp;&lt;/font&gt;" style="text;html=1;align=center;verticalAlign=middle;resizable=0;points=[];autosize=1;strokeColor=none;fillColor=none;" vertex="1" parent="1">
          <mxGeometry x="80" y="100" width="120" height="30" as="geometry" />
        </mxCell>
        <mxCell id="gvpjUYc1p56nosvnUNie-2" value="" style="shape=image;verticalLabelPosition=bottom;labelBackgroundColor=default;verticalAlign=top;aspect=fixed;imageAspect=0;image=data:image/png,iVBORw0KGgoAAAANSUhEUgAACKAAAAROCAYAAADpDdiJAAAACXBIWXMAABYlAAAWJQFJUiTwAAAgAElEQVR4nOzd6XPb9p3H8Q8A3qdIUZJ135KvpEnTTSfTne0ebfeczuzz7T+4ndkHfbDT7swe7aY7bZI6p534kGTrviWKN0EA+0AGQtGSLYdObMnv14xsSQRAkAJ/gvj74Ps1PM/zBAAAAAAAAAAAAAAAAJyTYRhG+9fmy9oRAAAAAAAAAAAAAAAAXA4EUAAAAAAAAAAAAAAAANAVAigAAAAAAAAAAAAAAADoCgEUAAAAAAAAAAAAAAAAdIUACgAAAAAAAAAAAAAAALpCAAUAAAAAAAAAAAAAAABdIYACAAAAAAAAAAAAAACArhBAAQAAAAAAAAAAAAAAQFcIoAAAAAAAAAAAAAAAAKArBFAAAAAAAAAAAAAAAADQFQIoAAAAAAAAAAAAAAAA6AoBFAAAAAAAAAAAAAAAAHSFAAoAAAAAAAAAAAAAAAC6QgAFAAAAAAAAAAAAAAAAXSGAAgAAAAAAAAAAAAAAgK4QQAEAAAAAAAAAAAAAAEBXCKAAAAAAAAAAAAAAAACgKwRQAAAAAAAAAAAAAAAA0BUCKAAAAAAAAAAAAAAAAOgKARQAAAAAAAAAAAAAAAB0hQAKAAAAAAAAAAAAAAAAukIABQAAAAAAAAAAAAAAAF0hgAIAAAAAAAAAAAAAAICuEEABAAAAAAAAAAAAAABAVwigAAAAAAAAAAAAAAAAoCsEUAAAAAAAAAAAAAAAANAVAigAAAAAAAAAAAAAAADoCgEUAAAAAAAAAAAAAAAAdIUACgAAAAAAAAAAAAAAALpCAAUAAAAAAAAAAAAAAABdIYACAAAAAAAAAAAAAACArhBAAQAAAAAAAAAAAAAAQFcIoAAAAAAAAAAAAAAAAKArBFAAAAAAAAAAAAAAAADQFQIoAAAAAAAAAAAAAAAA6AoBFAAAAAAAAAAAAAAAAHSFAAoAAAAAAAAAAAAAAAC6QgAFAAAAAAAAAAAAAAAAXSGAAgAAAAAAAAAAAAAAgK4QQAEAAAAAAAAAAAAAAEBXCKAAAAAAAAAAAAAAAACgKwRQAAAAAAAAAAAAAAAA0BUCKAAAAAAAAAAAAAAAAOgKARQAAAAAAAAAAAAAAAB0hQAKAAAAAAAAAAAAAAAAukIABQAAAAAAAAAAAAAAAF0hgAIAAAAAAAAAAAAAAICuEEABAAAAAAAAAAAAAABAVwigAAAAAAAAAAAAAAAAoCsEUAAAAAAAAAAAAAAAANAVAigAAAAAAAAAAAAAAADoCgEUAAAAAAAAAAAAAAAAdCX0sncAAAAAAAAAAAAAAF4s71vYpvEtbBMALg8CKAAAAAAAAAAAAAAuoRcZQiF8AgDPQgseAAAAAAAAAAAAAAAAdIUACgAAAAAAAAAAAAAAALpCAAUAAAAAAAAAAAAAAABdIYACAAAAAAAAAAAAAACArhBAAQAAAAAAAAAAAAAAQFcIoAAAAAAAAAAAAAAAAKArBFAAAAAAAAAAAAAAAADQFQIoAAAAAAAAAAAAAAAA6AoBFAAAAAAAAAAAAAAAAHSFAAoAAAAAAAAAAAAAAAC6QgAFAAAAAAAAAAAAAAAAXSGAAgAAAAAAAAAAAAAAgK4QQAEAAAAAAAAAAAAAAEBXCKAAAAAAAAAAAAAAAACgKwRQAAAAAAAAAAAAAAAA0BUCKAAAAAAAAAAAAAAAAOhK6GXvAADgm/M8T5JkGMZL3hMAAIAXi/McAAAAAED3XsTflN4L2AYAvB4IoADABeV5XjAx8zRM2uAi8zzvGx3D53ltAK+a5z3WOc5xkZz3+G4/rjnGcVFx/o3XSedYzbk7LqMXMa5znOMi4VwGl4uhIDzyHEOx98TC3Z/zAMDrggAKAFwgfujEdV21Wi21Wi1Jxye8rusGy7WfAHMyjIvKP94Nwzj1zTrDMM48vnlzDxdR+/F8nsoPHOe4SPxj+VnH7WkBlM7XAec2eNVxjOJ1ct4LI6Szz985p8Gr7jzn5M8a+znOcZGc99y9c3nglXfusbgttCLJNE2ZlqlQKCTT5HgHgGchgAIAF4jneWo2m9rf39f6+ro2NjZUr9fluq4cxzmxLCEUXFR+wMpxnODY7jy+JSkSiSgcDsswjOM/BE3zxO28wYeLxh+rHcdRq9WS53myLCs4vjvHco5xXCR+WNa27VPHdP97pmnKsiyFQqFgopLzGFxmHN+4aDrPPzzPk+M4sm1btm2feX5iGIbC4bDC4XBw3s4Yj4uo/Zzd/5vVMIzgvP20ZV9EpSDgZfDfh3QcJwgctoeu/L9TQ6HQ44l5k79T8coIxlrP/1onvn76ysf/WJapeCymbE+Prly5osGhK0qlUi9+ZwHgkiGAAgAXjG3bWl1d1Z/+9Cfdvn1bR0dHpwZQ2vHmBi4Sx3HUbDZl27Zc1w3e7OgUjUYVjUafmKyUmJjHxea/BvwASigUkmVZZ1YDAi4Kx3HUaDRk27akr8dqf/JSkizLCgKG/pvYwEXzvGM1VX7wqjotbNL5PT9c2Gw21Ww25bquPM87dSI+EokoFosFwRN/4pJjHheFf7y2V6VttVoyTfNEuMpftv3/zu0AF0WtVlOj0QgqMncGUEKhUBAwtCxLEu/J4OULxuDHHwq+Ov/6hmEoEg4pnclqaGhIN27eUDqdUiqVfq5tAcDriAAKAFwwjuNoY2NDd+/e1YMHD1StVoOJydPwRx8uovYra/w3ODrDJbZtq1wuS1IwSc/VNrgsOtuq8SY1LqrOljr+1ZOSgvG9c9y2LCu4ivisY5/XBF5V7cGq8+gc4zmPwavktDG6/XtntcmU9ESA3PM82batarUafO9p4zzwKvPPadrP2U8LVHEeg4vMP07bz9k7Ayj+/34Yxcf5DF624DiVZHiSX/bEPcehaRqGTMuU63oyDUPJ5L4ODw8ViYR19dpVXfnW9hoALg8CKABwgfhXvx8dHeng4EC1Wi2oEuFfZdDued8AB14VnW92d76Z0fmGnR88OWsyE7gI2t/U8/nljP1jvLPsMXARtB+vrusGx3j7m9edE/Cd4cNOTNzgVXfiGPWkltN64oph/9ym8zXR+TnwspwWPun8v30yUlJwbLe32Tlru0+r4gm8qvzzls7j33GcJy4OOitgyHkMLoLO47z9GPaPdX+sb69o6H8NvAoMKWi5Y3796VM5nifX8+S5rmzPlQzJM6SDw8OgmicA4OkIoADABeN5nhqNhur1etBHO5PJqL+/X9Fo9Mx1nuePP94Mwcu2sbGhg4OD4E28VCqloaEhhcNhSV+/6df+5l873uzARdRsNrW7u6vd3d1g4j2ZTGpoaEipVIoACi68ZrOpnZ0dHR4eBuXq0+m0+vr6FIvFguU6x3jgpfLH2/ZKbJ4ryZCecox2BlDWN9a1s7Mj6XjSJpFIaGRkRJFIhNA4XkmnHY+dx6rruqpUKtra2lKlUpEkRSIR9fX1KZfLSTq7DUnn+QzHP151na2jisWiNjY2VK/XJUnhcFh9fX3KZrMKhUL8jYoLrf29ls3NTe3t7QV/oyYSCY2OjgYtkSXGdLyagnMP73EQxZCMc7TO8XRctW1/b0/7+/vH7QabdtBqEADwbARQAOCC8v+4i0ajun79uv7pn/5JQ0NDL2TbTPbgZfI8T//6r/+q3/72t6pUKopGo5qfn9cvfvELZbPZYDmOU1w2e3t7+s1vfqNf//rXko4ncKampvTP//zPmp6e5k08XHgHBwf6j//4D/3hD3/Q4eGhotGovve97+kf//EfNTg4eOo6jPV4WY6DJp4813ucNTmecHScllot+7hNlGUdf/+Uayk9zzvOqej4Tex//eUv9etf/1qe5ykUCml8fFy/+MUvNDAw8B0/MuB8znPe0Wq1dP/+ff3qV7/S/fv35TiOBgcH9dOf/lQ/+tGPTlQwBC66zsomH3/8sX75y19qZWVF4XBY+XxeP/vZz/Tuu+8G4XHgompvv/Nv//Zv+s///E9VKhXF43HNz8/rX/7lX9TX1/dEq2TgVXeevy49z9PB4aH+93e/03/913+pUq3KMxSc+59vKwDweiOAAgAXnGmaymQyGh0d1cTExAvZJpM9eJk8z1MulwvaSlmWpXQ6rYmJCeXz+Ze8d8C3J5VKqaenJ/jav7psaGhIk5OTL3HPgBdjb29PuVxOkUhEpmnKsixlMhmNjY1pbGzsZe8ecNLj8InnPQ6gmF8HUBzblhWyZJpWx3mzJ/8N6eOS9V9Xicj35GQ8XsI0TSWTSY2OjmpkZOS7fmTAC9NqtVSpVJRMJmVZljzPUywW08DAgKanp58rgMLfoLhoNjc3FY1Gg6oo0WhU/f39mpycVCaT6WpCntcDXhWO46i3t/eJ92fGx8fPDJADF53nedrb29Pt27cVCocZkwHgGyCAAgAAXllcRYPXFcc+ALwCjCevbzQNQwqufvSXM75u1dO27hNfM7QDwKVDy0AAAADgJAIoAADglcZEPAAAeHlOplAMw5QZ8m8xjsMnJ/hVUAyZj3Mpfq95zmgAAAAAAMBlRwAFAAAAeEX4V1ASvAKAV4X3OFPyOGhiGDL07LYihiTPMGQYXwdQAAAAAAAALjsCKAAAAAAAAJ280z73nrwxqIJiPP7u49v8Nj3G40opj9vw+GFDWjYAAAAAAIDL5tmX7QAAAAAAALxO/AzJaQWpPPe4t453MoTi+a12PMl1T1nN86hwBQAAAAAALjUqoAAAAAAAAHQwzvj8tI46x3kUL6hq0lncpD18QggFAAAAAABcVgRQAAAAAAAAOnhqy5oY/heGnlVM1vTb7cggbAIAAAAAAF4rBFAAAAAAAADaGZI8yessZeLz2pb7+j+/Cc/XmzGM4KPjJgAAAAAAgEuHAAoAAAAAAECnU7MnnuR58gubHBc6Mc5aWCfCKCJ/AgAAAAAALren140FAAAAAAB4XXnHH35wxPP0uK3O8YfXvqDRsd7Xa5246URFFAAAAAAAgEuEAAoAAAAAAMCpTqtZYnR8/vhr1zkRSTkZQpFMGWfWSQEAAAAAALgMaMEDAAAAAABwXk9tufO09XRcKIU+PAAAAAAA4JIigAIAAAAAAHCajlY5T22dY/ixFO/rb5wRNiGEAgAAAAAALiNa8AAAAAAAADzh+aqcBA12PP/jccrEI20CAAAAAABeD1RAAQAAAAAAaGc87pdzVgilPVRi+KVPvkFbHgAAAAAAgEuEAAoAAAAAAECHznY7Xnvo5PHn/iJeW7WTM2MoXsc2AAAAAAAALhkCKAAAAAAAAM/guW7wuXHiH0+e58l1HJmmKcPs7HZstLXk8T8AAAAAAAAuHwIoAAAAAAAAp3iyYkn718aJ77dXQVF79RSD1jwAAAAAAOD1QAAFAAAAAACgQ2f4pL2ySWemxDRMGY/fYfHkR1P8hR5vx5AMGdLZTXoAAAAAAAAuNAIoAAAAAAAAbTzv64omhuHHSR4HR57IjxxXPDFktYVWzgqZED4BAAAAAACXFwEUAAAAAACApzDaS548Dpl0Nud5Hh45FAAAAAAAcAkRQAEAAK88z/PkOI5c15XZVv4eAADg22AYxsnQSRvv5D/+GvI893EllMcZFeNkEx738f+ETwDg8vArZrVXzgIAAABeZwRQAOCC6nxD/GlvkgMXnW3bOjg4UDKZVCKReNm7AwAA0ObkObhfH8WQ8XVExeiuYgoA4NVzWvDkvEEU3r8BAADAZcUlxABwgfghk9M+gMus1Wrp8PBQ9Xr9Ze8KAADAcebEMB5/tH19nvUAAK813sMBAADAZUYABQAAAAAAAAAAAAAAAF0hgAIAAAAAAAAAAAAAAICuEEABAAAAAAB4wTzPe9m7AAAAAAAA8J0igAIAAAAAAAAAAAAAAICuEEABAAAAAAAAAAAAAABAV0IvewcAAAAAAAAuCsMwXvYuAAAAAAAAvJKogAIAAAAAAAAAAAAAAICuUAEFAIBLwPO84HOuygUAAAAAAAAAAMB3jQooAAAAAAAAAAAAAAAA6AoVUAAAXTut+gYVOQAAAAAAAAAAAIDXBwEUAMA35odM2sMmnbf5CKG8eP5z/G08t8/aNj9fAACAZzMM49RzZQAAAAAAgMuIAAoA4BvxPO/Em+mO48g0zScqoJz1Nb4b36QSTfs6nufJMAw5jqNmsynXdWUYhiKRyImfNwAAwOuO8yIAAAAAAPC6I4ACAHguneEEn+u6arVaQTDFDyqEQiGFQiEZhiHTNF/GLl9a/hW17c+9ZVlBMORpkyDPapvUuWy5XNbKyoqOjo6UTCZ19epVWZbFRAsAAAAAAAAAAAAkEUABALwA1WpVm5ub2t3dValUkuu6cl1XsVhMg4OD6u/vVzqd7jqA8qpVUXmZ++Pft1+Z5NGjR2o2mxocHFQ6nVYsFjt1nfZ97fz6aRqNhra3t7W7u6tcLqe5ubkX80AA4JJ61X5nAQAAAAAAAMC3jQAKAODcOqufeJ6narWqtbU1ffLJJ7p79662t7fVarVkGIZ6enr01ltv6Y033lAkEjlRnaOb+8bXbNtWsVjU+++/r4ODA/3lX/6lpqengxY5tm2r2WyqVqs90TbJD6BEIhHFYjGFQqEzq6f46/JzAAAAAAAAAAAAwGkIoAAAzs0PIBiGoVarpWq1qs8//1wPHjxQo9HQ1atX9d577ykcDsswDLmuq2azqXq9rmq1qkgkokgkcup2fd/WleLf5pXoz1NJ5EXx2++0Wi0dHR1pa2tLR0dHarVacl03eLx7e3taWlrSl19+GVSn8QMmfvuesbExXb9+XSMjI0omk898LIRQAFxk30VlkqeNk9/F7zwAAAAAAAAAeBkIoAAAvpFms6m9vT3dv39fjx490vz8vN58802Nj48rHo/LMAxVq1WtrKxI0pntd06rqvG8E3KnTeZ1btMPiZw2Kdi5zln3f55Jy+cJZ5y2r50tcp7G87ygBU+lUlG9Xn+iwol/e7VaVaVSUavVkmVZkqR6va6NjQ3Ztq2hoSENDAyceT+ETgC8ap5nTH6ecf15f0+ctvxZv9dexO88AAAAAAAAAHhVEUABAJyLH+DwJ8qazaa2trZUqVSUzWY1NzenoaEhRaPRYJlYLKaJiQlJkmVZQfDB5ziOWq2WKpWKms1msP1QKKRwOKxoNKpQKPTE5Jzrumq1WqrVarJtW67rSlKwXnvQxG/943+vvRpLKBQK9sFxHHmeF9xvNBqV67qybVu1Wi24D8uygtv9UE3nRGSz2VSj0VCz2Qy+5z8fsVgsaEXkf7/RaKher8s0zeDx1ut12bYdLBONRoM2Oe2PpVQqqVgsBvdXKpV0cHAg0zSVSCSUy+X05ptvamZmRqZpBs+F67ra39/Xb3/7W6XTaaXTabmuq1KpJNu2g8flV0nZ399XqVRSpVJRJBLR3t6e0um0IpFI8DNnEhXAd6U9YGfbdvA7ptVqybZtOY4j6XjM9sepUOj4T5/2MIg/zvvb8cd6wzAUDocVi8UUDoeDilN+0C8SiSgcDge/B/zbG42GHMdRKBQ6cZ/tt/tBQH9MBwAAAAAAAIDLgnc8AQDn0n7Vt2EYsm1bh4eHQZjDn2gzTTOY3DstdOJvy/M8VatVbW9v67PPPtP6+nrQHiaVSml4eFgzMzO6cuWKYrHYiX2oVCra3NzU559/rp2dHTUaDRmGod7eXvX39ysUCqnVaikUCml8fFyFQkHRaFS1Wk0LCwv64IMPgu8Xi0Vtbm7q4OBAruvqypUrmpiY0NzcXFDB5e7duzo6OpJpmspkMpqZmdHs7KzS6bTC4XDwuPyWQ4uLi1paWtLy8nIwCep5nq5fv665uTn19/cH63mep0ePHmlxcVGO46hQKCiRSOj27dva399Xq9WSYRgaHx/XjRs31NfXp3g8LsdxtLCwoLt37+qrr77S8vKybNvW//zP/+iLL77Q6Oio3nrrLfX09Mh1XW1vb6u3t1eFQkGhUEi2bcu27SC0Ew6HtbKyovX1dS0vLweTsP4+VioV7e7uql6vKx6Pa3l5WVNTU5qamtLMzMyprZUA4NviOI4qlYoWFha0sLCg3t5e9fb2and3V5ubmyoWizIMQ5lMRuPj45qdnVU+nz/xO8lxHNXrda2vr+vBgwdaX19XtVqVaZqKRCIaHR3V1atXNTAwIMuytLu7qzt37qhSqWhsbExjY2PKZrMyDEOO42hzc1N3795VqVTSlStXTtyn67ra2dnR8vKyyuWy+vv7NTExoVQqRXgPAAAAAAAAwKVBAAUA8I20Xw3eaDS0s7Ojvr6+4Krwp02oua6rRqOh9fV1ffHFF7pz544ODw+DEEM4HNb29rYcx5FlWbpy5YrC4XAwWfjo0SN99dVX+vLLL1UqlYLKHn5FkMPDQzUaDWUyGcXjcWWzWYXDYVWrVS0sLOg3v/mNrl27prm5OVmWpe3tbW1tbenw8FAPHz7U6uqqDg8PZRiGdnd3tba2plKpJNd1g32PRqOampo6EbKp1Wra2dnRl19+qQcPHgSVSPxqJa1WS61WS+FwWD09PQqFQnJdV5ubm/rkk0+0v7+viYkJDQ8PB6GYRqOhYrEYhFHeeust9ff3y7KsE7c1Gg3Ztq29vT05jqNkMhlcaV+tVvXgwQNVq1UlEglls1k5jiPbtoOASzQa1eHhoQ4PD7W1tRUEZ3y1Wk0HBwdqNpuq1+uKRCLq7e1VvV4/EVYBgO+C4ziqVqtaWlrS7373OxUKBc3Ozgbj4P7+flCFan9/X+FwWKFQSJlMRqFQSJ7nqdFoaGtrS/fv39fdu3e1v78fjH1+RSj/90tPT4/K5bIWFha0vb0t13WVy+WUyWQkSbZta3t7W7du3dLOzo6uXbum/v5+9fT0yDRNua6r3d1d3b9/X5VKRaZpanh4+KU9fwAAAAAAAADwbSCAAgA4l85ASSQSUV9fn2KxmFZWVnTr1i0ZhqG5uTnlcrlgsq9zPT+4sr29rc8//1wffvihZmdn9ZOf/ESDg4NyXVePHj3SBx98oLt378owDKXTaWUyGdXrda2tremPf/yjlpaWNDMzo/n5eV25ckWRSET7+/taXFzUvXv3tL+/r6GhoaDVgWmaQasdx3H06NEjFQoF/fjHP9af//mfq1qtanFxUX/84x/1wQcf6JNPPtHVq1d148YN/fznP1cymVSpVNKHH36oYrGozz77TOl0WrFYTKZpynEcbWxs6KOPPtLKyooKhYL+9m//VtlsVq1WSzs7O/q///s/ffjhh0omk5qdnVUulwuel0ajoeXlZYVCIQ0PD+vv//7vlUqlVK/X9fnnn+vevXv64IMPlM1mlUwm1dvbq+vXr6uvr0/T09P61a9+pUqlon/4h3/QzMyM+vr6lEqlgn3z98+yLM3Pz8swDDUajaCVRCKR0NzcnMbGxvTee+8pHA6fqBSwt7cXBIXy+bzeffddZTIZRaNRqp8A+M75v0ts21a5XNbh4aGy2ax++MMfanBwUJ7naWdnRx9//LHW1tZ0+/ZtxWKxoB1Zq9XS7u6uPv/8c62urqpQKOi9997T4OCgms2mNjY29NVXX+mLL75QOBzWjRs3FIvF1NfXp0qlolqtFgTw/PG0UqmoUqmoVCqpVCqpWq3KcRyZpinbtlWtVmXbtnK5XFCZi+onAAAAAAAAAC4TAigAgHPpnCSLx+MaHR3V/Py8arWaFhcXtbe3p4WFBb311lsaGxtTJpMJqqH4H37bhHv37ml1dVWZTEbT09OanZ1VT09P0GZne3tbq6ur2traUqVSUTweD64+39/fVzqd1szMjKanp5XL5RQKhZRKpeR5nhYXF9VsNoPghb9NXygUUm9vr4aHhzU8PKx8Pi/btpVMJrW5uamNjQ3VajVls1mNj49rbGxMiURCR0dHQXDm4cOHmp2dVaFQkGVZKhaLWlhY0K1btzQ8PKzp6WlNTEwomUyq1Wopm81qaWlJjx490vr6enBlvF9BJRwOK5lMBi2AhoeHlUwm1Ww2Zdu2Dg4O9PDhQ21tbWlkZET5fF6JREK5XE6lUknJZFKe56lQKGhgYEC9vb3BVffZbFbXrl3T4uKiHjx4oGQyGTyfpmkGYSF/IrdYLGpqako9PT3Bc+ZXpZGkXC4XtEZi8hTAy+R5XlBVanR0VENDQxocHJRhGEomk9rf39fR0ZH29va0vb2t0dFRhUIhHR4eamlpSYuLi7IsS2NjY5qYmFBvb69arZYSiYQODg50cHCg7e1tjYyMKJlMBtWr9vf3dXBwoJGREVmWpaOjIxWLRXmeJ8dxVC6XdXR0pFqtJsMwVKvVVCqVZNu2enp6gu0AAAAAAAAAwGXCu54AgG8kGo1qYGBAN27ckOu6+vDDD7W0tKTV1VWVy2Vdu3ZNIyMjunLlilKplMLhsKTjNgXFYlF3797V4eFhUHUjm80GbRH84IffFqdcLiuZTKpYLGppaUmu62psbEwjIyPBev5k4+DgoMbHx1UqldRoNIK2Oe1tYizL0tDQkCYmJpTNZhWJRGRZlvr7+zU8PKyRkRE1m01NTk4G4RPLshSNRtXX16doNKr9/X0Vi0U1Gg3FYjHt7u5qZWVFGxsb+t73vqfx8XElEgmFQiGZpqlsNquhoSEVi0Xt7Ozo6OhIrusG+x6JRNTf36+JiYngPg3DUCgUUl9fn/r7+xUOh1Uul1WpVE6EagzDkGmaMk3zRNhHkkzTVCqV0vz8vEqlkjY3N4Mr+l3XlWVZweOr1+va2trSwsKCYrGYwuFwsB+SgscCAK+SaDSqkZERTU1NBRW4JAWhvrW1NW1sbOjo6EjNZlPhcDgYsw8PDzU+Ph78PvFb7mSzWfX392t5eTmosJJKpdTT06NYLKbt7W3t7++rXq8rGo2qVCqpUqkomUwqk8kELXzK5bIsywoqo7RaLaVSKaVSqRNVpgAAAAAAAADgMiCAAgD4Rvyww8jIiFKplKampnTr1i198cUXunv3rpaWltTf3wZlNwYAACAASURBVK8f/vCHmp+fV6FQUCQSUbPZVLFY1Pb2djBx12q1dHh4KMuy5HlecJV4o9EIriTPZDKqVCra2dkJWtD47W/a9ykUCgVtYZrNpqTjK+TbAxue5ymRSCiRSATrG4YRhEwymYxM01Qul1MsFpNlWUHII5lMBm0T/NY+rutqf39flUolaEvTarV0dHQk0zSD+2+1Wmq1WiqXy6rVakF7IL+FQyqVUjweD6rG+I8pGo0qGo0qFotJUrC8z/+8s9JL+/MSDoc1Pj6uSqWi3/72t9rc3FQsFtMPf/jD4LmMRqPa3t5Wo9HQw4cPZVmWZmZmTm2lBACvCtM0FYvFTvxO8MfoeDyuRCIhSUFFrFarFbTJiUQiisVism1bpVJJoVBIrusG47UfziuXy5KkQqGgQqGgra0tlctlVatVmaaparUqSUGQxXGcoOpJJBJRpVJRo9GQZVnBeMu4CgAA8HrgvA8AAACvEwIoAIBvzDCMIDCRSqUUi8U0MjKi3d1dPXjwQKurq6rVajo6OtLbb7+t/v5+tVotNRoNVatVbWxs6KOPPtLa2pri8bik4xBFo9HQ0dGRHj16pHw+r3q9HrSi8VvjpFIpRSKRE2/k+EEPv62NfyW7H5ZpZ1nWE8EKf8LSb0kTDoeD8ImkYHuhUCi4D/8227ZVrVa1v7+vW7duaWNjI5hg9PdrfX1dBwcHQSUT/0r89vs+rcqIH6wxTTNoK+Sv4wdjnvWGlmVZ6u3t1eTkpL766ittb2+rVqspn8+rp6cnCL309fVpampKq6urMk1T/f39ymQyZ4ZbAOBl88fP9jHZ51eHcl1Xtm0H426r1VKlUtHm5mYQikwmkzIMI6ia5bfZyWazqlarMgxDmUxG+XxesVhMtVpNxWJRlmWpXC7LcRwNDAyoUChob29PlUpFR0dHSiQS2t3dVbPZVCaTUTqdPhE0BAAAAAAAAIDLggAKgG9FZ3sQ/+vnnWz5puvhu+N5nkzTVCKR0NzcnKanp1WpVHTr1i397ne/05dffinTNJXP55VKpeR5nhzHkWEYqtVqWl1d1eHhYRDE8MMafnuYXC6naDQqScGkoN+apnOysbPSifR1aKS9LU03j9V/vKe1TvA8T/V6XWtrayoWi0H1E9d1g3VjsVhQWeW0UMdpj6GdbdvBVfz+42sPrLSv3/n6SSaT6uvr08zMjPb29rS9va14PB4EeUzTVG9vr65du6aNjQ3t7e1pd3eXK/UBXFjtv1Ns25Zt2/I8LwialEol7e3tqVgsKhKJBOv4Y148Hlc6nQ5Cj4lEQvl8XtlsVs1mU/v7+4pEIqrVajIMQ729vYpGo3IcR+vr60GVlN3dXbVaLV25ckXJZPLUsAwAAAAAAAAAXHQEUIAXrNvARGdw4yJ6UZUSqLhwMbQf8/5V6MlkUjdv3lQ0GlUoFJLnedrb21O9Xg8CD+l0Wm+88YbeeecdjY6OBu1wOtvJRCIR9fT0qNVqBWEmvx2CH2RprzLSGfhoD410+zif9vq0LEs9PT26ceOGfvCDH2hyclLxePzEPrRXOclkMkokEicCWufZB8dx1Gq1ToRMnhVa8TmOI9u2g4oyzWZTq6urGhoaUi6XUzgcVjQaVT6f1+zsrI6OjnR0dKRCoXDicT/PPgPAy9A+Nvrjpuu6we2maSqdTuvatWsaHR3V1atXlU6nT2zDdd2gDZofQrEsS+l0Wr29vTo4ONDR0ZFSqZRCoZCy2ayy2aySyaSKxaLW19dVKpV0cHAQtJnL5/NBxS8AAAAAAAAAuGwIoAAdnjaR6084nxUMeZUnZL+NSiLn3eazJu6ftmzn8p2VHTqXO+v759lPnF/783zazyscDqunp0cjIyMaHBzU/v6+bNuW67oKh8NKJpPKZDJyHEc9PT0aHh4OAhDtYRKf67qq1WqKRCKKRqNqtVqqVqtBJZD2D9u2VSqVVKlU5DjOiTDKs5y3Skrn9kzTVCaTUTKZlOu6SqVSQajjtOBL+2NstVrPvL/T7r89CNI+qXoW13VVLpe1vb2ttbU1RaNRjY2NaX19XY8ePdKVK1eUyWQUCoUUi8U0NTWlSqUiwzCCVhMAcBG1j9l+S7NkMql0Oq16va5MJqOxsTHl83lZlhVU2/LHVr/SlD/uxmIxpVKpoEVPJBJRvV5XIpFQPB5XKpVSIpGQ4zg6ODiQJB0cHCifzyuZTAZVp15EZS4AAAAAAAAAeJUQQAEe8ycnms2myuWyKpWKms1mcHs4HFY6nVYikQjaUXRWauj8XHoxoYf2oMezJtHPEwZ5UfvVuc1u7sOfRG80GiqXy5KOy977FTR8rVZLtVpNxWJR9Xo9mEjyl202m6pWq7JtW4ZhKJFIKJPJKBqNnpg8wvPr/Dnbtq1arSbXdRUKhRSNRp9oS+NP3kUiEcViMVmWpUgkomw2q76+Pm1tbWllZUW9vb1KJBLBz7rVaqnZbAY/x1gsFkwYFgoFlctl7e7u6vDwUMlkUrFYTJLUaDR0cHCg9fV17e7uBoGQzoooT3uMz7q987FJx5OThUJB2WxW1WpV6+vrGhwcVDKZPDFe+MdmOBxWOBwOwimdIZqzWvN0/t++nN/Owb/Kv72FhOu6ajabWl9f1/3793V4eKjBwUENDQ3p1q1bWllZ0ejoqMLhsFKplEzT1JUrV4LKAaZpql6vSzp/SAcAvkudY+hZ45Qfkszlcsrn81pbW9PW1pZ2d3cVj8eVSCSC7dXrdTUaDUUiEcXjcYVCIRmGoUgkolQqJcMwtLe3J9u2FY/H1dPTEwQlY7GYTNPUwcGBarWaKpWK+vv7g99nndWkGFcBAAAAAAAAXAYEUPDaay/PXq/Xtbm5qa+++kpLS0va39+XdDwpkMvlNDc3p7m5OQ0NDSkcDsuyrBOTwO2BlNMmP553cuFpEyid+y/pqS1GDMM4MSl9WlWR593HzgDOac/FefjhE9u2tba2pk8//VSe52lmZkYTExPKZrOSjifRK5WKFhYW9P7772tjY0OZTEY9PT2amJjQ4OCgtra2tLi4GEwITU9P691339Xo6GgQgED3/DDFgwcPVKvVlEqlNDAwoGg0Kuk4DFEqlbS6uqqNjQ2lUin19/cHIZNUKqXp6WlVKhXdu3cvuBq8v79flmWpXq+rWCyqVCopGo1qampK8Xhc+Xxeb7zxhm7duqUHDx4ok8nItu1gva2tLd29e1fLy8sqlUon2hx0HvOmaQahjad5Wiikve1QLpfT+Pi4pqamtLa2pnA4rHg8rkwmI9M05Xme1tbWVKlUlM/n1d/fr1Qq9cTrx3+ddu7DafvjeV7Qzqe3t1e2bWtvb0/7+/uKxWJBi59ms6nd3V3duXNHCwsLunnzpqanp4Pn7+DgQF988YUSiUQweeo/Pv8144+Tp+0fALwMp42VnW3h2j/8ccwwjKBK18rKira3t/XJJ5+o1WppcHAwGLN3dna0t7enfD6vwcHBIHTityqLRCI6PDxUpVLR9PS08vl8EDBJp9Pq7+9XqVTS4eGhYrGYCoWCkskk5yIAAAAAAAAALi0CKIAkx3FULBa1uLioxcVFFYtFxeNxTUxMBFUzQqGQXNfV0dGRMpmM0ul0MEFx3ooJ5w1lvKjJ3ecJg5wWoulc92nbO2+LE3/ZzrCOH0A5PDzU0tKSTNNUX19f0J6kfZlyuazNzU3VajVNTk5qYGBAhUJB6XRajuOoUqmo1WppeXlZ29vbKpfLchznXPuG8/Mn2I6OjrSwsKDPP/88eJ7bWxgMDQ1pbGxMo6OjSiQSsixL8Xhck5OTqtVqKpfLevDggdbX14PqG9FoVNlsVj09Perp6ZFlWTJNU+l0WnNzc6pUKrpz544+/fRTPXz4UNlsVpZlKZFIyDRN9fb2ynGcE1eZS08ez53HbXuYq706Sec6/jLtYbN4PK7h4WG9/fbb+uSTT7S4uKj9/f0T1Xf8yi+nVYtpd9p9GoYR3Gd7VZdwOKxMJqPp6WnV63V9/PHHWltb08zMjG7evKlUKqVSqaSPPvpIm5ubyufzmp+f18jIiCKRiK5fv647d+5odXVVR0dHKhQKQQCl/TnzWxvZtv3NDhgA+Bacdk7ROb533i4dV1kbHBwMxsClpSVtbW0pnU4HVapisZhyuZwikUhQocvzPEUikRNt1/wqKdlsNqhulUgk1NfXp8XFRZVKJeXz+SCg8rTAMAAAAAAAAABcZARQ8NrzPE+2bWt7e1t/+tOftLKyorm5Ob377ruamZkJJolLpZLW19fluq5qtVpQol06rszReZVt+21+tYVn7Yf/f2doxb9q97TJlPbtPi0E0l75pLOVjz+hfdoEzdP2tX0/2nU+1s778u+//f5c15XjOLJtW41GQ+Fw+Ilt+9vxS+dPT0/rJz/5SVCRxl/m6tWrWllZ0fvvv69Wq3Wi9Q4l7r+5zuMjlUppdnZWrutqdXVVH3zwgQ4ODoKgRDab1czMjP7mb/5Gk5OTisfjwbFhGIYGBgaCZd9//319+umnajab8jxPQ0ND+v73v6/Z2VmNjo4qEolIkmKxmEZGRoIWCv/93/+txcXF4Bh699139Wd/9meSjtv+1Go1hUKh4BgIh8PKZrMaGRkJQivtx4RhGEqlUurt7VUoFApa+7S/7sLhsHp6eoIWO+3byOfz+t73vifbtvXhhx/qj3/8o5rNZhBi++lPf6qbN29qYGAgeEyO4wQTlbZtK5lMPvEa8iczBwYGlE6nFYvFTrwewuGw5ufnValU9O///u9aXl5WsVjUwMCAqtVqcHX/6Oio3nrrLY2OjgZX8o+Pj6tcLuvo6CjYH9u2ValUVKvVghDY+vq6VldXg/vntQTgZfLH1Ww2q4GBgaD9TeeY3t72zQ+I+OcDuVxOb775pizL0u9//3vduXNH5XJZkUhEyWRSb775pubm5nTlypUTrXn8wGNfX5+Gh4flOE4QhPWr40WjUfX396u3t1f1el1XrlxRoVA4dR8BAAAAAAAA4LIggILXnud5ajQaKhaLqlarSqVSmpqaUqFQCKouSFIymdTIyIhc11UoFAoCD36LCs/z1Gq1ZNt2MGHrT66HQqFgErzzvl3XPbGeHwTx1/GX87/XHgJotVpBuMVvsdO+Dcuygu34QRt/HX+bkUgkuFr3tH3z1/OrHvjLWZYVtCHy798vbd9oNIIJGum4coJfGcOfwPfXlRTsd71eDya8Pc9TpVJRuVxWPB4Plm8Pr/j33X7/7dUp/OcEL8ZZLWhGRkaUSqX0/e9//0R1jFAopEQiEVTUOG3CLZPJ6Pr16xoaGlK1Wg3uw7+63J9QbA+umKapQqGgd955R2NjY7Jt+8T2wuGw9vb2FIvFFI1Gg+CLX4HknXfe0fj4uLLZrHK5XHAc+q+x6elpXblyRZKUSqVOvNYjkYgKhYJ+8IMf6Pr168rn80GQw38txuNx3bx5UyMjI/rZz352IrzS29urbDZ74rXs3+fAwIA8zzsR8PAfbzQaDdo7hMNhpVKpEyEQP9Dz3nvvBaGgeDyuQqGghw8famdnR2+88YYmJyeDdkb+9sPhsKanp9Xf36+enh6Fw2GVy2XdunVLCwsL2t/fD6oPVatV/ehHP9Lo6GgwPgHAy+CHUd955x3Nzs4qHo8rl8udqDoVDofV19end955R1evXlUsFgvGOUlB9aqrV69qYGBAlUpFjuMELdrS6bTy+byi0eiJcyfDMJRIJHTt2jWNjY1JktLpdFDFS5Ki0agGBwf1V3/1V6rX60okEicqpAAAAAAAAADAZcTsEV57nuep2WyqWq3Ktm1Fo1Hl8/mglYe/jF+BwNdZxaPZbGpnZ0f379/X7u6upOOQRk9Pj4aHhzU8PKxMJnPivl3XVbVa1dbWlh4+fKiDg4Og+kdfX59yuZwkqV6vKxqNanR0VNlsNghnrK+vq1gsKpvNKhKJqFgsant7W0dHRwqFQurt7dXIyIj6+/vluq7W1ta0tLSkSqUS7Nv4+LiGh4cVi8WemFD2W+I8evRI6+vrwUS/X4lhaGgomJgxTVONRkNbW1va2dmR4zjq7e2V67paWVnRwcGBWq1W0KZkZGQkmEyv1WpaX1/X4uKibt++rZWVleD53d7e1sTEhMbGxoKKGf7z7/9sOoMRVDp58fxAkvRkVZ5kMqlUKqXR0dFgWX+5Z/FDIn19fWdWvOms2OMfg/F4PFjP/2i1Wtrb21OtVpPneSoUCkqlUkEALBKJqK+v74n7a7+vbDYbvM46jy0/0BWPx098v308CIfDKhQKKhQKZx6n7ceoaZrq6elRLpc79TnzgzH5fD4YE05bLpVKKZlManh4WJKCNj25XE6u6yqTyaivr0+ZTOZEaCsUCimXyymfz0uSWq2WWq2W0ul0UAnGHwNjsZhmZ2fV19f31BZCAPBt8wN/sVhM/f39wfekr8dcy7KUTCZPnL/5/DHZHwPPGoN97YFW//dJ51jfvl3/vDGZTJ6oNMfYCQAAAAAAAOAyI4AC6OtqIo7jyDAM1et12bb9RJuY9itffa7rql6va3t7W7dv39Yf/vAHra2tBVfPFgoFXbt2TZ7naWJiIqha4DiOKpWK1tbW9MUXX+jTTz/Vzs6Oms2motGoxsfHg/YZh4eH6uvrUyKRUDqdlud5KhaL+vTTT/XVV18FYY5isajFxUWtra3JMAz19/fr5s2bunr1qkzT1P379/XRRx9pf39flmWpr69Pb7/9tkzT1ODgoBKJxIlKJoeHh7p3757+9Kc/6d69e2o0GjJNU5lMRpOTk7p586bm5+eDkvLValULCwv6+OOPVavVNDc3p0gkojt37mhtbU2VSiWYwH7nnXeCChLValVra2v67LPPdPv2bW1vb8vzPO3t7Wl5eVkHBwdB6xTpZPikfUKovSqK/zVXGb84fkWc9pYz7a8R/+vn8bSw0GnfdxxHzWZTruvKNM0TrZr8QNfu7q42NzfleZ4GBgaUyWSeu1pHe0uss/ats7VUu9NaY/lX1fvhj6c9ztN0brO9bdZp+2VZlizL0uTkpCYnJ5/5ePx1LctSKpXSO++8o7ffflvSyYnX9pZGBL0AvAqeNRa1/87yv+6snHbe+zitnWH75+0hGJ9/Tvi8vyMBAAAAAAAA4KIhgALoeKI2EonItm1tbW3p9u3bCofDmpycVDQaPRFqkE5OZNTrda2srOjjjz/Wo0ePND8/rx//+MdKJpOq1+taXV3Vzs6OPvvsMzmOo6mpKcViMVUqFS0uLuqjjz7S9va2Zmdn9Rd/8RfKZDJyHEe1Wk2rq6taWVlRqVRSJpMJJvv9CYxGo6GNjQ0Vi0Vdv35d8/Pzun79uqrVqpaXl3Xnzh397//+r+7evauRkRENDg7q5z//uaLRqIrFoh49eqSVlRVJxy1PIpGIQqGQbNvWwcGB7t69q1u3bskwDP3d3/2dcrmcwuGwDg4OtLy8rHv37gWhj76+vqCVTrlc1ubmpkKhkG7cuKG//uu/Vjgc1uHhoZaXl7W0tKRbt24FVVeSyaSuXr2qTCajgYEB3bp1S5Zl6caNG5qentbg4KB6e3uVSCRUqVSYwHkJ2sM83yQ88SLuXzquBrSxsaFKpRJUBYnFYjJNU47jaGVlRV9++aWq1apGRkY0MjKiZDL5ROijc7ud1Ul8ZwWYnhbkOO3281713hnoOctZP4/TtN/vWUG6zs/b2wP563XePwC8bJ0BkOepwOU7ayw8z7ae9vuwfSzt/B8AAAAAAAAALisCKHjt+SXcC4WCBgcHtb+/r88++0zlclm7u7saHx9Xf3+/UqnUickE13XlOI6KxaIWFhb08OFDSdLc3JyuXbumeDyuarWqRCKhUqmk9fV1pdNpDQ4OyjRNHRwc6OHDh1pfX1ckEtHVq1c1NzenbDarZrOp3d1dNRoN3bt3T47jPFHpo72qgud5SqVSmpycVKFQkOM4yuVy2tnZ0fLysur1unp7ezU4OKi5uTllMhnt7u7K8zz9/ve/V6VS0fT0tHp7e2WaZhCcefDggSqViubm5vT9739fvb29CofD2tjYUK1W06NHj7S6uqqhoSHlcrmgTYd0PHHjtyKZn59XNptVuVxWJpPR1taWtre3tba2psHBwSB4kkwmVavVtLy8rEgkorm5Od24cSNoDdL+HDzPVct4MU4LY3zXk2p+8KJcLmtvb0937twJ9q3Vauno6EiVSkVDQ0OanZ3VwMCAotGoJJ0IXjzr2GlvqfM8FV6eVWHkeTxr8vObPOdPC548bdtMmgK4jDqrmLzobQMAAAAAAADA64YACl57hmEoHo9rdHRUb7/9tlzX1Weffabf//73un//vn7wgx/o6tWrGhkZUSqVCqp2eJ6nRqOhra0tPXjwQJJ0/fp1DQ8PK5lMyjAMRaNRDQwMaHR0VHfv3tXe3p6q1aoMw9D29rY2NjaUTCY1NTWlsbExZTKZoK1IPp/X+Pi4lpeX1Wq1npgE9ydMMpmMJiYmNDMzE1QJcRxHfX19Gh8f197enizL0uzsrMbGxhSPx2WapmKxmHp6eiRJh4eHOjo6UrPZVDgcVqlU0v3797W2tqaRkRFdvXpVhUIhmMhPp9MaGRnR3t6ejo6OVC6Xg/ZFlmUpGo2qt7dXs7OzmpycVCwWkyTFYjEN/D97d9LcNp7ff/yDheC+L6J2y7Itd9se95KZyfSk8q9UckrlkHueQC55KKnKKacc8wCSQ+Ywk8MkNZkk3e2Z7rbV8m7LkmXtXERxBYj/wQGGkmW3bLnblv1+VakskyAIQiAA8vfB9zs2psnJSfX7fbVaLbXb7e9sdwIEotGoJicn1e129ejRI127dk2NRiNsa1Uul7WwsKA/+qM/Crf3w20T3na8DwDgeL7Pilyn4XgBAAAAAAAAAG8bAiiAnlZPSCQSmpubUyqV0szMjL7++mutrq7qyy+/1NLSUhhQOXv2rPL5vIbDobrdrnZ3d7W5ualEIqFcLifDMNTpdCRJg8FAvu/Lsiz1ej3t7e2p0+nI933t7OyoXq8rn89rfHw8DIaMhjhSqZTS6bQikYiGw+GRVT8ikYjS6bRSqVTYLsM0TTmOo2QyqWKxqHg8rnK5rGQyKcuywmWKRqOKx+MaDAaSng589/t91et1bWxsaG9vT6lUKpwmeP5+vx8ua6fTUafTkeu64TyCqjLZbDZcLsMwZNu2EomE8vm8tre3JUmu62o4HD631cnzBoCogPJ+CgJa4+PjYZuswWAQXsUei8WUzWZVqVQOvKdeBYOPAIB3xeF2RcHvAAAAAAAAAPA6EUAB/o9t2yoUCspmsyqXy8pms1paWtLa2poePXqktbU19Xo99ft9LSwsKJFIaDAYqN1uq16vq9Fo6M6dO9rZ2VE0Gg0rMuzv72ttbU2bm5tyHCesgNLpdNTtdsNARiQSkfSHAQLLsmTbtiKRyAvDGUHYJBKJHKj0YFmWHMdRIpFQMplUIpGQ4zgHprFtW47jhMGVoKVP8Do7nY5WVlYkSalUKgyvdDod7ezs6MGDB5KkVqulXq8XtgoyDEOO44TztiwrfN5guWzbluu6GgwG8jxPlmV959/otFSweJ/9EH8fwzCUzWaVyWR09uzZcLsYbU016qhWOi/7fO9L2In3F4Dv8r6GF9631wsAAAAAAAAAr4IACt57weDy6CB2Pp/XJ598oosXL2p9fV1ffvmlrl27psXFRXmeJ8dxdObMmXCwu9fraXNzU+12OwxXBPMdDocaDAayLEuxWOzAwE0QHnEc50BIQ/pDhY/RyifBcgaPP+q1mKYZPsfh6g/B/cHto4PyowP3QUUYz/O0tLSku3fvhq8pCNZ0u131ej1NTExIkjzPOxBAGX3u4N/hcBhO47qu+v1+WFlldBm+q7oJQRR8V8Wc0e3oqGm/a/t5me1rdFs96nHfdf/rxnsDwA/hh963vQ7PO3c6rY77N3jeOdX7GiYCAAAAAAAA8P0hgAJIB8IdQXgiFouFlUVs21Y6ndbi4qK63a7W19dVrVZl23ZYOaVarerKlSvKZDJhBZRAUJEkn8+rVCqp1+uFz9Xv99Xr9TQcDp+7XIfDKC/jeYMKLwpxBM+Xz+c1NzeniYkJxWIxWZYVBlyCn0QiocnJSWUyGbVarfDxx3HUdEFI5UVVK2i/82a8DQNUx1mGw++90eooz5vHcQbugpCV9LSSTxAaC96bh4Muo2EYADjtjqoudZS34VjxPhg9FzocYB697Xl/p+Cc8nBoGAAAAAAAAABOggAK8AKmaSqVSunMmTMyDEN7e3va3NxUq9WS53mKRqNKJBIqFosqFAq6cuWKJiYmlE6nn6lEIj0dBBgMBtrd3Q1b5nQ6He3v7x8IoPi+L9d11ev11O125bruD/qag+BNJpPR/Py8Ll++rHw+f6AKivTsIFO32z3RAMbhiiyjgyPAy3idVXKC9+P29rZ2d3fD0FmhUDiydVRQBShYDgB431BZ4/v1vHZzh///XVW5Rqc5jRVtAAAAAAAAALx9CKDgvef7vjzP02AwCKsYRKPR8GrQ4DbLshSJRMKKKJZlKZFIqFAoKJfLqdvt6vHjx8pms0okEgfazvT7fXmeF84nFospnU4rFoup1Wppa2tLU1NTisfjsixLrutqb29PGxsb2tjYULvd/sHazkQiEaXTaRWLRbVaLe3s7GhnZ0epVOrAVbJBNQjf98O2QydlWVbYkkhS+DcJjA6OBK2EgON6lfdPED6p1+v66quvdP36dcXjcS0sLGhhYSHcVkfnHwTXYrHYM4EtqqEAOM2C4IPrumErvtHjtG3bisViikajr+W8AAcF4dx+v69OpxOeUwah5qOmDyrt+b4fhib7/b4MwwgfS9gXAAAAAAAAwOvCN8N47w2HQ+3v72tzc1PNZlPxeDxsOWOapjzPU7vdfqb6QTweVywWU6FQ0NjYmL799lv9/ve/VyKRkOM42POiwgAAIABJREFUSiaTMgxD7XZb9Xpd+/v7SiaTqlarchxH5XJZlUpF9+7d0+LiorLZrCQpk8mo3+9rfX1dDx480JMnT7S/vy/pD1UdjjOI/aoDCbZtK5PJaGZmRrVaTQ8fPgxDOcViUdFoVK7ran9/X41GQ77vq1qtKp/Pf+fyvGiZgnCL4ziKx+Nqt9tqtVra399XJpM5UGkiCJ8wWILvm+d5ajQaWlpa0uLiom7evCnf97W6uqrr16+HA6zD4VCDwUCJREJjY2O6evWqpqamFIvFJBE+AfDyRluIvenj3WgrwF6vp/X1dd25c0dra2va29sLAwzlclkLCws6c+aMCoXCGws2vKsVWHzfV7fb1fLysm7fvq1sNqvz58+rVCopGo2G00gKQ9Sbm5t69OiROp2OMpmMHMfRysqKYrGYLly4oEqlEoYp37X1BQAAAAAAAOCHRwAF0NPB406no42NDfX7fW1sbCgSicg0zXCwZWdnR7Ztq1KpaGpqSolEQpFIRNlsVrOzs1pbW9ODBw90/fp11Wo1ZTKZ8PFBFZVIJCJJYQDl7Nmz2t7e1tbWln7/+99ra2srHLAJriy2LOvINh/H8SoDCaZpKpFIaGpqSrVaTTs7O7p//76Gw6EKhUJY1UF6OjifTCbled4rLd/hZbUsS+l0WtVqVcvLy3r48KEsy1Kr1VKlUlE6nT7wuo47oM+ACl5VrVbTysqKtre3FYvFNDs7q263K0na3d2VYRjq9/va29vT2tqa8vm8PvnkE124cIEWUgBei7dlH+J5nprNZni+8/DhQzUajbC6hmEYcl1X6XRa+Xxe6XQ6bN2HV3c4UNLpdLSysqLPP/9cExMTKpfLR4aAPc8Lq/PdunVLlmXJMAxFo1Gtrq6GlfkikYiKxWJ4jsrfCwAAAAAAAMBJEEDBe880TaXTaU1NTcl1XS0tLembb74Jq46YpqlYLKaJiQl9/PHHmp6eVi6XUzQalWEYisfjmp2dle/7SqfTunv3rm7evCnbtuU4jsbGxnTx4kVduHBBY2Nj4eOy2awuXryoSCSi69ev6/79+7pz545s21Yul9OlS5d0/vx5DYdDLS8vH2g3E4Q1ksmk8vm8UqnUM6Xug+UOWv04jnNgUMEwjLDaie/7YcUX6WkVlFKppMuXL8u2bS0uLup3v/udBoOBJCmXy2l+fl4LCwuamZlRJpMJnzMejyuTycgwjAPtSUaXK5gmGo2G7Y6C6ieVSkUffvih2u22bt26pcePH2tra0uffvqpzpw5I0lhqCcQXJkdvK7Dt1N5AscRbCeDwUD9fl/dbldfffWV7t+/r8nJSX3yySfh+zdgGIaazaYeP36szz//XOl0WgsLC4rFYtrb29P+/n64nQfbOl4N72PgzRkOh2q321peXtbnn3+u3d1dnT17Vn/yJ3+iSqUSTtNoNMJQSqfTCVsSvkxw9HmtZI7r8HnAqzz3d017eBlfNP3LBjpeNC/f9zUYDMIqcf1+/8D5UPB8QZB5fX1d6+vr8n1f58+f1/z8vHzfl23bun37tu7evatEIqF4PH7kuSQAAAAAAAAAvCy+ZcR7zzAMRSIRZTIZTU9Py3EcVatV9Xq98H7HcVQoFDQ9Pa1sNqtIJBIOKARVO+bm5pRKpTQ9PX0gvJLJZFStVlUulxWPx8N5mqapfD6v8+fPK51O6+zZs2FlhSDwIkkbGxuq1WpKpVJhiMQ0TeVyOV29elVzc3PK5XIqFAoHKqXE43GdOXNG+Xw+DJQEV79KT0Mm5XJZP/3pT9Xv9zU+Pn5goMhxHJVKJX344YfK5/Pa3t7WYDCQ7/uKx+MqlUqqVqvKZrPhgEU8Htfc3FzYTqharR5YV4ZhKJFIaH5+XsViUZZlqVQqhVfdmqapVCqlM2fOyLZtzc3NyXVdFYtFlctlOY6jdrt9YHAmGGgJBplGQyee54XVWd6GFgZ4u/m+L9d1tbW1peXlZd26dUu3bt3S7u6uVldXlc1mDwS5gu2w2+2qXq9rd3dXrVZLn3/+uZaWlsJtf2pqSvPz8zp37twzQTAcjfcr8HYJ2hVubW2p0WiE5xizs7PK5/NhdY5cLqdms6lIJBKek4wen4MA6ehxPLj/ee31Rtv/jD529NwiEMxnlOd54XMEyzlaoWr0eZ+3jKPTHG6pNvqY47ymYPrRZR4Ny46+vtHHBuc1rutqMBio1+tpMBjIdd3wZ3T5Wq2W7t+/r2azqVKppPHxceXzeQ2HQ83Nzandbuvu3bva3t7Wzs6OotHoDx5AISQMAAAAAAAAvHsIoAD/JxKJqFKpqFKp6MqVK8d+XBBgyefzyufzunDhwnOnPfwleyQSUalUCquNBNMEA+GPHj2S53lKJBIqFouKx+MyTVOWZSmTyYSVRo4Si8U0NTWlqampI++3bVuFQkGFQuG5yxsEYYIwzHeJxWKanp7W9PT0ka89aO8zMzOjmZmZ566TYLkO3xdcgR0M9IwONB0OoAS3MbCB4+r1eqrValpeXtbi4qJ++9vfhpWN2u32gfBT0Npgd3dXpmkqm82GYa96va5msxlepd5oNBSNRjU3N/fSy/Q+hzCCgdT3eR3g/fY2bf++76vdbqvZbMowjDDQkEwmw2kMw1AymVQikTgQDA14nqdWq6Xd3d1wHxmcG2SzWZVKJaVSqQPHdenpsb/b7apWq2l7ezsMCDuOo3Q6Lcdx5LquhsOhkslkWKXO8zx1Oh3t7Oyo1+spnU7LNE21Wq2weojjOMpkMsrn84rH4+r3+6rVaqrX6+r3+7IsS6lUSsViUZlMJgxojJ5b9Hq9MITY6XTC155IJFSpVA4El4O2jo1GQ91uV5ZlKR6Ph8eTfr8vSWFbnHw+L8dxZFmWOp2Otre39ejRI62trWlvb09bW1u6d++eer2eqtWq8vm8EomEBoNBeDwzTVPj4+PK5XLh8heLRVWrVW1tbanZbIYtIINKXW/LdgcAAAAAAADg9CGAAvyADl/FGlyVa5qmbNsOB108z1O73db29rZ2d3cVi8VUrVYVi8WeudL3Rc/zNnnZZT1OCfpWq6V6va5YLKZ4PK5IJKLBYKBms6l6va5er/fcK6qBwzqdjh48eKDNzU35vq/x8XFdvHhRly5dUiaTOXBVfbPZ1Nramq5du6Z0Oq2PPvpIlUolbNFjGIZqtZru37+v/f39Z66YB4AXedv2GUEwttPpqNPpqNvtHmj/ElT1CM5pRpd/9Jh9//59ffvtt1pZWVGr1QrbwZw5c0ZXr17VmTNnlMvlDpwP7e/va319XYuLi1pcXFSr1ZJhGEqn0zpz5ozi8bh2dnbkuq7m5ub08ccfq1QqqdfraW1tTf/93/+tzc1NnT9/XolEQuvr63ry5IkajYYcx9Hk5KQuXryo8fFxtVot3b17V/fu3VOr1VIkEtHY2Jg+/vhjXbhwIWxTE7zewWCgjY0N3bx5U7du3dLOzk54flcqlXT16lVdvHgxrOI2HA5Vr9d1/fp1raysyHEcTU1NaW9vT0tLS2o2m3JdV4lEQpcuXdLly5c1Pj6ueDyu3d1dLS4u6ptvvtHt27fDME6v11OpVNKPfvQjXb16VZFIRHt7e9rc3FSz2dTY2JgKhYLi8Xh4LhS0n8zlcnr06JG2t7c1PT0dhnQAAAAAAAAA4FURQAHeAN/3tb+/r93dXQ0GA8XjcRWLRUWj0bDM/YMHD3T79m21221Vq1WNj48rFouFj3+fAxWe56nZbGp1dVX9fl8TExOanZ1VpVLR5uam7t+/r/X1da2urmpyclLS2xnKwdvFcRxVKhU5jiPbtrW7u6tisaipqSlls9kDg6qPHz/W+vq60um0pqamdP78eRUKhfDqcsMwFI/Hw8FEtr/Xg6pGeJ+8TRVQpKctB03T1P7+vh4/fqzl5WUlk0mVy+UDoYXR9jNB4LZer+vhw4e6deuW6vW6pqamlEgk5LquGo2GdnZ29MUXX8jzvDDoMRwO1Ww29fDhQ924cUM7OzuqVCqan58PWxq6rquVlRU9ePBAtm0rm82GVUSCqmlPnjzR0tKS9vb2dOHCBRWLReVyOe3s7OjJkye6deuWHj16FLaoicViWlhYkOd5qtVqajabun37tizL0vz8vNLptHzfV6/X05MnT3Tnzh0tLy8rFovpww8/lG3bYbWYxcVF9ft9XblyRZVKRaZpqtfraXd3V3fv3tVgMFC321W1WtXCwoKGw6F2dna0vr6umzdvhgGdoE3ixMREWJGr0WioXC5rYWFBk5OTmp2dVTqdlmVZajab2tnZCddJMpmUZVkHWhElk0kVCgXdu3dPtVpN+/v7cl33QLtGAAAAAAAAAHhZBFCANyC4GjgYdJGkXC4XXh0bXCW8tramfD6v6elplUolOY7zhpf8zQraHaVSKZVKpTCE0u12FY/HFYvFtLm5qZWVFe3u7oYl7IOBF+BFksmkzp49q2azKUm6ceOG1tfXdfv2bSWTyQMDrCsrK+FAajqd1uPHj7W7uxteFW8YhhqNhlZWVtTv91/Y6goA3namaSqZTKpUKoXH2q+++kqe5+n8+fPh7cF+MgiguK6rbrertbU13bhxQxsbG5qamtJnn32mqakp9ft9rays6D/+4z/08OFD5fN5lctlxWIxeZ6njY0NLS4u6ttvv9XY2Jg+++wznT17VslkMqxWsrm5qXa7LcdxnmnBFwRg9vf3VavVFIvFdPXqVRUKBdVqNV27dk3//u//rqWlJVUqFf3kJz/Rz372M83Pz8txHN29e1dffvmlHj16JMMwwnaIktRoNHTz5k3dvn1bkUhEH330ka5cuaJkMqm9vT19/fXX+vWvf62bN2+qVCopk8kokUhI+kM4pt1uq9fraXp6WufOnVM8Htfq6qq+/PJL/c///I9u3bqliYmJMDSTTqdVKpXk+742NjZ05swZ/cmf/InOnTsXtkMKqs20Wi2l02kVCoVnKuhJT9smptNpSdL+/r7a7bYGg0G4HgmhAAAAAAAAAHgVBFCAN8A0TWUyGVWrVbVaLd26dUsbGxvq9Xph+fp4PK7p6Wl98MEHmp2dVTweP9BK5l0fGBh9fUGJf8MwlEgkdP78eVUqFXW73TCUkkwmFYvFNDU1pY8++kiDwUC+7yuRSCifzysSibzz6wwnN1pxYDgc6ubNm7p7964sywrbLXQ6HfX7/bD9RK1W08OHD2WapobDoTzPk2EYcl1XvV5Ps7Ozsm2b7Q/AqWVZlgqFgi5evKhOp6NvvvlGDx8+1Orqqm7fvq0f//jHmpqaUiaTUTQaDaufuK6rZrOpR48e6dGjRyoWi7p48aJyuVzYerBYLGpubk69Xk/dble1Wk2lUkmDwUDr6+va3NxUtVrVpUuXNDY2pmg0Kt/35TiOZmZmVKvVtL29rW63G1b5OFwpKZ/P68MPP9SFCxeUz+cVjUaVzWY1NTWl6elpua6rqakpXbp0STMzM+E5VzabVbFY1IMHD7S9va1WqyXXdeW6rjY2NnT37l3t7e3p448/1szMjGKxmCzLUiqV0vj4uGZnZ7W/vx+2BUylUmFIJ5FIqFAoaGFhQRMTE+F6y2azmpmZ0d27d9Xv99VqtdTtdsOwiGmaYTUa6emxKmh/FASce72ehsOhMpmMMpmMIpHIM+eQlmXJcRzF4/HwmBacOwEAAAAAAADAqyKAArwhkUhEuVxOMzMzMk1T5XJZvV5PkmTbttLptMbHxzUxMaF0Oh229ngfjQ7cB+stm80eOU0mk5GkA5Uo3rY2Bni7OY6jarWqn//856rVamE7h263q62tLX311VdyHEfnzp0L2yLYth1uc4Fgm6tUKpqcnHyv38MATqcgjGAYhhzHUblc1pUrV5ROp3Xr1i0tLS3p66+/Vr1e19jYmObm5nTx4kWVy2VFo1G5rhu2uun3+8rn86pWq0okEmGVlHg8rkKhELbPCSpx7O/va3NzU7u7u1pYWNDMzMwzrWSSyaSKxaIKhYLq9boMwwgDGaOi0ajK5bIKhYKi0ahs21YsFgsDJp1OR5OTkxofH1cmkwnb0MTj8TD40el05Lpu+PvW1pb29vYUj8c1NjamXC4XBj1s21YymVQ+n1en01Gr1QqPJUEQJB6PK5/Pq1Qqha1zDMNQLBYLq53U63X1+325rvtMMGT0/CY43gQVXzqdTtjiMZlMhmGfUaZphgEU13XDcCUBFAAAAAAAAAAnwWgY8AbFYjHNzMxoZmbmTS/KW+2o8IhhGC8cJAmu7gVeViwW0+TkpKampsKBw729PfV6Pe3s7Mg0TUUiEZ07d07nzp1TuVxWOp1+pmrP/v6+Go2GotGo4vE4VVAAnHrxeFxnzpzR+Pi4JicnFY/H9fXXX+vOnTu6ceOGZmZm1O/3dfnyZY2NjYXtBhuNhjzPU6/X0+bmpvb29sIqKf1+X5ubm2o2mwfCE51OR81mU/1+X5lMRvl8PgzyjR7/bdtWPB7X/v7+kUHA0Wofo9XQgtsSiURYKSTYVwePjUQichwnPJ8InrfX66ler4ctaxqNhlZXVxWJRMLn3tnZUaPRCI8hQQAlmHcQgnEc50A4JAiGBG1zBoOBPM878HpGpw2qoQRVuCSFFbgikUhYWeUolmUpFotpf39f3W6XCigAAAAAAAAATowACvAGMAgNvH2CFju9Xi8c7FtfX9f9+/d1+/ZtRaNRVSoVffLJJ2q329rZ2dHe3p7m5ua0sLCgaDSqwWCgfr+vXq+nlZUVXb9+XefPn9e5c+eUSCTe8CsEgJczWlkjEAQkJicn9ed//ue6evWqVlZW9PXXX2tlZUW/+c1vNBgM9OmnnyoajYbhjd3dXX3xxRd68OBBWDUqmG9Q9aRcLh8IkUSjUaVSqTCkEQQpjqpuFsxrtD3N97lehsOhms2mVlZWtL29rVQqJenpscSyLHmep1arJdM0VSgUXjrYYRiGPM8LgyHBbd/1mGA9HSeoG6ynYDrCJwAAAAAAAABOigAKAOC95/u+2u22VldX9fDhQ21ubsp1XWUymbAiSjQaVSKRUKfT0ZMnT7SyshIOoBYKBVmWFQZWYrGYIpGIisWicrlceCU7AJxGo0GUoHpHKpVSMplUpVJRpVJRKpXSV199pY2NDT1+/DhsaSM9bW2Wz+eVyWQ0MTFxIIAShCVs21Y2m9XU1JQikUjYTmYwGIRVQEZbAgUVVIKgRfB7ML/D4ZnXuQ8OljeZTCoajWp6elq5XC4Mz1iWFbbUiUajqlarz7QOPA7f9w9UQDm8DMd5/GjQ53n3v8w8AQAAAAAAAOBFCKAAAKCnLRU2Nja0tLSku3fvqtfr6ZNPPtFHH32k+fl5GYahRqOhGzdu6MmTJ+r3+zJNUzs7O1paWpJt27pz547+93//V/Pz8/rjP/5jffbZZ8pkMuFAJAC8C0YDHrFYTNVqVel0WslkUl9++aX6/b52dnZULpflOI5SqZQmJyd16dIlffLJJ0okEuHjg9DIcDjUcDgM286MVgBpt9vq9XrPtNeRFFaucl33tb2272KapuLxuIrFogqFgn72s59pZmYmbMFzuDpL4KggyPOmDYI1nucdWDfPC4yMhk1G2xCOrrPDhsNhOP/RyikcrwAAAAAAAAC8KgIoAID3nmEYSiaTWlhYUD6f16effqrhcKh+v6/Hjx/riy++kCQVCgVduHBBH330kQaDgRqNhh4+fKjf/va3mp6elmmamp2d1QcffKDZ2Vklk8kwfPJd7RAA4G3l+75c15XneWG4YbQljvQ0lBGJROQ4jizLCn8vFosqFouq1Wra3d1Vs9mU4ziKxWLh413XDQMWpmnKsizFYjFlMhnF43G1223V63Xl83lFIhGZpqnBYKC9vT1tbW1pZ2dH3W73te9jD88vCGbE43Hl83kZhqFaraZaraaxsbHwtUt/CHeMVmYZnc/hkMfhMMnougjmd7gFUVBxJfg3mCYWiykajYYt4YIQyujrCcItnU5HnucpFovJcRzCJwAAAAAAAABOhAAKAOC9F7SBiEQiarfbWl9fl+d5SiQSisViKhaLsm1b5XJZc3Nzcl1Xa2trGg6HGgwGarfbYfuIWCymZDIZDiByNTmA087zvDBAYtu2crmcMpnMgVY57XZbu7u7YVAkm80qGo0qGo2qUqno4cOHWltb0507d2TbtiqVikzTlOu6qtVq2tvbUzweVzqdDqumVKtVra6uan19XUtLS0qlUopEIopGo+r1enr8+LHu3r2rjY0NOY4TLu/ofvc4++HRVjTHad0Ti8VUKpWUy+X05MkT3bt3T6lUSnNzc0okEpKkdrutra0teZ6nbDardDodVkg57EWVTA6/Jtu2FY1GFY/H5ft+WP0lWF7TNBWNRmXbttrttvb398MgzOhr8jxPvV5P3W43fE2RSITjFQAAAAAAAIATIYACAHjvBVf37+/v6969e/rd736nbrern/70p/rJT36iarUqSep2u+r3+1pZWdGDBw8kSbZta3p6WhMTEyoUCup0Otre3taTJ080Pj4uy7JowQPgVBsOh2o2m3r06JGGw6Gy2WxYjUSS+v2+6vV62J4sn8+rXC6HQYhqtarJyUnduXNHN27ckGma2tvbk+M4cl1Xu7u7arfbKpVKsm1bjuMokUhoenpaGxsbunbtmm7cuKF4PK5ms6lMJqN+v6/V1VVtbW2p1+uFAZSjKou8KITyskFB3/fDyi7z8/Pa39/X8vKybNuW53lKp9MyDEN7e3thMMY0TSWTyfDxx33+oLpJUAnFsixFo1Hl83mNjY1pOBzq8ePHisViqlQqYUAnHo8rFoupXq+rXq+r3++HwZjg+YPwpOd54WMIoAAAAAAAAAA4KQIoAADoaZCkWCzqs88+08WLF8Or1rPZrHzf1/b2tpaXl/X48WNlMhldvHhRiUQivAI/Eokon89rfHxc7XZbzWZTKysrmpiYUDablW3bz1zNHqA1D4C3mWVZqlQq8n1fy8vL+vbbb7W7uyvXdSU93X/GYjEVCgX9v//3/zQzM6NSqRS2dKlUKvroo48UiUR0584d/eY3vzlQzaNarercuXMqlUpKp9Oy7acfUcbGxnT16lX5vq+7d+/q2rVr+vrrr5VMJpXL5TQ+Pq6FhYUwRDja8ixY7kQioXQ6rWg0eqANTnB/LBZTKpVSPB4P290EgmVMpVKybTvcj5umqVQqpQsXLsgwDC0uLur+/ft68OCBTNOU7/vKZrOan5/X5OSkisViGJAxTVOO44QhkeC1Bs9nmma4XhKJhOLxeDiNYRhKJBKanJzUBx98oFu3bumrr77S7du3denSJV2+fFmVSkW5XE75fF5ra2va2dlRu90OwynBuul0Otrb2wsr2ryoQgsAAAAAAAAAHBcBFAAAJEUiETmOo7Nnz2pmZiasdHLjxg21Wq1wUDMajapcLmt2dlaO46hWq4UtDJLJpPL5vKanp7WysqLFxUW1223NzMyoUqkcqIQStFcgfALgbWdZVljZYzAYqNvtajgcqtfrSZKi0agymYxmZmZ0/vx55XK5cH/n+75SqZRmZmbC9jCPHz9Wu92WaZqKx+Mql8uqVqvK5/OKxWKSnoYtgscZhqFMJqMnT56o2+0qEokol8tpYmJCg8EgbOETVBuRnoZi8vm8Ll26pP39fU1MTCgWix0IoSQSCc3NzalUKimbzYZVQoLndxxH5XJZV65ckWVZKhQKsm07fB3lclmGYciyLK2srKjRaITtborFoiYmJlStVpVIJGQYhobDoRKJhM6cOaN0Oq1kMhmu19EWOslkUvPz82Gbn0wmI8uywvBKuVzWhx9+KNu29fjxY3mep1gsFk6TTCaVzWbleZ4ajYb29vYOVKzxfV/7+/va3d1VNBpVsVhUMpl8JigJAAAAAAAAAC+LAAoA4L0XDKp2Oh212231ej31+319++23Wlxc1O7urs6dO6fLly8/EzxZX1/XYDCQ4ziKRqOKRqOam5uT53laXl6W53nq9/saDocqFAqKxWIM8AE4leLxuObn5zU7OyvP8w7cN9om5qhqT47jaGZmRuPj42FII7jPNE1FIpED1UACsVhMc3Nzmp6eDp8zCGsYhqH79++HoYt0Oi3LssI2OWNjY8rlchoOh3Ic50AFENM0lc1mdfHiRQ2Hw3AZDj/35OSkxsbGJD0NKo5WWTEMIwyv/OhHPzoQKAzCIsFzBtVNMpmMPvjgA7muK8Mwnml7YxiG0um0rly5ErbfCUIvo8s1NTWlsbGxsAqNZVmybTucX1DBy3VdbW9vq1QqKRqNSpJc11WtVlOtVlMqlVK5XObYBAAAAAAAAOC1IIACAICkVqule/fu6c6dO6rX68rlcioWi/qzP/uz8Er/7e1tff3119rf35fv+xoMBkqlUjpz5owmJibCNg2JREIzMzOyLEvLy8taW1vT3t6eLl68qKmpqWcGHAHgNAgCJkGQQXoaBhkNk4yGQ0aNBjJGq308bx7D4TD8MQwjrF4SVBLp9/va29tTrVZTq9VSPp9XsVhUNBoNAx+2bYdtdYJ5jy6XaZqKxWLPrUQVLHPQPuewoPpJUC1lNJhy1DoI1mEw39H5jAZjgmV/Xtu24PGjrXlGX0NQ/eWDDz7QgwcPtLq6qmw2Gy5jvV7X5uamut3uMy2Cnvf3AwAAAAAAAIDjIIACAIB04Ap127YVj8c1MzMTVjxZX1/X3bt3tb29rV6vJ9/3FYlENDk5qQ8//FBjY2PhFeS2batQKIRtE9bX1+V53oEr2AHgNDlOIGE0SPGy8x59XBAwaTab6nQ6ikajSqfTYZsZ3/fV6XT06NEjPXz4UJ7nqVgshpU8Rve1x13u43odAY3R1xvMLwjgHJ7v855nNHByOLxjmqbS6bTm5+fVbre1vLys5eXlsOLKvXv3tL6+rlQqpVKppGQyGQZ1jponAAAAAAAAABwXARQAACSl02ldunTuEuZSAAAgAElEQVRJ58+f13A4lGVZ4ZXvhmGoUqkon8/r6tWrGg6H4eNs2z4wXSBo53Du3DmdOXNGksIr1kevjn/elfcAcBq8bOjkONMHVadqtZp2dnZkWZZSqVQYlHBdV7u7u1pcXNTGxobGx8c1OzurfD5/oI3Pi57ndYUrgoolrzr/Fx0HjhM+eZ5IJKJ8Pq/p6Wnt7++r0Wjo8ePHisViunfvnmzb1ocffqhKpRIelwicAAAAAAAAADgpAigAAOgPrSXi8fiR9wchk2Qyeex5Bm0jDiN0AgAHje4XgwBfoVDQcDjU8vKybty4oVarFbbrCapKTU9P68MPP9TU1JQcxzlWpamTVi95nfN72cd/1/FjNOBoGIaKxaLOnTun/f19xeNxxWKxsF1cuVwOfwcAAAAAAACA14FvGwEA7z2u+gaANy+oLmUYhhzHUSQSkW3bajab2tzclOu6cl03vH9yclIXLlzQ3Nyc0un0gX35+1Rh6nnHMMMwlEqlFIlE5HmeLMtSJBLR7OyspKfr2zRNWZbFcRAAAAAAAADAa0EABQCAHxgDfQBwkO/7Gg6HMgwjDEX4vq9MJqPLly/r/Pnzcl03DJUYhiHbthWLxRSNRo+sfPKu72uP8/qCEM8o0zTl+74sywrn866vKwAAAAAAAAA/DAIoAAAAwFvE9/33LhAQBE9G/x/8pFIppVKpA9OPVjcZXVejARXoyGBOsH2xjgAAAAAAAAC8bgRQAJxaDJwAAN4FQWjC9/3wZ/T294FhGGFFDum7XzvnAAAAAAAAAADw9iGAAgDAG8QgKoCjjAZR3kevum98m/epx122F013nHm8SnjnbV5vAAAAAAAAAE4PAigAAAAA8I44qiXR4dsBAAAAAAAA4PvwbFNwAAAAAAAAAAAAAAAA4CVQAQUAAAAA3kFUPQEAAAAAAADwQ6ICCgAAAAAAAAAAAAAAAE6EAAoAAAAAAAAAAAAAAABOhAAKAAAAAAAAAAAAAAAAToQACgAAAAAAAAAAAAAAAE6EAAoAAAAAAAAAAAAAAABOhAAKAAAAAAAAAAAAAAAAToQACgAAAAAAAAAAAAAAAE6EAAoAAAAAAAAAAAAAAABOhAAKAAAAAAAAAAAAAAAAToQACgAAAAAAAAAAAAAAAE6EAAoAAAAAAAAAAAAAAABOhAAKAAAAAAAAAAAAAAAAToQACgAAAAAAAAAAAAAAAE6EAAoAAAAAAAAAAAAAAABOhAAKAAAAAAAAAAAAAAAAToQACgAAAAAAAAAAAAAAAE6EAAoAAAAAAAAAAAAAAABOhAAKAAAAAAAAAAAAAAAAToQACgAAOFV835fv+296MQAAAAAAAAAAADCCAAoAAAAAAAAAAAAAAABOxH7TCwAAAPAihmG88P8AAAAAAAAAAAB486iAAgAAAAAAAAAAAAAAgBMhgAIAAAAAAAAAAAAAAIATIYACAAAAAAAAAMBL8n3/TS8CAAAA8FYhgAIAAAAAAAAAAAAAAIATsd/0AgAAjs/3/QNX1xiGEd4OvCuO2sYNw5Bt2zJNM7zfMIwjpwXeZezvv3/sS75fo9twcF5z+PxG4u+Ad0OwbQ+HQ/m+H567vGjbB06T5+3TgXfd4W2d7R/vK87h8a5iHw8AJ0MABQBOkdGT3dHwSfDF9nA4fJOL917jQ/brMfqhzrIs2bYty7LkOI6y2awcx5HneTIM45kA1uhtwGkSbMOj2//otsxA5Q/ru/Yl/A1eXTAIPzoQ73meXNeV67oH1v3hf4HTKDhHd133wHn66Lk75+84zYL9euC7Ppsedf4e/MvxFafF6Db+vHP2YPvnPAanXXDebprmM7cfPgZIfC+Dd0Owjz/8XQ0A4PgIoADAKed5nmq1mm7evKl6vf6mF+e9dFQYAq9uOBxqY2MjDJp4nqdWq6XV1VU1Gg1JOvAFyOiX23zRgdOsXq9rc3NTw+FQpmlqOByq0Wjo9u3b6vV6B66cx+szuj5N0zxWAIW/watpNBra2NhQr9fTcDiU53na2dnR0tKSdnd3TxRAOc50HCPwQwsGZwaDgTY2NsJt0PM81et13bx5Uzs7O294KYFX57quHjx4oFarFR4f2+22Hj16pG+++eaZAcujAigcU3GajO7HHzx4oE6nI+npZ9Jut6vV1VUtLi4qFouF03P+gdMs+H4mGIx3XVf1el1LS0va2Ng4slIz2zxOO9/31Wg0tL6+rn6/T6gQAF6B4fNJDwBODd/3VavV9C//8i/61a9+pfX1dXmep3Q6rVKpJMdx3vQivvOOurojGLA8fD+H2OM56gPcxsaGarVaeFVZMplUtVqV4zjPXCl51NWVrHucBqPbfhC2Wl9f1+bmZlj9J5lMqlwuK5lMhqEUtu/X66jAQ/AzesVT4KiS6zge13W1vb2tRqMh13VlmqbS6bTK5bKi0egz6/LwFfKBo44brzIN8H0L9hee52lra0s7OzvhlcTxeFyTk5OKRqNvejGBVxYETra2ttTpdDQcDmXbtkqlkkql0gsfd9TvwNtudHA9GJzsdruSpEgkomq1qlwuJ8MwqHCFd4Lv+9re3tbu7q4Gg4FM01QqldL4+Hh4/n54W+ecG6ed7/saDAZqNBrhd5OJREKffPKJ/uZv/kaXLl1604sIAG8d49AJABVQAOAUCb6ci0QiikajMk1Tg8FA9XpdtVqNL+9+AKMDj6OlSA8PVgb34+UdNYjYaDS0s7Mj27ZlmqY8zztw/1GDlqx/nAajoYcgYGJZVrhdN5tNNRqNcB/DF9mvz+EA0FH3H7UfYf9yMsF27HmeLMtSvV5Xo9GQ53nPrWh11JWUfLGN0ybYtwctefr9vprNJtsyTr1gGw6qnQRVINbW1iQd/ZmI7R6n1eHqp6PnLoPBQGtra3ry5EkYPuScEe+S4Dym2Wyq2Ww+NywOnHaHW30HLcIjkcgz1d0AAEcjgAIAp4xhGMrlcqpUKmo2m9rf32dA8gcUfMkUfJl0OIByFD6MP99RgZ3RXsLBOg4qoQQ/wQc+0zTDUMrzqhUAp4Vpms/00ubLjR9GsJ85KlxC8OH1GwwG8n3/QAUx6Q/bu2VZsizrwPH1OH+H5wWGgDdpdKAy2B4tywr/ZZ+C02y0IuHhc/fRaUaZpvnMfj7APhunweh2HwRogwHKYL8+em4JnGZBJYigRfLh9qWSwkF5PrviXRHsv4PvHx3HCau7UX0cAI6HAAoAnCKGYSgajWpqakqXL19WLBZTvV4PPwjyBfYPY29vL7xa2zAMRSIRpdNpxWKxZ1o5HP4dzzocPAmuDHZdV57nHbhybPQqBNu25TiOIpFI+IUHARScRsEgjWmacl1XvV4vLG8cbON8mff9CvY9/X5f7XZbvV5Pw+FQkUhEiUQi3L+PHmuP2t/jxYKrgfv9fhhCCfbz0h+CJ5FIRLZtHwgYsp5xmvm+H57bDAaD8ApK27bZtnGqBdXber2e+v2+XNd94aD76LlNJBIJw1gBzuHxthsNlwT7ddd1w+8FDn8u5RwGp53v++E+vt/vHwjUBoFCx3HCFrLAu8T3fVmWpUwmo4mJCV28eFHpdPpNLxYAnAoEUADgFDEMQ47jaGpqStFoVHNzc2q325S9/IEtLS3p888/V7PZlGmaSiQS+vGPf6zp6WnZ9tNDK3+LVxMMAo9eTTZ6BeXoQH1QAnP0SrMAX17jNDl8xfBgMDjwRXZwhbDEvuX7MHoF68bGhm7duqVHjx6p1Wopl8vp008/1dzc3HOrcfA3Ob7RwEkQLhy9cji4cvI4FVCA0yQIoATnNcE2TgUUnHaHz12+q+VIUL1wdD8/inN4nAZBFYjgfCb4jBp8Pj0cQAFOs9EQreu64W2SDlT+Cc7hgXdJ8D1NIpFQNptVqVRSKpV604sFAKcCARQAOGUsy1KhUFAul9O5c+f4ku4NGA6HunbtmjqdjkzTVLFY1JUrV/TRRx9RivE1+67tmy/08C4a3e7Zxr9/wfp2XVdLS0va3d3Vw4cP1Wq1VKlUdPnyZX322WeEgF4z9u8A8G457udS9u8AcPq8aB/Pfh3vg+DiCKrTAsDxEEABgFNm9AoDvBlBlZPD7WCi0SgBFAA4ZYJ9eVA+Oji+Blc7Bft3AigAAAAAAAAA8GLE9QAAAAAAAAAAAAAAAHAiBFAAAAAAAAAAAAAAAABwIgRQAAAAAAAAAAAAAAAAcCIEUAAAAAAAAAAAAAAAAHAiBFAAAAAAAAAAAAAAAABwIgRQAAAAAAAAAAAAAAAAcCIEUAAAAAAAAAAAAAAAAHAiBFAAAAAAAAAAAAAAAABwIgRQAAAAAAAAAAAAAAAAcCIEUAAAAAAAAAAAAAAAAHAiBFAAAAAAAAAAAAAAAABwIgRQAAAAAOAIvu+/6UUAAAAAAAAAgFPDftMLAAAAcBodNTBtGMYbWBIA3yff9wmiAAAAAAAAAMAxUAEFAAAAwHvrRcGx0eAJIRQAAAAAAAAAeDECKAAAAABwCIETAAAAAAAAAHg5tOABAAB4SYdbcgQVFA4PWNOSB3h7HPWefZ3zfN3zBgAAAAAAAIDThgooAAAA3xMqKABvl+O8Jw3DOBAiCR5z+LbD7Xl4vwMAAAAAAAB431EBBQAA4ISOGqAGcHr4vq/hcCjp6fs4+H/w3g7+f1S1o2D64HcAAAAAAAAAeF8RQAEAAHhJvu9rbW1Ny8vL+uCDD5TL5d70IgF4gdGASBAm6fV6ajQaarfbcl1X/X5fKysrqtfr6vV6Gg6H6na7Wltb0507d8LKKME8fN+XZVmKx+NKp9NKJBLPVE8BAAAAAAAAgPcJARQAAICX4Pu+XNfVF198oX/6p3/S3/3d3+knP/kJIRTgFAiCI67rand3Vzdu3NDDhw/VarXU6/VUr9f15MkTtdttGYahZrOpa9euaW1t7UBVlCCEkkqlND09rQ8++EDT09OybT5eAQAAAAAAAHh/8Q0pAADAS/I8TxsbG/r1r3+tTCajTqejv/7rv35mOiohAG+noAJKq9XS8vKyHj58qHa7Lc/z1O/35XmeLMtSp9PRnTt3tLq6Kt/35XmefN+XaZryfV/ValXJZFKu6/J+BwAAAAAAAPDeI4ACAADwijqdjv71X/9VhmGoWq3q/PnzKhQK4f3BQDWANysIhxiGoeFwKMMwFI/HNTY2plQqpWazqVqtFk5j27ZM05TruqrX62o2mzIMQ57nHZhfsVhULpdTNpuVbduEUAAAAAAAAAC81wigAAAAvCTDMMKB5l6vp//8z//U3t6e/vZv/1Y//elPlc/nw4HqYFCagWng7WAYhiKRiAqFgkzT1Orqqq5fv656vS7XdSXpQJud4CcIoAQBllgspkKhoMnJSeVyOVmWxfscAAAAAAAAwHuNAAoAAMBLCgIlwQD12tqadnd3lU6n1e129Vd/9VfhtK7ryrIsWZb1BpcYQMAwjPA9mcvlVC6XVSgUtL29rU6n852P931ftm2rUChoYmJCpVJJ8Xg83B8QQgEAAAAAAADwviKAAgAA8JJ833/mtn6/r1/84hcaDocaGxvT+fPnlc/nNRwOacMDvKUMw1AqlVK5XNbq6qp6vZ5M09RwONRwOJT0h/f7aLDEcRxNTExoZmZGqVSK9zgAAAAAAAAASOKbUgAAgFc0Oujs+75arZb+67/+S3//93+vL7/8Uq1WS5ZlMTgNvKVM01Qmk1GlUlE8HpfneXJdN2y7M2r0/47jqFqtanx8PKx+QuUTAAAAAAAAAO87KqAAAAC8JkE7nl/+8pdKp9MaDAb6i7/4CyUSiTe9aACOYBiGkslk2EYnCJkcVeUoYNu2ksmkyuWySqWSHMchfAIAAAAAAAAAIoACAADw0kYHp4OBZ8MwwpYdnU5H//Zv/6ZOp6NMJqNLly6pUqkwSA28ZYIWPKVSSalUSpZlHVn9JOD7viKRiNLptAqFQvgYAAAAAAAAAAAteAAAAF7ai9pzBPfVajX95je/0T/8wz/o888/V7PZPNDa4/APgB9eUAGlXC6rUCiE7XSko9/n0tP2O5lMRul0WvF4nAAKAAAAAAAAAPwfKqAAAAAc02hgxPO8sOLJ86ZdX1/XL3/5S+VyOXmepz/90z9VMpmUaZrhD4A3xzRNOY6jfD6v2dlZLS8v6/Hjx+p0OhoOh/I8T4ZhHAiZpFIpTUxMqFgs0n4HAAAAAAAAAEYQQAEAADihoEqCYRgyDONA1YTBYKBf/OIXajabikajz7TjYfAaeLNM01QqldKFCxe0vr6uer2udrut4XCo4XAo0zTD97RpmioWi5qfn1elUpFt27yHAQAAAAAAAOD/cNktAADAMQUBE8uyZNu2LMuSZVkHKpkE04y28ajVavrtb3+rf/zHf9S1a9fU7/dpuwO8JXzfVywW0+zsrGZnZ5VMJsP3cPA+l56+t6PRqMrlsmZnZ1UoFML7aKcFAAAAAAAAAFRAAQAAeCmGYcg0zbDSyWjVk6OqmgSD0ltbW/rVr36lYrGoaDSqn//858pkMm/qZQAYEYlEVCgUNDY2plwupydPnmg4HMowDA2HQ/m+L8uylMlkVC6XVSgUFI1GJR0MnwT7BgAAAAAAAAB4HxFAAQAAeAm+74etOTzPk2VZz1Q9GP3/aEDFdV398pe/1P7+vuLxuK5cuaJSqfRDvwQAI4JQWSQSUSaTUalUUjKZVK/XC4MlQfWTUqmkUqkkx3EkKbyP6icAAAAAAAAAQAseAACAExkdoB79GR2QjkQiSqVSSiaT6nQ6un79uv75n/9Z169ff8NLD0CSTNOUZVlKpVIqFotyHEeDwSCsgmKaphzH0fj4uCYmJhSPxw9UOxmtjAQAAAAAAAAA7ysqoAAAABxTECoJKqAEQRPp6QC2aZrh/YFIJKLPPvtMCwsLkv5QESUWi8k0yQIDbwvDMJROpzU2NqZkMnngdklyHEeVSkVjY2OKxWIHAme8lwEAAAAAAACAAAoAAMBLC4IoQfjEMAxZlqWzZ8/K8zzdu3cvvM+2bf34xz/WX/7lX2psbEyO44QD2rlc7o29BgB/ELxfU6mUxsfHVSwWFY/H5XmehsOhTNP8/+zdWY8bV3o+8Ie1sbgUi2uTbPaiXtTarGVsT2YSDJKL5CIDTAJMBgmQT5DrIF8nd7lJvkKSiyDBxDMTwx5bS0tqSb2vbO47a/tf6H+Oi61uSbZsqaf7+QENS2Sx6tSpQ3k5j98X8Xgc+XwemUwGuq5/4BETERERERERERERnT/8X/WIiIiI3pKodiCI1juKoiAWi+FXv/oVfvnLXyIWi8njHMfBZ599ht/85jdIJpOoVCqYn5/H3NwcbNv+ULfyXpwM6hCdF+G1GV6f8XgcxWIR5XIZmUwGhmFMhE/y+Twsy4KmaRMVUIiIiIiIiIiIiIiIFVCIiIiI3tppYQpFUbC0tISf/vSn+PnPf46dnR2oqgrgZWDFdV389re/RSKRwJ//+Z/LzevwOcMu+mZ2uGoM0YcW/v5FIhEYhoF0Oo3Z2VmUy2U4jgPXdWHbNmZnZ1EoFGCaJlRVZfiEzhX+2UpEREREREREROcBK6AQERERfUu+78P3fWiahoWFBfziF7/AP/3TP2FpaQmWZWFlZQW2bU9sbrdaLTx69AhHR0fwff/SVQa5bPdLf7hM08Tc3Bzm5uZkNaNMJoOlpSUUCoWJ6idERERERERERERE9A0GUIiIiIi+JdF2J5VK4e///u/xt3/7t7h27Rps28b169fxj//4j7h37x6Al8EL3/exvr6Of/3Xf8XTp09fe96LRty/53nwPI8hFDr3otEoZmdnMTMzI1vwZDIZzM3NIZ1Oy+onROcVA39ERERERERERPShMIBCRERE9JZE1QNN07C4uIhf/epX+OUvf4mPP/4Yuq5D13XMzc3hF7/4BRYXF+UmoOd5ODw8xP/8z/9gf38fiqLIH3HOi7yhHd4MDYLgQt/rRSae40X4eR1N05BOp5HNZpFMJmHbNvL5PLLZrKyIQnQeicDf2651IiIiIiIiIiKi75v2oQdARERE9IdG13X8+Mc/xsLCAsrlMlRVBfBNBRNVVVEsFjEzM4Pd3V25Cej7Pmq1Gg4ODpDP52EYxge7h/dFVIsJ/57+8Fz0jezwulQUBbquw7IsFItFmKaJqakp+X193VxwfdOHFA6dhNci1yUREREREREREb0vDKAQERERfQsiUJFOp2HbNoBvqnp4ngcAMAwDf/EXf4F2u41//ud/huM4AIDxeIz/+I//QDKZxN/93d8hn89/sPv4IZy1MR+u8CI2SLkhSudNJBKRa1jTNNi2jUqlglwuh6mpKaiqCt/337h2ubbpQ2HohIiIiIiIiIiIPjQGUIiIiIi+hXBrA9/3AUBW+BC/V1UVH3/8MarVKv7lX/4FrusCADzPw2effYZUKoW/+qu/+jA38J75vo9er4dWq4V2u43hcCiDOtwg/cMQbp900YWrR+zs7KDdbsN1Xezt7SESicCyLFnx6CSxnrmu6X0zDAO2bSOTySCRSMi/JzHsR0RERERERERE7xsDKERERETf0ckNZ03T4Ps+PM+DruvIZrO4evUqnj17hm63C8MwkMvlkMlkLsWmYBAEcBwHe3t7+Oqrr/Ds2TNUq1WMRqNXjr0M8/GHKBw+uagBFBEcExVQgiCAoigYDofodDoIggDRaBSxWAy6rp+5VsMVVIi+T2etObHecrkclpeX8cknn2BxcRGxWAyKovDPVSIiIiIiIiIieu8YQCEiIiJ6g9e1lgn/VWz4RSIRqKqKpaUl/MM//AP+7d/+Db/+9a+RSqXw85//HH/913+NVCr13sb/IYiNfBFA+b//+z+sr6+j2WzCdd2JSjKKosj/Y5/Ol5MVfy5iwOJkAAV4+V0+Gbp5mwonF3F+6MM72VonHAyLRCKwbRvVahX5fB6lUgmmacq/FzGEQkRERERERERE7xMDKERERETfUiQSmQhMhDf6RKACAGZnZ/GrX/0K4/EYtm0jlUrhb/7mb/Cnf/qn0HX9Qw3/vfJ9H81mE1tbW2i323AcB6qqQtd1OU/cID3fwiEUBiyIPoxwAEoEwhzHgeu66PV62N7eRq1WkxWmGD4hIiIiIiIiIqIPgQEUIiIiojcIb+KJDfjXteEQNE1DKpXCX/7lX+KTTz5BNBrF9PQ0DMO48BuDp22Wigoauq5jbm5OVoHxPE9WoaDzJ7yRfdHXLdF5Fm4TNRqN0Gq1cHx8jOFwyD9HiYiIiIiIiIjoXGAAhYiIiOhbCLc/CL92FkVRMDMzg+npaWiaduk38HVdRy6Xw5/8yZ9gfn4eAC5sa5eL4mT45LKvYaIPSfx52Wg08OLFC9y/fx97e3sfelhEREREREREREQAGEAhIiIi+ta+7QZ8uGXPZW6LIOYhlUrho48+wu3btz/0kIiI/qCIalL7+/tQFAXb29s4PDz80MMiIiIiIiIiIiICwAAKERER0Q+O4ZNviHY8hmEgFovJ1+j8u+xrl+g8CIIArusiGo3CMAyoqsrvJhERERERERERnRsMoBARERH9wEQAhV5unjJwQkT03Ygg48lgI/9cJSIiIiIiIiKi84C7IUREREQ/IFY9ISKi75OqqlAUhX9vISIiIiIiIiKic4cVUIiIiIjeA24UEhHR9yEcbGRVKSIiIiIiIiIiOk9YAYWIiIiIiIiIiIiIiIiIiIiI3gkDKERERERERERERERERERERET0ThhAISIiIiIiIiIiIiIiIiIiIqJ3wgAKEREREREREREREREREREREb0T7UMPgIiIiIguhkgkgiAIfpDzEhERERERERERERHR+cYKKERERERERERERERERERERET0ThhAISIiIiIiIiIiIiIiIiIiIqJ3wgAKEREREREREREREREREREREb0TBlCIiIiIiIiIiIiIiIiIiIiI6J0wgEJERERERERERERERERERERE74QBFCIiIiIiIiIiIiIiIiIiIiJ6JwygEBEREREREREREREREREREdE7YQCFiIiIiIiIiIiIiIiIiIiIiN4JAyhERERERERERERERERERERE9E4YQCEiIiIiIiIiIiIiIiIiIiKid8IAChERERERERERERERERERERG9EwZQiIiIiIiIiIiIiIiIiIiIiOidMIBCRERERERERERERERERERERO+EARQiIiIiIiIiIiIiIiIiIiIieicMoBARERERERERERERERERERHRO2EAhYiIiIiIiIiIiIiIiIiIiIjeifahB0BERERERHTeBEEgfx2JRCZei0Qip74f/mz4WPG+53kYjUao1+vo9XqwbRu2bcMwDKiq+oPezx+C4XCIdruNXq8HTdOQyWQQi8WgKMorc/xDCj9b4X1en4iIiIiIiIiI6A8VAyhERERERPTeBEEAz/Pgui48z4OqqtB1/b2HDN7kZAghCAL4vg/XdeG6LhRFga7rE8GR8PjFffq+D8/zoCgKgiBAo9HA559/jvX1ddy+fRt37txBOp2W5wkHVy6TIAjQbrfx6NEjbG1tIR6P49NPP0WpVIJhGO91PsQzG41G8jlrmjYRJiIiIiIiIiIiIqJXMYBCRERERETvjed5aLfbODg4QLPZRCaTwdzcHGKx2Lna3D9Z5SQIAoxGI+zv72Nvbw+WZWFmZga2bUPX9Vc+HwQBOp0Ojo6OUKvVkEqlkM/n0e/3cXBwgPX1dZRKJYzH41MrblxGjuOgXq9je3sbqVQKg8Hgvc2N7/sAXj53z/NQq9Xw6NEjxONxzM/PI5vNIhqNvpexEBERERERERER/aFiAIWIiIiIiN4bz/NQr9fx9OlT7O7uYnFxEcViEaZpfuihTTgZhvF9H4PBABsbG/j973+PSqUCy7KQSCRgGMbEsSKscnBwgGfPnqHdbmN2dhapVAq+7yMSiZy7ii80aTQaYW9vD57nYTgc4tq1a8jlck94bz0AACAASURBVO+9GgsREREREREREdEfEuVDD4CIiIiIiC4Pz/PQ6/VQr9fR6XQwGo3g+/65qwIixhMEgWy/MxqN0Gq1cHR0hFarBcdxTv2s67pot9vY2dlBrVZDoVDAzMwM4vE4FOXlv4Kd53Yu4p4vk/DzUFUVqVQKKysriEQiePjwITY3N9HpdOB53gceKRERERERERER0fnFAAoREREREb0XItjgui5c15VtT86zcDAhCAI4joPRaDQRRAiHVHzfR6/Xw/7+Pmq1GnRdx8zMDEqlEkzTlOf7UOGT7yNcchEDKuHnoqoqLMvC1atXMT09Dd/35fNkAIWIiIiIiIiIiOhsbMFDRERERJdOOAjR6XTQbrcxHA7h+z40TUMikUAqlUIikZCtUoIggOd56Pf76HQ66PV6cF0XwMvNa8uykMlkEI1GoWnaK5v0o9EInU4HzWYTrusiCAKoqopkMoloNArHcRAEAXRdRyqVgmEY8DwPnU4H/X4fQRAgHo/L6hrieMMwkMlkYFkWAMj7EZVFotEoUqkULMuaaHMj7ikIAozHY7RaLXQ6HYzHYzk20zSRTqeRSCSgqioikYhsSdJqteC6LmKxGABgOBxiMBjAdV0oioJYLIZ0Oo1kMglFUeD7Pvr9Pg4ODrC7u4vj42M0m03s7e1hbW0N+Xwe6XQaqVQKuq7LSiGC7/twXRfdbhfdbhe6rsM0TfnaYDCQ8x2LxZDJZJBIJKBpmrzXwWCAdrsN13URj8fl3Aue52EwGKDZbCIIAqRSKcRiMTiOg+PjY+zs7ODg4ACdTgfVahUvXrzAeDxGoVCQzywIArRaLWxvb2M0GqFSqSCbzSIWi2E4HL6yBsNrZDgcot1uo91uIwgCWJaFVCqFaDSKSCQCx3HkGhqNRgiCAJFIBPF4XD5jwzDkcf1+H5FIRN5HuO2P7/twHAftdhvdbleeQ1xLfD96vR4GgwF830cikZhYC+Fx93o99Pt9mKYJy7Kg6zocx0G/30er1ZLfLwAwTRO2bSOZTL7Svug0rutiOByi2+3C8zzZ+kg8W3GMGCsAud7FPYtwULfbRbvdRq/Xk+2QVFWFbduwbRuGYUBRFGiahlQqhZmZGbRaLTQaDRweHqJUKkHX9Q9eweaiBYCIiIiIiIiIiOhiYACFiIiIiL4X531DVIxPbBp7nod2u43V1VWsrq5if38f4/EYlmVhcXERt2/fxuLiIjRNg6qqMsCwtbU10ZIDAHRdx9LSEn784x+jVCohkUi8EvA4Pj7G6uoqvvrqK7TbbUQiEcRiMSwuLqJQKKBWq8FxHBQKBdy5cweFQgH9fh9Pnz7F8+fP4bourly5gsFggMePH6PZbGI4HMK2bXz66ae4fv06FEXBs2fPsLq6isPDQziOg2w2ixs3buDWrVuoVCpyDsT4HMdBtVrF119/jadPn6JWqwEAotEoyuUy7t27h6WlJViWhUgkgvF4jP39fXz55ZdotVqYnZ2FoiioVqvY2tqS4ZDp6Wncu3cP165dg2macBwHOzs7+Pzzz/Hw4UPs7e1hMBjg6OgIu7u7mJmZwUcffYSbN2/Ctu1XAigi/LO2tobV1VWkUimUy2UMh0M8e/YMm5ubMhA0MzODH//4x1heXoZlWVBVFa7r4vDwEF999RW63S4WFhZw/fp1GUARc3F4eIjf/e538H0f9+7dw8zMDJrNJr766is8ePAAT548weHhIbrdLur1OqampnD37l3cvn0b+Xwevu+jXq/j4OAAsVgMpVIJlmW9cj/imiIY4bouqtUqHjx4gAcPHkBVVdy8eRO3bt3C1NQUAKBer+Px48f48ssvUa1WEQQBFEVBpVLBrVu3cPPmTWSzWfR6Pbx48QIvXrwAAHz00UeYn59HNBqVgQyx/u/fv48nT57INZ/P56Hrumw5tLGxgY2NDYxGIywvL2NpaUmGisQ9NJtNvHjxAuvr6yiXy7h16xZs20ar1cL6+jq+/vpr7O3twXVdeJ6HcrmMjz76CNevX0c2m50ICZ1mMBhgd3cXjx8/RrfbxZ07d3DlyhUkk0kZhhmPx1hfX8fu7i5838fNmzcxMzMjAy4iXPT06VOsrq5ia2sLo9EIiqLANE3cvXsXH330EYrFIgzDQCQSgaIoSKfTKBQK2NrawuHhIfr9PuLxODTtw/2r9Mn2UMJ5belERERERERERESXBwMoRERERHSpiEomjUYDz58/x87ODkajEXK5HICXwYtoNArXdTEYDGQVlMFggO3tbTx69AgvXryAYRgoFAoAgH6/j93dXQDA3bt3MT8/j3g8PtGOZXV1Fevr63BdF5lMRlZnGA6HWFtbw4sXL6CqKm7cuIFr164hCAKMRiMcHh7i0aNHaLVa6Pf7stpJJBLB4eEhtre34boutra2kEwmEQQBTNNEPp/HYDCQ5xf3Zds2otEofN/HcDjEwcEBnj59is3NTTiOg1wuB1VVMR6P0Wg08PDhQ7iui5WVFSSTSVlFQgQOjo6OMDs7C9M0kcvlEIvF0O12sbu7C8MwYBiGDD+Iiiq2bcsqI7Zto1AoIJvNyuoa4jmFN9RFQOT4+BiPHj2C53lYXFzE1NQUotEoisUiRqMR6vU69vf3ZYhjaWkJiUQCQRCg1+the3sbzWYTiUQCCwsLE2tD3NvGxoY8v+u60HVdVrixLEt+Pp/Py+onuq7LtdButzEej5HP55HL5SYqz5wkKpu0220ZLjk6OsLMzAxM04RhGHBdF61WCw8fPsTTp08xGAxg27YMinS7XTx9+hSKouDq1atQVRWO42Bvbw+tVgvZbBZTU1OysowIRVWrVWxvb+Pg4ADFYhG+708EtcLH7e3tQdd1FItFWU1FhGfq9Tq2trawv78Py7LgeR56vR7q9To6nQ5M00ShUJBVShqNBr744gtEIhHcuHEDmUzmtYEOEZbZ2tqSoadKpTIRvvA8D81mUwZQZmZm5LPzfV+GYZ48eYJ6vY5kMolUKiUr84iwjqqqMoSjKAqSySQymQx830e73Uar1YJt269UgfnQwi2EztO4iIiIiIiIiIjocmEAhYiIiIguhXDrkeFwiP39fTx69AgAsLKygpWVFcTjcXieB8dxoKoqPM+D7/uygsnDhw+xs7ODdDqNjz/+GNPT0wCA/f19fP3113jy5AkSiYRs7SI25x89eoTV1VVomoY//uM/xuzsLCzLwnA4xN7eHr7++mt0Oh1ZoQL4prqB53myfc9wOESpVMKVK1fg+z42Njbw+eefy6oOCwsL+MlPfoJPPvkE0WgUg8EAa2trePz4MdbX12WLFRFqqNfrWF1dxdraGizLwo0bN7CwsABN09BoNGT1Fc/zkMlkZOsRMb5ut4tms4lbt27h9u3bME0TQRBgc3MTX375Jfb29hCNRpFOp1EulzE9PY1YLIZEIgHDMNBsNrGysoI/+qM/km1qRDDndcbjMWq1GmzbxtWrV3Hv3j0kk0mMRiNsbW3hyZMnOD4+xrNnz2BZFqanpyfaprxpkz4cwlBVFblcTlYHEeGOpaUl/OxnP8PMzAxs24ZpmjJw1Ov1ZNgmHo/LUM1pa1IEJ54/f46HDx+i1+thZWUFd+/exdLSElKpFNrtNtbX1/Hw4UM4joNPPvkECwsLME0Tw+EQjx8/xsbGBh49egRd17GwsIBCoQDbtnF0dIR6vY52u41EIiEDGSJ8NBgMUCqVMD09LSuKAICiKDAMA9lsFrZt49mzZ6jX6+h2uzIwIr4bjUYDzWYTqVQKhUJBBrgikQgKhQIWFhZkIKvZbOL+/fv4+uuv8fz5c+Tzedk66G2CE2+qtCS+NyIcIyqfbG9v44svvsB4PMaVK1dw48YNJJNJ9Pt9GVh68uSJDFHZtg3gZSDNsqyJ9lej0WiidRMRERERERERERG9xAAKEREREV0qopXO0dERtra2UCqVYNs28vk8EomEbIciNtABoNPpyA3+RCKB27dvY2FhAblcDkEQQNd11Go1HB0dodFooFaroVAowHEceR1N07C0tISrV6+iUCjAMAw4jgPDMNDtdmUlFlGFItxeQ9M0pNNpzM/P48qVKyiVSgiCAKqqotlsYmNjA51OB/l8HrOzs5iZmYGqqhiNRuj1etja2pLVISqVigy/7O7u4tmzZ2g2m7h+/TpWVlZQKBSgKIo8ZmdnB81mE9VqFZlMBvF4HMDL8EQymUSlUsHs7KwMeYg5Pjw8lPd+8+ZNTE1NwTRNWJaFZDIJ0zQRjUaRTCaRy+WQTqffuq2JYRjI5/O4cuUKFhcXUalUEI1G4XmebA9z//591Ot17O7uyqorwlkBlHB4AXgZwhBBjGQyCdu2ZbgoHo8jnU7LwAIAjEYj9Pt99Pt9mKaJZDI5Edo57XqiYsrvfvc71Go1GahZXFyUFWeq1SqePHmCwWCAubk5LC0tydZHw+EQ/X4frVZLVjOZm5uTrWN2d3dRr9dxfHyMXC4n56nf7+Pw8BCDwQAzMzPIZrMTASjgZTUQ27aRyWQAQFYAKZfLAF5WHRkOh6jX62i1WvI7YZomIpEIotGorMgjAlmigsz29jYGgwHq9Trm5ube6rm/LRE+Ed/lo6MjPH/+HBsbG1haWpJrxjRNjMdjJJNJ7O7uYmNjA4eHh5iamoJlWbL9lgihjEYjdLtdjMfj73W8REREREREREREF8Xr/9dCIiIiIqILJlxZZDgc4vj4GEdHR+j1evA8T244x2IxuVl/fHyM7e1t9Pt9ZLNZLCwsyDY4iqIgkUggm80ik8lgNBrJKgmdTgeHh4eoVquwbRsLCwuwbRuGYSAIAiiKAtu2US6XUSgUkEgkXhmvoigwTRPZbBbT09PI5XLQdR2apsGyLExNTSGXy6FcLmNpaUkGPTRNk8EJEWTo9XpwXVe2bTk4OJCVMcrlMrLZLDRNg6IoiMfjyGQysG0bQRCg2WxiNBpNjCuVSqFSqSCfz8trqqqKRCIhx9nv9zEajeC67kT1inAlkpOBmzdVKDEMA+VyGfPz8zI4AXwTmCiVSshkMnAcR477TZUzzhIOM5x8LXwv4vXBYIDxeCzXkKIop96LCIFsbW1hdXUVzWYTU1NTuH37NpaWlmDbNiKRCAaDAQ4PD7G1tQVd1zE7O4tsNgvDMOQzFgGb4XAo79c0TZRKJRQKBXQ6HVSrVQyHQ9lWp9PpoNlsQlVVlEqlVwJAYm2LdSDWdq1Ww2AwgO/7cBwHrVYLvV4PhmGgWCwik8nAMAxZRSSTycjwyWAwwM7Ojmyl02g00Gq1JoJXrxNeI6e9FybWkOu6qFarqFarACDbJomwja7rsG1briPRNsjzPHieBwDQdR3JZBKRSEQGUL7reiIiIiIiIiIiIrrIWAGFiIiIiC6VSCQCwzCQyWRQKBRweHiIhw8fIplMolQqIZVKyZYqog1Pu91Go9GQG9pHR0fodDpyw15szPf7fUQiEfT7fQyHQ/R6PbRaLQwGA1kxQ1XVV1q86LoO0zRPrZYhNsk1TZs4RnxWVGcwDENWnzh57mg0OhEuEC1Yms2mDEvU63VsbW3JFixBEKBaraLX62EwGKDX68FxnImNd13XEY/H5ZhEQEBVVTl/w+FQhl7Cz0D8NRw2CYJg4tfh48Pzoqoq4vH4RHsb8VkxX4ZhwPd9GYDxPO+15wyHYE4GYk5+5rQAiqicMh6P4bqubDN0VpBGVKARIYxisYg7d+5gYWFBhh1EaKPVaqFeryMSiaDT6WBnZ0f+3vM81Go1NBoNdDoddLtdjEYjRCIR5PN5lMtlVKtVuT5d18VwOESr1YLrurBtW1b8OC0sIwIapVIJh4eHqNfr6PV6sG0bo9EI+/v7GI/HKBQKKBaLSCaTACDXjFg34rX19XVsbGzg6OgItm1jMBi8Ek46Tfj9Nx0r1r6iKHBdF91uF71eD4qiyJY73W4XiqLA8zy4rotGoyHDYyKoJSr6qKoqn6VYS0RERERERERERPQqBlCIiIiI6FJRFAWxWAyzs7O4c+cOPvvsMzx+/Bg7OztIJpNYWFjAz372M8zNzckqJ6JaxcHBAQ4ODrC2tgZVVeVmved5MqgxNTWF2dlZOI4jQw+qqiKZTCKRSEBRFBmWOPmjKMrEeU++LjbVw68rigJN0xAEAQzDkIEM8fmT5wReBlA8z8NoNEK1WsXa2ho2NzeRSCSgqqoMV4xGI7RaLcTjcRSLxYnKD+Fzh9u2AJBhDNGyZDAYnLpp/6aqJ6cFDcR1NU2DpmmnVlIR5xGtaYbDITzPk8GR1wUYRHWc8PXENcU1wq+fNuZwGOasAEqn08FXX32FZDKJYrGIhYUFLC8vw7ZtGXwIV1bp9/s4OjpCtVqVlVXC1Xza7TZqtRqmpqZki5hUKoVcLgff99FoNNBut1EoFNDv99FoNKDrumx/ZBjGK+ONRCLQNA3JZBJTU1Oo1WrodrsYDocyxLS7u4vxeIyZmRlZ3Wc8HmN/fx8PHjzAgwcP0Gq1EIvFUCgUMD8/j6WlJbiu+62DHOH1clZASFEU+L4/8Wxc10Wn08Hm5iYODg7wu9/9Tq4dMX+tVgsAMDs7O7FexTle9yyJiIiIiIiIiIjoJQZQiIiIiOhSiUQi0HUd2WwWN27cgOM4SCaTOD4+xuHhIRqNBhRFQa/Xw9LSkgxvaJomK27Yti0rmYhNcFE1ZWpqCjMzM4hGo+j3+wAgQw/h6h6iBU94XGIz/H219xDtfWzbhm3bEwEZMV7RnmV+fh6JROKVkMdZgiCA4zgT7XdOBm5EUCVcTeR1bVZOC3y8qV3PyWNOhhjC1w4fL947WRHltMDLdyHa2ySTSaiqKlviiABKOGgkKt0oioJ0Og3TNCfuWVEUFAoFLC8v49q1a0ilUlBVFbFYDNlsFpZlwXEc1Go1FItFWVElkUigUCjANE25FsNzI8RiMUxPT2N3dxfD4RD9fh+9Xg+dTge1Wg2qqiKdTiMWi8HzPDSbTTx+/Bhra2tot9syxJLNZjE/P4/RaIRGoyGruLztPL6pRdNZz1OEwMR8W5Ylg1qi0kwmk0EymcTMzAympqZkK6qzgkZERERERERERET0KgZQiIiIiOjCO21zW9d1FAoF/OQnP8HNmzdRq9Vw//59PHr0CKurq4hEIjBNE8ViUbYhmZ+fx5UrV3D37l0ZAjjZTscwDNl+ptvtAgAcx8FgMMBoNJIhBvE53/fhui7G4zHG4/H3GkA56zyigkgsFkO5XEY2m8W9e/dQLBZfqYAh/hqNRmXA4G0qibzOaWGQ1x0XvhcR0nEcZ6K1TzjMIqprxGIxGYwQ1WJExZaT1xafF/cXPt/JSi0nK76ExxuuWvK6OUqlUlheXkYmk8HR0RHW1tbgeR5UVcXc3Bzi8bgMKem6jkwmg1KphE8++QRTU1MwDOOVawdBANM0EY/HZcsl27YxPT2Ng4MDHB4eIp/Py3Y9pVIJmUxGVlw5SYzdNE2USiUUCgXs7e2h1WqhWq2i2WxiNBohl8tNVD+p1Wp4/PgxhsMhPvnkEywvL8v2UIZhYH19XT6jkwGks4gKQKetT/HcRNWhk9VwxPc3Fovho48+wuLiIqLR6KmtnQzDQDwenwj5hIMtDKIQERERERERERGdjQEUIiIiIrp0xMZ6NBqFYRhIp9MoFApIp9PI5XK4f/8+BoOBbGli2zay2SxqtRo0TUM2m0UqlZrYuD/ZNmc8Hk+EUYbDIXq93kQVDdHGpNVqoVaryYopPzQRrslkMqhWqwCATCaDcrk80ZpEzJUIxUQiEQwGAwRBIAMEZ7XJeZ2zwhlntbMRvxafcxwH/X4f/X5fjkGM03Vd9Pt9tNtt6LqOfD6PeDwun0UikZD3IM4XbtUyGAzQ6/WgKIoMuITHKYJGJ1saifdE9ZLRaCQDR6eJRqOyakk+n8cXX3yBJ0+ewDAMRKNRzMzMyONSqRRSqZQcf7FYRCKROHN+w+ELUb2k0Whgf38fyWQSw+EQo9EIyWQStm3LsIr47Mlnoes6LMtCoVBAo9FAtVqVYY9YLCYDKLquo9vtot1uY39/H7FYTLakSqfTUBQFw+FQPj/Xdc+8hzBVVWGapgyNiOcWDh+5rivPreu6nANRsciyLBwcHMAwDBQKBaRSqTPb6oRf8zwPnudhOBzKgE94voiIiIiIiIiIiOgb/C9nRERERHRpiNCB4zgYj8fwfR+macI0TblR3+/3sb29LatcaJoG27YxNTWF9fV1HBwcYG1tDcvLy8hms1AUBZ7nyZYksVgMiURCtuzJ5XJIp9OoVqtYW1uDbdsoFArQNA3j8RjVahUbGxs4Ojr6Xlt9vKmySCwWQ6FQwNbWFmq1GjY2NhCPx5HP56FpGoIgwHA4RLPZRBAEsCwL0Wj0tdd4m7GLdkYivOO6rmzRA7ysFtNut1GtVtHv95HNZlEoFGTLFAAYj8fY29vD5uYmZmZmEI/Hoes6HMfB8fExtre30Wq1kM1mUS6XJ55HNpvF8fExjo6OUKvVkM1mEY1GEQQBms0mdnZ2UK/XYdu2DHGEq6foui4DDo7jTFTvEMEe0zQxHA4xGAxeG9LRNA35fB6ZTAa9Xg+rq6t4/PixvJ9cLicDHvl8HvV6HU+fPkUikcD09LQMu4zHYxnIMU0TqVRKhiQMw0CpVML+/j6Oj4+xvr4uQy25XA7xeFyu4WaziePjY6iqikwmI0MlQRDAMAwZvNre3sbR0REsy5KVWUQrITFHokLLaDSSczAajXBwcIDNzU0cHBzINlZvWjfiO5hKpXB4eIijoyPU63XZEmswGKBarcpnVygU5Dk1TUOhUEA2m8X6+jq2t7cxNTWFaDQK0zTlOm40GhgMBkgmk3L+RaUcx3HQ6/Xg+z6SySQMw2AlFCIiIiIiIiIiolMwgEJEREREl4rYCG+1Wuh2u3IjWgQuqtUqPM+DbdvIZDIwDAO6rqNYLKJcLmN3dxdffvklgiBAuVyGrutwXRfNZhOtVguFQgHFYhG2bSMej6NSqWBubg7Pnj3DgwcPYFkWut0u4vE4hsMhdnZ2cHR0hPF4/Erbj7N+wsLtRl53zyeJChzFYhGtVgtra2vwfR+Li4vQdR2RSAT9fh/VahXRaBSzs7My1BAOZITHerIKzGkURYFlWTII0mq1sL+/D9/3kUql4HkednZ28Pnnn+Pw8BD37t3Dxx9/jFQqNVE5pl6vY3NzE5VKRQYker0etra2sLm5CU3TMD09jWKxKOc1Ho+jWCxic3MT+/v7WFtbg6qq8ty7u7vY29vDYDBANpuV1xMhFMMwYFkWbNuG4ziyykehUEAsFgMAJBIJJBIJdDod9Ho9GXQKt+0JPw/RXufu3btwXRePHj3Co0ePoGkabty4gUKhANu2MTs7i+PjYzx79gymaaLf7yORSEBVVRmQ6Ha7yOfziMVispKNYRjI5XKYmprC5uYm9vb2UCgU5LlFqGg8Hsu1nUwmcf36dcRiMbkWFEVBOp1GKpWSa12sbXEecb1MJoOFhQUcHR1hd3cX6XQag8EA4/EYm5ub2NraQrvdRjKZnKgIFF5LYSKAIoI0W1tbME1TBkL6/T52dnawv7+PdruNbDYrPyvCNOVyGblcDtVqVbbYEs89CAIcHBxgOBxidnYWuq7LtR6uiqPrOlKpFAMoREREREREREREZ2AAhYiIiIguPLHJLDbSReWFw8NDPH/+XFYf8X1fVkxYXFzEzMyMbKFTLBZx+/ZtBEGA1dVV/Pu//7us+GCaJorFIubn52GaJgzDgKIoiEajmJ6exo9+9CP4vo8XL17gP//zP6HrOmKxmGz9UyqVUK/XZVBBjNf3fdkCRFVV2Q4mvEkvNsJPa2sj2tJ4ngfgm+CIaBWTz+dx69YtKIqCJ0+e4L//+7/xm9/8BqqqyiDB7OwspqamEI/HoWmarPghziPmzfO8idfOam+iaRpyuRzm5uZQrVaxvb2NarWK6elp3LhxA6VSCd1uF9VqFfv7+1hYWJCVRsR9G4aBcrmMZDKJ58+f4+HDh+h0OrItUCaTwY0bN7CysiJbzIgAyuzsLOr1Ou7fv4/f//73uH//PhKJBGzbluGRbDYrW62I+xOfn56eloGi//qv/8LDhw9x584d3LhxY+IcorVSv9+XVTPC6zH8Y5omKpUKHMdBEAR4+PAhfv3rX6Ner+NHP/oRisUilpaWMBwO8fTpU3z22Wf47LPPZKWRQqGAmZkZVCoVZDIZWcFGPKdEIoFMJoNEIoGtrS1ks1lks1lYliXX1Xg8RqvVwvHxsQxghL83kUgEyWQS6XQauq5jNBrBdV3Z3kYEbHRdRzabxc2bNzEej/Hw4UM8efIEiURCfk9s20a5XAYA2c7otOCVeF1VVcTjcSwsLKDb7eLzzz/H//7v/+Krr76CYRjI5/NIpVJybOGglKqqiMVimJmZwaeffoqHDx/i8ePHWF1dlZV4YrEYyuUyZmdn5ToX4xmNRuh0OhgMBkgkEkin0xNBMSIiIiIiIiIiIvoGAyhEREREdKmIYEgymYRt2xNtZUS1hGvXrmFhYQGZTEaGVRKJBK5cuSLbiRweHqLX6yEIArnJXyqVZHhBBDAsy8Li4iKCIEAymcTu7i4GgwGAl5v1oh1IvV5Hp9OBpmkyKBKNRlEul+E4jqy+EK4yomka0uk0rl69Ctd1kc1mZWsbcYyowpJMJpHJZBCLxeTYxMa8CCFsbm6i1+sBgAx6FItFlEolJBIJKIoC3/eRTqexsrKCfr8vxx++pmgfc/v2bXQ6HRSLRRnAUBQFyWQSc3Nz6Pf7MAwDnU4HAGQAKJvN4tq1aygUCpidnZVjFqEKEY6Zn5+H53moVqsIgkB+dnFxEdevX0exWJRhBDHfuVwO169fh6IoePHiBZrNppzvXC6HhYUFGWQQ7YjC66ZcLuPWrVuIRCLY39+fmG9VVZFIJJBKpaCqqmzLJCrpaJqGRCKBIR7mYAAAIABJREFUxcVFWVVGVCvRNA3z8/NQVRWKoqBer8s5MwwDU1NTUBQFpmni8ePHaDQaE/OdTqcxPT2NdDotgyPhdRKNRhGPxxGLxSbWvji21+thMBjIiiwiuBMOg4hx3L59W671fD4/EcgQ34WFhQUMBgO4rotWqwXgZfioVCohlUqhUqlgNBqhVCrJz4s2WOL7lkwmJ6rtFItFOI6DwWCA3d1djEYjGeApl8solUoYDAbyeyyCJGJdhOfz6OgIruvKOcpkMqhUKrBte6LCSbfbxfHxsQzgiHZORERERERERERE9Cr+lzMiIiIiuhTCFRY0TUMqlcLy8jJKpRKGw6F8X9M0WJaFeDwuqzOIz8fjcSwtLaFQKGA8HsuKFZqmwTRNWeVBbHyHK0dcvXoV09PTGA6HsiKJruuIRqM4OjqSVUcSiYQMK1iWhevXr2N+fl6GWcLVGTRNQz6fx09+8hMAL9u/RKPRieoX6XQaN2/ehOd50HUdiURCzokIVZRKJcTjcdy7d09uygMv2/SkUinE4/GJyikikOJ5ngw1hCu3aJqGcrmMP/uzP4PrukilUojFYvJ9ERC4e/euDM8oioJ4PI54PA7btpHNZuG6rnwt3OJHzJ1oi6QoCsbjsRxfPB5HMpmU4ZCTIYpyuYxUKoWbN2/CdV0ZUhBhkOXlZfncwpVLRPug8LOMRCIyLKHrumzpk8vlMBgMUKvVZIsecd/37t3DjRs3EIvFEI/Hoeu6DG7Mz88jm83K0FEymZRzVywWkUqlsLKyMvGcDMOQ4QgRmDpZCSdc3UeEQMRa8jwP7XYbg8FAVjkR4w0Tgamf/vSnGI/H8nsk2vSI74kIRt29exfLy8vye6IoimxhI6raRKNRJBIJub5v3LiBpaUlqKqKZDI5sd6j0SgqlQosy8JwOJT3aJqmbIEUrlYTDg/pug7LsnDz5k0sLCxgNBrJaj6qqsKyLCQSCXkvonpQs9lEtVpFMpmU7Y3C7ZSIiIiIiIiIiIjoGwygEBEREdGlIkIhhmHAMAzYtj2xWS+OOfka8E31jmQyCWAy2CA2+cNtbgSxwW1ZlvwcAHieJytP9Pt9xONxFItFWZnCMAzoug7btifGIa4pWpOIDfzwucOb9iJEcVrbEFFBwjTNN86d2NwXwQlxrZPzIM4pghMnrwdAVu3IZDLy3OEKJ+KexDlFiCF877FYDPl8Xj6P8DVOC2GIZxOLxWRg4eS8iOd48r2TASXLsibaH4Wl02lcuXIFz549w+7uLnK5nAwHGYaBbDZ76rxomibXV3hNhZ9TLBaTc3baOg2PNxykEOusVCphbm5Ozq9on9Tr9eB5HrLZLNLp9ETwRgjP3WnXFc9QrN1oNIpcLifnNTyu0+ZefCdPI4JLiUQC8Xj8lffPWmfis4qiyPNnMhk53tOuI+ZkOByiWq2i0WhgZmYGpVIJ0WiUARQiIiIiIiIiIqIzMIBCRERERPT/nRbQeNOx4Y1+sTEdDib0+310u13ouo5YLAbDMORxw+EQ+/v72NzchOM4yOVymJ6elmGQ8Cb/yYBJ+PXXjfu098Khhjfd92lBnNed+7TXxfVO27gPh1bOOsfJX5/2Ew6nvG58b/OMT7secPpcnHxNhJRmZmbQaDSws7OD9fV16LqOcrl8aijnbcZ2MuwSfnYngzZiHAAwHo9Rq9VwdHQEx3Fw5coVGaQ4OWax9rLZ7ETlkZNhjvCYxLyL4IaYr5PfhfAciud08n7DoaHXreuzxnPyXKethZOvha8nfu26LtrtNjY2NrC/vw/DMDA9PY1cLsf2O0RERERERERERK/B/3pGRERERJfeadVDztqoDh//prCD7/vodDrY2tqS7UpEm48gCNBsNvHkyRNsbm7CsixUKhXkcrmJKhAnK5qcdf23GVs4LCAqSrwpkHHWPZ42H6eNSVSTOCuQ8Kb7OTkWUcVEnFtU3TgZXgiP8bsEi85677Swx8nP6LqOVCqFSqWCwWCAarWKeDyObDYL0zRlhZyTYZKz7vekk3Mf/ryYb8/z4DgO6vU6nj17hqOjIyQSCRSLRaTTadn2R4y3UqmgWCxCUZSJNlKnBXtOzsHJ+VcUZaI6zsmQ0Ml7PHlv3zYk9Lbe5vsSiURk653Hjx9jNBqhUqnItlOsfkJERERERERERHQ2BlCIiIiI6FI4q1LCaZvSr6v6Id5/203yaDQK0zRxcHCAx48fo91uy0oRjuPAdV2kUincuHEDV65ckdVPTmuv8jbOGtfJcE3459t6U8WSk6+fbEn0tpVJTgYWROAk/L547bRKJaeFiN413PA2IRxFURCNRlGpVBCNRlGv15FKpWT1m7cN3Jx2vdetV/HeaDTC8fExXrx4gRcvXqBWqyGbzWJlZQVTU1OyjYyYE9Ha5k3P6LT3zqoW86bPfpcqMGGvq6Lytp8/a0wiLLa8vAxVVTE1NYVMJgNd17/T94WIiIiIiIiIiOiyYACFiIiIiOj/+66hj7OEW5uMRiNUq1V0u12Mx2MoigJN01AqlbC0tITl5WVkMplvVZHkuzitPcp3Oce3OVZV1Xe6nvisYRgoFApYXl6GbduwLEtWcTmrSs0P6XUhClVVYVkW4vE4KpWKfN5vG/J43fXeFNYJggDD4RC1Wg2NRgPxeBxXrlzB4uIibNueqOLxpiDR2wSNTpv706oJfZsQ0uuu+13aQn2b4zVNQzabRSqVkr9/m2pBRERERERERERElx0DKEREREREIW+qIPK6Y06jaRps28bVq1dRKpUwHA4nWq/E43FYloVEIgFN++H+8fxdgg/f13Xf5fOapiGZTGJlZQUzMzPQNA3xeBzRaPSVShjfpsLID0WEUET45ocWbpWj6zqy2SyuXbuG6elppNNpTE1NwbIsWcXj+56bb1MR59uc57se8y7nEG2edF1/5+sQERERERERERFdJgygEBERERG9he+y6S02+g3DgK7rsG37rdvA0DeVNET4R9d1ZDIZZDKZU6tgnIfgyYcSvmdRfSUajSIIAsRiMRiGcWprovc5LiIiIiIiIiIiIrrYGEAhIiIioh/EWVUW3qb6wg+xaX1eNsI/RAjgIhLzdzKIchnnNRy88X1fhp4Mw5h4/+Sv38eYzoPzNBYiIiIiIiIiIqKLjAEUIiIiIvreicoVgqhicVrVistGUZSJyh4nAzmskPKq0+YjHOQ5udZe95kgCOB5Hnzfh6qqUBQFQRDItkii/YoIc/i+L88p3hPHn3z9Q7f8OflXRVHk+2KsXF9ERERERERERET0Q2EAhYiIiIjoPXibijCvaytzWb3N/b9u/sI8z0O/38f+/j56vR4KhQJyuRxc10WtVoPrurBtG7ZtwzAMOI6DVquFZrMJAMjlckin0/B9X77uui6y2Syy2Sw07Xz869Vpa+2yryMiIiIiIiIiIiL64Z2P/0JKRERERH/wvusGd7iCxWXbJD8ZFGBo4O2dFeZ5ndFohMPDQzx79gzD4RCGYSCdTsugSaPRQKPRQKVSQS6Xw3g8Rq1Ww87OjqyYkkwmMRgMsLW1hf39fUSjUXme8+B1c3BaUIdr7GLgcyQiIiIiIiIiovOAARQiIiIiem+4SfoNzsX7FQQBut0utre30Wq1kE6nYZomIpEIdF1HNptFvV7HixcvMB6PoSgKDMOA67oYDofwfR+u62I8HqPZbGJ9fR2tVgsrKytIJBIT7W7OO669i+esCktERERERERERETvEwMoRERERPSDC4Lg0lY5oQ/P9330+33s7e3hwYMHODg4QCaTQbVahW3byGQyKJfLSKfTaDabODw8RCwWw/T09Cvn6na72Nvbg+M4yOfzKJfLSKVS5y6Awu8ZERERERERERERvW8MoBARERER0YXmuq5spdNsNjEcDtFsNtHv92GaJiqVCtLpNAqFAlRVxcHBARzHge/7p57L932Uy2UUi0Xk83kYhnFuAh/nZRxERERERERERER0+TCAQkREREREF5rneTg+Pka328X169eRy+Vg2zY0TYOiKEgkEshkMohGo0gmk8jlclBVFZqmwfd9+eN5HpLJJBYXF6EoCuLxOEzTBABZ4QdgCISIiIiIiIiIiIguJwZQiIiIiIjownIcB71eD6PRCKlUCnNzc5idnUUikYCqqgBeBlQGgwG2trawvb2NwWCAIAgwGo1Qr9dRq9UQBAGOj4+Rz+ehqio8z4NlWZidnUWpVJo4HxEREREREREREdFlxAAKERERERFdWL7vw3EcxONxWZmkWq2iWq0CAHRdh6qqGA6HWF1dxRdffAHHcWCapqx64rouAGA4HGJ3dxe+76PdbiOdTuPTTz9FPB6fOD8RERERERERERHRZcQAChERERERXTiiJY6mabAsC77vY2trC7/97W+xs7ODwWAAAMjlcrhy5QpKpRKCIEChUMDs7CwqlcrEeYRIJILBYIDnz5+j3+8jEonA9/33e3NERERERERERERE5xADKEREREREdGGpqop4PA5FUdDtdhGLxTAYDNBut5HNZmHbNuLxODRNQzQaxdTUFG7cuIGrV6/CdV20Wi10Oh1EIhGk02lYloV+vw9N07C7uwvDMD70LRIRERERERERERGdCwygEBERERHRhROJRBAEAYIgQCQSQTQaRalUwo9+9COoqopGo4Hr169jaWkJqqqi0+mg0WhMtNFxXRe1Wg27u7uIRCJYXFyEZVlQFAWRSEQeK65DREREREREREREdJkxgEJERERERBeGCIKEgySRSASqqiIajcKyLFiWBcdxkMvlUCgU4HkeRqPRxGfEuRzHQa/XQyQSgeu6E8GWcOgkHHYhIiIiIiIiIiIiuowYQCEiIiIiogtJhEa63S729/ext7eH4+NjbGxsoNvtYjweo1qtwrIseexZAZbTzs2wCREREREREREREdE3GEAhIiIiIqIL42QoxHVdtNttrK2t4f79+2g0Gjg+PsZgMECtVsPh4SEqlQrK5TJ835dVTE7+hKueRCIRKIoiW/GI6zKQQkRERERERERERJcZAyhERERERHThiEommqYhlUrh6tWrSCQSqNfreP78OZrNJhYWFrCwsADbtqHrOvb29gAAvu/LMIrnebL1jhB+Pxw8YQseIiIiIiIiIiIiuswYQCEiIiIiogtLVVWkUikkEgnMzMygVqtB13UcHx/jzp07uHr1KiKRCBqNBo6OjhCJROD7PjzPw3g8RqfTQb/fh2VZUFWVARMiIiIiIiIiIiKiMzCAQkREREREF45omwNAtsrRdR2GYSAajSIajSIWiyEWi8H3fei6jng8Dtd1oes6HMdBt9vF/v4+Dg8PoWkaHMeB4zhQFAWmaSKRSCAajcpgCsMpREREREREREREdJkxgEJERERERBeGCJ2EwyBBEJzZMicIAtmmZ2FhAePxGLZtw3EcHB8f48WLF3j69ClqtRpM04RpmsjlcpienkYqlYJhGEgmkwBetuZhEIWIiIiIiIiIiIguKwZQiIiIiIjoQgoHTU6GToIggOu6aLVaCIIA8XgchUIBQRDA8zzs7+9je3sbADA1NYV4PI7/x96d/8Z93/kdf83FITkc3qRIUSQly5fs+EpsZ52jyNEUWCzaBRZoC/Sv6w/9ZdH+1gPFtpvddeq0m40dH7HkS4dl3RIlijfn7A/GzFK0ZDuhHdnS4wEIojjf+X4/MyREifPk+3P9+vW89957OXLkSGZnZzM3N5dyuZxSqZRisXjfHicAAAAAwDeBAAUAAHhg3G36yN73tVqtNBqN7OzsZH19PRcvXkyj0cjCwkKmp6fTbDazurqaM2fO5NKlSzl69GgWFhZSLBbzySef5PTp01lZWcnjjz+eo0ePpl6v37EFj+knAAAAAMDDSoACAAA88AqFQrrdbnZ3d3Pz5s18+OGHWV1dzSOPPJLFxcUMDAxkbW0tp0+fzsmTJ7O+vp75+fk89dRTWVpaSrvdTrVaTbFYzO3bt/Pmm2/m+vXrOXHiRObn51OtVsUnAAAAAMBDTYACAAA88Hpb7uzs7KTVaqVQKKTVaqXZbGZjYyNnz57Nzs5Obty4ke3t7UxNTeXJJ5/M4uJiRkZG0m63s7y8nKGhoVy6dCmffPJJLl26lEqlkmKxmLm5OREKAAAAAPBQE6AAAAAPtG63m06nk3a7nU6nk8nJyTz33HNZXFxMkpw5cyYXL15MrVbLY489lh//+MeZnp7O+Ph4BgcHUyqVUiwWMz4+nuHh4UxPT2dmZibnz5/PlStXMjIykomJiVQqlZRKpfv8aAEAAAAA7g8BCgAA8MArFAqpVquZmZnJwMBACoVCpqamsru7m3K5nImJidRqtSwvL2dubi61Wq0/zaTT6aTb7aZcLqdSqaRaraZaraZWq+XWrVuZnJxMuVw2/QQAAAAAeKgJUAAAgAdaLwwZHBzsTzbpBSVJMjExkVarlWKxmIGBgTummBQKhRQKhXS73f6fS6VShoeHs7CwkIWFhX6YIkABAAAAAB5mAhQAAOCB1wtJKpVKPzzpGRgY+ML7FovFfmDSO08vOhGeAAAAAAAIUAAAgIfI3mBk71STL3ufu/0ZAAAAAICkeL8XAAAAAAAAAADAt5sABQAAAAAAAACAAxGgAAAAAAAAAABwIOX7vQAAAID7oVAo3O8lAAAAAAA8MExAAQAAAAAAAADgQAQoAAAAAAAAAAAciAAFAAAAAAAAAIADEaAAAAAAAAAAAHAgAhQAAAAAAAAAAA5EgAIAAAAAAAAAwIEIUAAAAAAAAAAAOBABCgAAAAAAAAAAByJAAQAAAAAAAADgQAQoAAAA8C3Q7Xbv9xIAAAAA4J4EKAAAAAAAAAAAHIgABQCAbww/3Q/w+Xp/TxYKhRQKhfu8GgAAAAD4Z+X7vQAAAB4exWIxxeKnDXTvRdQvik68wApwdyIUAAAAAL5JTEABAACAbwnBCQAAAADfVCagAADwJ9Nut9Nqte6YenK3F1O9wArwWYVC4Y6/PzudTjqdTn+yFAAAAADcTwIUAADui96LqHeLTbrd7hduzfNVEcAA3zZ7/4709xUAAAAA3xQCFAAA/iS63W46nU62t7dz7ty5VCqVJJ998XRveLI/QvmqopQvesHWC7rAN1W3283169dz8eLFbGxspNPppFQq3e9lAQAAAIAABQCAr1ehUOgHHa1WKysrK/nVr36Vd999t3/7XvcKUL7qiSh/qgkrAF+VYrGYbrebra2trKys5Nq1a2k0GgIUAAAAAL4RBCgAAHytyuVyBgcHUyqV0u12s729nffffz/VavWux98rDBGgAA+7XrDXbrfTaDSyubl5x/v3Bn8AAAAA8KcmQAEA4GtRKBRSKpUyMjKS2dnZbGxspNFopN1u5/bt2ykWi/d1fQIU4NumF5d0u93+tmbDw8M5dOhQxsbGMjAwcJ9XCAAAAMDDTIACAMDXplQqZWpqKo899lg2NzfTarWys7Nzv5cF8MCYmZnJM888k8XFxYyMjNz3uA8AAACAh5cABQCAr0W3202xWMzc3Fy+//3vZ2lpKaurq2m32/d7aQAPjHq9niNHjmRpaSmDg4MCFAAAAADuGwEKAABfm1KplPHx8dRqtRw/fjydTud+LwnggVIoFFKpVDIwMCA+AQAAAOC+EqAAAPC1KRQKGRgYSKVS6ccnpVLpPq8K4MFUKBTu9xIAAAAAeIgJUAAA+FrsfyHUT+YDfH3EJwAAAADcbwIUAAD+JHovjnqRFAAAAAAAHjwCFAAAvnaiEwAAAAAAeLCZgw4AAAAAAAAAwIEIUAAAAAAAAAAAOBABCgAAAAAAAAAAByJAAQAAAAAAAADgQAQoAAAAAAAAAAAciAAFAAAAAAAAAIADEaAAAAAAAAAAAHAgAhQAAAAAAAAAAA5EgAIAAAAAAAAAwIEIUAAAAAAAAAAAOBABCgAAAAAAAAAAByJAAQAAAAAAAADgQAQoAAAAAAAAAAAciAAFAAAAAAAAAIADEaAAAAAAAAAAAHAgAhQAAAAAAAAAAA5EgAIAAAAAAAAAwIEIUAAAAAAAAAAAOBABCgAAAAAAAAAAByJAAQAAAAAAAADgQAQoAAAAAAAAAAAciAAFAAAAAAAAAIADEaAAAAAAAAAAAHAgAhQAAAAAAAAAAA5EgAIAAAAAAAAAwIEIUAAAAAAAAAAAOBABCgAAAAAAAAAAByJAAQAAAAAAAADgQAQoAAAAAAAAAAAciAAFAAAAAAAAAIADEaAAAAAAAAAAAHAgAhQAAAAAAAAAAA5EgAIAAAAAAAAAwIEIUAAAAAAAAAAAOBABCgAAAAAAAAAAByJAAQAAAAAAAADgQAQoAAAAAAAAAAAciAAFAAAAAAAAAIADEaAAAAAAAAAAAHAgAhQAAAAAAAAAAA5EgAIAAAAAAAAAwIEIUAAAAAAAAAAAOBABCgAAAAAAAAAAByJAAQAAAAAAAADgQAQoAAAAAAAAAAAciAAFAAAAAAAAAIADEaAAAAAAAAAAAHAgAhQAAAAAAAAAAA5EgAIAAAAAAAAAwIEIUAAAAAAAAAAAOBABCgAAAAAAAAAAByJAAQAAAAAAAADgQAQoAAAAAAAAAAAciAAFAAAAAAAAAIADEaAAAAAAAAAAAHAgAhQAAAAAAAAAAA5EgAIAAAAAAAAAwIEIUAAAAAAAAAAAOBABCgAAAAAAAAAAByJAAQAAAAAAAADgQAQoAAAAAAAAAAAciAAFAAAAAAAAAIADEaAAAAAAAAAAAHAgAhQAAAAAAAAAAA5EgAIAAAAAAAAAwIEIUAAAAAAAAAAAOBABCgAAAAAAAAAAByJAAQAAAAAAAADgQAQoAAAAAAAAAAAciAAFAAAAAAAAAIADEaAAAAAAAAAAAHAgAhQAAAAAAAAAAA5EgAIAAAAAAAAAwIEIUAAAAAAAAAAAOBABCgAAAAAAAAAAByJAAQAAAAAAAADgQAQoAAAAAAAAAAAciAAFAAAAAAAAAIADEaAAAAAAAAAAAHAgAhQAAAAAAAAAAA5EgAIAAAAAAAAAwIEIUAAAAAAAAAAAOBABCgAAAAAAAAAAByJAAQAAAAAAAADgQAQoAAAAAAAAAAAciAAFAAAAAAAAAIADEaAAAAAAAAAAAHAgAhQA+CMVCoX7vQQAAAAAAAD4Rijf7wUAwDddt9tN8mlw0u12+3/ef/uXOcfdCFkAAAAAAAD4thOgAMA9dDqddDqdtNvtFIvFFIvF/p97ut1uOp1Oms1mGo1GyuXyHZFKsVj8wsDkXnGKMAUAAAAAAIBvCwEKANzDtWvXcuXKlezu7ib5NCZJkrNnz2ZzczPtdjuFQiGbm5v58MMPUy6XMzg42A9UKpVKDh06lPHx8VSrVUEJAAAAAAAAD6xC98vsGwAAD6FXX301f//3f5/V1dW02+10u92USqVcv349n3zySVqtVorFYqrVag4fPpzx8fEMDAyk2WymVCqlXq/nZz/7WZ555pmMjY31A5YvS7ACAAAAAADAN1Vh34tZJqAAwD00Go2sra3lwoUL2d7e7gcnjUajP+Wk0+lkZ2cnly9fzsrKSsrlctrtdmq1Wg4fPtyPVgAAAAAAAOBBJkABgHsYHBxMrVZLs9nM+vp6Wq1WkqTb7WbvALFOp5PNzc1sbW2lVCql0+lkYGAgtVotw8PDGRgYMM0EAAAAAACAB9ofthcAADxERkdHMzMzk0qlckdw0u1202q1+u/rxSW99zebzf62PPV6PaVSSYACAAAAAADAA02AAgD3UK/XMz8/n9nZ2QwNDaXdbqfT6SRJisV//hJaKBT6v5KkVCpldHQ0i4uLGRkZEZ8AAAAAAADwwLMFDwDcQ71ez+zsbGq1Wsrlcrrdbj8m2R+VFAqF/u2lUiljY2M5cuRI6vX6HbHK3QhUAAAAAAAA+LYToADAPYyNjWV6ejo7OzvZ3t5OqVRKsVhMt9vtT0JJcsdWPMViMeVyOfV6PQsLC6nX6wITAAAAAAAAHni24AGAeygWi6nVann88cezsLCQYrGYVquVTqdzz6ikVCrl6NGjWV5ezuDgYIrF4hdOQAEAAAAAAIBvO6+IAcDnGB4ezokTJ7K8vJxKpZLk04knvaknPb33FYvFHDt2LMeOHesfDwAAAAAAAA86AQoAfI7h4eE8+uijWVpaSq1WS6lU6m/F05uC0otPut1uCoVCjh07dkew8nlszwMAAAAAAMCDQIACAPdQKBRSLpczOjqasbGx1Gq1FIvFdDqdfmyyV6VSycTExB3H9o4pFAp3/QUAAAAAAAAPAgEKANxDoVBIqVRKtVrNyMhIxsfHUy6XPzPxpPerVqvl0KFDGR0d/cx2Pfu37AEAAAAAAIAHiQAFAO6hF5YUi8XU6/XMzs5meHg4xWLxrlFJvV7P0tJSJicnU61WTTgBAAAAAADgoSFAAYAvUCwWMz09nWPHjmV4ePiex42OjmZ5eTmjo6MpFn2JBQAAAAAA4OHh1TEA+By9CSjT09N55JFHMjo6mkKh8JlteJJkbGwsy8vLGRkZSbFYNAEFAAAAAACAh4YABQA+R28bnnq9nvn5+czNzd0zQqnVapmbm+sHKHvvL0YBAAAAAADgQSZAAYB72BuYlMvl1Ov1LC0tZXZ2NuVyOUnS6XSSJIcPH86RI0cyOjravw0AAAAAAAAeFgIUANinF53sf3twcDDLy8uZn59PuVxOoVBIu91OoVDIY489lmPHjmVgYMC0EwAAAAAAAB46AhQA+AK9LXQGBgaysLCQQ4cO9UOTSqWSkZGR/vsrlYotdwAAAAAAAHjo2CMAAPbpxSPdbveOmKRSqWRycjITExMZGBjov29sbCyHDh3K+Ph4SqWS+AQAAAAAAICHjgAFAO5hf0hSLBZTr9dTr9czODiYYrGYgYGBjI2NZWpqKvV6PcWi4WIAAAAAAAA8fLxKBgBfQm8aytDQUMbHxzMzM5OhoaE4kI6SAAAgAElEQVQMDg5mdHQ0IyMjqVarpp8AAAAAAADwUDIB5Rug2+2m2+1+4XFe1AS4v3rb8czOzubEiRO5detWarVaHn/88UxMTKRc9mUVAOB+6P2/eu/2iQAAAAD8aXml7Bui3W6n2Wym0+kkyV2DlD/2m2i++Qbw1RobG8vTTz+dDz/8MOPj4zlx4kRqtVoajUZardb9Xh4AwEOn93/oarWaYrHo/8EAAAAA90Gh+2VGb/C1ajabuXTpUs6dO5fLly9nbW0tzWYzrVbrjhBFgALwzdBsNrO+vp6TJ09mcHAwjzzySMbGxlIul/t/5/ryCgDw9dj/762hoaHMzMxkcXExx48fz+joqP8HAwAAAPwJFPZ9E8YElG+AdrudS5cu5fXXX8/p06dz69at/k/RfxUvYPrGG8BXq1AopNvtZnNzM8ViMWtraymVSknyuZOsAAA4uN6/xXr/3hoZGcni4mJu3bqVmZmZ1Ot1/w8GAAAAuA8EKPdZt9tNs9nM5cuXc+rUqVy4cCHb29t33L739z+GPbABvlq9QLBUKqVYLKbRaPQDlEajcZ9XBwDw4Ot2u2m1Wmm32xkaGsrm5mZarVZeeumlHD58+H4vDwAAAOChJEC5j3o/sdVut7O1tZXV1dXs7u6m0+mkUqmkXC7fcewfS4AC8PXo/d1aLBZTKBTS6XRSLBbv86oAAB4OjUYjOzs7aTab2dnZycbGRtrt9v1eFgAAAMBDS4DyDdDpdPrfOOt0OimXy5mYmMhjjz2Wer3+lVxDgALw1SoWi/04sPd2p9Ppb8HzbbQ/dvS14+vXe8491wDwh/vkk0/ywQcfZHd3N81mM81m81v9bzEAAACAbzsByjdA70Wn3otQpVIpR44cyb//9/8+x44d+0qvAQB77Y1O2u32HV+LTND6evWipeSfp+jcr3Xc7e29vmiyT2+qGwD8qRQKhfyv//W/cuXKlaysrPSni/p6BAAAAHD/CFDuo94LTftfcCoWiymVSqnVal/JBBQvHgLwZeyNCL5sfOJFnj/O/vj0m/K1uree3udCoVC4Y9rPH3KO/b4pjxGAB8fg4GA/mgUAAADg/hOgfAP1XvT7qn7y3DfjAPiy9n7N+KKvH71AgT/OH/Jc/7F6Pw2+traW7e3tjIyMZHBwMAMDA/dcU+8+29vbWV1dTafTyejoaGq12mfu94es2+cKAF81X1sAAAAAvlkEKN9QvpEGwJ/al/3as39Syt2meHzRxIy99/tD17X/fvvP9Yec+w91t8d4r+vd7f33eo6+jpin93Ha2dnJyZMnc/78+Tz55JNZXFzM5OTk59630Wjk8uXL+bu/+7tsbW3l+9//fh5//PFMT0/f9fjeY+1tKbT/sdxr6hsAAAAAAPDgEKAAwEOq0+lka2sr586dy6lTp7K+vp5Go5EkGR4ezvLycp5++umMjIxkYGDgM9vGfFN9nev7KkKR3vo6nU5u3LiRq1evZnV1NXNzc1leXk6lUvlKQo1egNJut7Ozs5P19fXs7u6m1Wp97n12dnZy7ty5/L//9//y1ltvZX19PTdu3Mg//dM/pVar3XF8qVTK7OxsFhcXc+zYsQwPD39mgpv4BAAAAAAAHg4ClG+Yr2rbHQC4l15ksLa2losXL+a9997L+++/n42NjX6cMDo6mk6nk/Hx8SwuLqZSqXzu+XruNeFjb7zydW43s/9a+9d0t/V83jm+Lr1pISsrKzl16lQ+/vjjPP/881lYWEipVEqhUEir1cqtW7eyubmZ3d3du65xYGAg4+PjGRkZ+Uy40gtQ9k9audd6ut1udnd3c/Xq1Vy+fDnr6+sZHx/PwMBAtre388knn6RQKKTT6WRjYyMbGxvpdDp59tlnMzw8nCNHjtxxTuEJAAAAAAA8XAQo31BerAHg69ALEG7cuJF33nknv/zlLzM1NZWf/OQnmZuby9DQUD8yWFlZyenTpzM6OpqRkZEUi8V+KHmvrWg+77p325blXpHK/vPtvf8XbbGz/1pftL79t3c6nf5j3e9u7+td74tCnL3n771/c3MzKysruXXrVhqNRorFYv+Y9fX1/PrXv87bb7+djz/++I7zt1qtVCqVzM7O5he/+EWee+65jI2NpVz+cv+063a7dzzGXpR08+bNvP322ymXy/mrv/qr/nr22t3dzenTp3Pq1KlcuXIlzzzzTJ599tnU6/V+PHOv5woAAAAAAHhwCVAA4CG0urqaS5cuZXh4OEePHs1jjz2WycnJVKvVFAqFtNvtjIyMZHBwMGNjY3eNT3rRxf7QYP/Ujd6xf0yQsDfs+KLpKV8mhLlbBLN3zfsjkk6n87lBxd1CmD/0cbbb7TvW3rv/0NBQHn300QwPD+fJJ5/sX683gWRlZSWrq6splUopl8tf6jne/1i63W4ajUY+/vjjnD59Oh988EE+/vjjDA4O5urVq3cEKL23m81mrl+/nsuXL2dtbS2vv/56rl+/nkqlklKplHq9nuPHj+fw4cOZmJj4g54LAAAAAADg20uAAgAPmW63m42NjayurmZ+fj7Ly8uZnp5OpVK5IzSZmprKxMTEZ8KTXiyxubmZra2tbG1t9ad6JEmtVsvIyEgGBgbuOF8vnth/v0KhkEqlkpGRkRQKhayvr2d4eDjDw8P9iSytVitbW1vZ2dlJ8mmcsbOzk+3t7XQ6nf55xsfHU6vVUi6Xc/v27WxubqbRaPS3qxkeHu6vrWfvZJLd3d1sbm5mZ2cnjUYj3W43pVKpH+IMDg6mVCr1H0tvK6MkGR4eTrvdTqPRyPb2dv/clUolo6OjqdVq/edve3s7q6uruXbtWtbW1rK1tZUbN27k448/zvDwcEZHR/tx0NLSUn/9vediZWUl77//ft5+++3UarW02+1cvXo1zWbzjoksnU4nW1tbuXbtWm7dupXLly+nXC6n0WhkZGQkSXL79u289957eeONN/L73/8+o6OjGRwczJtvvtnfkqnb7abdbmd7ezsbGxsZGRlJrVbL4OBgrl+/nps3b/a38BkdHU2SjIyMCFAAAAAAAOAhIkABgIfQ7u5u1tfXMzQ0lFKp9JktZ3rRyP4tWPZO/Dh79mzeeOONvPHGG9na2urf78c//nF++MMfZn5+vj9RpTddpNFo5J133snvfve7vPnmm+l2u6lWqxkdHc0rr7ySUqmU3/zmN3n22WfzzDPP5Pjx4ymXy1lfX8/bb7+dM2fOpNVq5YUXXsiZM2fy29/+Nuvr62m1WhkbG8tf/MVf5MSJE6nVavnHf/zHvPXWW/nwww/T7XazuLiYF154IS+99FKOHDly12knN2/ezK9//eu8++67uXDhQiqVSoaHh7O4uJhf/OIXOXr0aOr1ev85vHHjRv72b/827XY7Tz31VNbW1nL+/Pm8/fbbabfbGRoayuHDh/Pzn/88Tz/9dEqlUtbX13PmzJn87d/+bT744INcu3YtzWYzV65cyW9+85ssLCzkBz/4Qb773e/m/PnzabVamZiYyOzsbAYHB/sfk0KhkGq1mmazmdOnT+fVV1/NxYsXs76+nnK53I9G2u121tbWsrOzkzfeeCO1Wi3z8/P5F//iXyRJLl26lG63m7Gxsbzwwgv50Y9+lMOHD9/xedBqtXLlypV88MEHOX36dF588cU8/fTTqVQq/eew0Wjko48+yuXLlzMwMPC52yQBAAAAAAAPHgEKADyEelM8Tp8+nYmJiSwvL2dycvKOoKBnf0iwsbGRCxcu5NSpU7l582aeeOKJ/kSR9fX1XL9+Pa+++mpeeeWVHD58OLVaLa1WK9euXcvZs2dz8uTJNBqNvPjiiymXy/0A5tatW7l06VLeeeedzMzM5JFHHulfu91u59atWzlz5kxWV1czPDycarWa5557Lo1GI5988kkuXbqUX//61/nggw8yOjqaYrGYpaWlHDp0KDs7O9nc3Mzvfve7jI2NpVwuZ3Z2Nkn6E1Q+/vjjfPTRR7l69Wqmp6eztLSUUqmUzc3N7O7u5q233sru7m6eeOKJDA4OptPpZHt7O5cuXcrFixdz+fLlPPbYY5mbm8vw8HB2d3f7U07ee++9VKvVLC8vp1wuZ3JyMk8//XSKxWIqlUrW1taytLSUxx9/PNPT05mbm+tvrXP16tWcOXMmzz//fObn51Mul7O9vZ1ms5mRkZHU6/WMjIzkO9/5ThYWFtJoNFIsFvsTUBqNRs6fP5+VlZUsLCxkeno6s7Oz/chkcHAw29vb/XX0puL0oqTexJabN2+mUqlkcXExx44dyyOPPJJKpdKPi3pR0/r6ev/6AAAAAADAw0OAAgAPmUKhkHq9nqmpqXz44Yc5depUFhYWsri4mMnJydTr9Tu23Nmr1Wrl+vXr+cd//Mdcv349U1NT+clPfpLp6ekkydWrV/M3f/M3+fWvf53Z2dnUarV+jHH27Nn8wz/8Q5rNZp566qn89Kc/7W+xs7W1lb/7u7/LtWvXsrq62t/+prfe3vSU9fX1rKys5ObNm3n55Zdz4sSJFIvFvPPOO/n7v//7vP7669nc3Mzs7Gz+7b/9t3nuuecyOzub9fX1vPHGG/nrv/7rfqAyNTXVn+6xsbGRU6dO5dSpU6nX63nxxRfz1FNPJUkuXLiQ3//+93nzzTfTbrczOzub6enpdDqdtNvtNJvNXL16NdevX8+zzz6b7373u5mZmcnOzk7ef//9/M3f/E3Onj2bUqmU6enpjI+PZ3FxMYcOHepHP5cvX87LL7+cn/zkJxkaGsrAwEA6nU4mJibyySef5PTp0xkbG0ulUsns7Gy2trbSbDYzOjqa0dHRzM/P97dLKpfL/ZCo2+1mc3Mz//RP/5TTp0/n+eefz/LycqampvrR0O7ubj7++ONsbGzk0qVLuX79eqrVan/SSrfbzfr6ej744INcuHAhk5OT/W19eqFJt9tNs9nM7du3s7u7m3a7/bV/HgMAAAAAAN8sAhQAeAgdOXIkf/Znf5YbN27k8uXL+eu//uvMzc3lpZdeyg9+8INUq9X+dJK9VldXc/r06bz22mt59tln8/TTT2d6erofkszPz+eRRx7JjRs3cu3atdy6dSszMzNZWVnJ6dOn89577+XnP/95Tpw4kbGxsZRKpf5WMk899VRu3ryZt956647tf3qBQ6fTSbVazdzcXF544YUcO3YsIyMj/e11nn322bz//vsZGRnJiy++mMceeyyzs7P9mGJqaipzc3NZW1vLtWvX0mq1Ui6Xs7GxkdOnT+ejjz7KxsZGXnnllSwtLWV4eDjdbjezs7NZXl7OyZMns7a2lqtXr2ZkZKQfXxSLxRw+fDiPPPJIHn300czMzGRgYCDlcjnz8/N58sknc/LkyZw/fz7r6+up1+upVqvpdrupVCopl8spFospl8sZGBjIwMBAf/rIxMREHn300bRarZw7dy6NRiPf//73c/v27TQajf5zuLKykvfffz/j4+M5dOhQZmdnUy6X0+l00mw2+x/L3jUGBwf7gVG5/Ok/B1dWVvJ//+//zUcffZTBwcHPBEArKyvZ2NhIuVzO66+/nnq93v/Y7D12fHw8k5OTJqAAAAAAAMBDRoACAA+RXkwwOjqaRx55JD/72c/ywQcf5Ny5czl79my2trZy69atzM3N5ciRI/0tY3r3u379eq5cuZJms5np6eksLCz0Y4ZCoZDBwcFMTExkcnIyt2/fztraWnZ3d/uTTarVan/6R+8+vakdvUCkXq/3r7l/7QMDA6lWq5menr4jAhkeHs7MzEzGx8dTr9fz9NNPZ2pqKtVqNcmnWw7VarVMT0+n3W5nZ2env/XO5uZmzp8/n+3t7YyNjWVhYSFjY2P961er1YyPj2d0dDTdbjerq6tptVr9sKVUKmV0dDRHjx7NxMRE/5rFYjG1Wi2HDx/O+++/n42Njezu7qbT6dxzwszex5p8GodMT0/n0UcfzfXr1/Phhx/mxo0buXHjRsbGxnL8+PEMDQ2l3W6nXC7n/PnzuXXrVqrVakZHR/tbLe0/d+9XL6CZmprK008/nW6324+O2u12VldX88knn+T8+fM5duxYnnvuuQwNDWVwcLAfrvQClF5I1NvSaXR09Cv4jAUAAAAAAL4tBCgA8BAql8uZnJzMj370ozzyyCP5/e9/n1/+8pf9SSBLS0v53ve+l8HBwX7I0e12c+vWrayurqZWq6VSqaTRaGR1dTVJ+mHF7u5uisVibt++na2trezu7ubGjRtptVqZm5vLzMxMf3pG8s9BRLVaTa1W64cTnU6nv95CodCf4FEoFFKpVPoTUnoBS+/+vTBmeHj4jvsPDAxkfHw8a2tr/Wt3Op3s7Ozk6tWr6XQ6GRkZSbPZzNraWjY2Nvpby2xubqZcLve3mel0Ov2pJb1zj46OfiacqVQqGR8fT7lcztbWVtrt9h2P64vsjVgOHz6cM2fO5H/+z/+ZycnJfP/738/U1FT/cR4+fDjnz5/PxYsXMzMzk3K5nHq9ftfz9uKTXnAyPT2dycnJfO9738vOzk4ajUY/HHrrrbfS6XTy0ksv5YUXXsjMzExqtVp/C5/eeVqtVprNZjqdTv/zAwAAAAAAeHgIUADgIdSLPorFYmZnZ/Piiy9meXk5Fy5cyNmzZ/P222/n1VdfzZUrV/Lzn/88jz76aIaGhtLtdrO1tZULFy7kv/23/5bXXnutv41O77zr6+vZ2trK5ORkNjc3+1FCL4ioVCqfmf7R22Kn3W7344heqLF3YkexWOyHH3sDlN5tvfv0pnjsvc7eY3oBSalUSrFYTKvVysWLF3Pq1KmcOnUq1Wo1hUIhrVYr3W43u7u7uXnzZmZnZzM2NpZms3lHeNELOXrX27ttULvdTqPRyPb2dhqNRtrt9h+0PU2xWMzg4GBOnDiRtbW1XLhwoT8tZnx8PAMDAykUCpmens7y8nLOnj2bd955J+VyOY8++uhdz7n3+e1t95MkjUYjb7zxRk6dOpVr165lcXExCwsL+Q//4T/k+vXr+eCDD7K7u5ujR49mZGSkf65Go5GVlZW88847uXHjRn74wx9mYWGhPyUFAAAAAAB48HlVAAAeMvvjj8HBwQwMDGRycjJzc3OZm5tLuVzOqVOn8sYbb+Sxxx7L3NxchoaGkuSO7XJmZ2f74cXe8xaLxf5WLL0YpBdrfJH9E0J6MUdvm5deMLE/Ltkbf9zr8e69bf996vV66vV6Dh8+nIGBgTsijd79epHH3ukq9zp37897p4P0YpUvq7e+3jY/ExMTGRoa6scxvfOVy+XUarUsLS1ld3c3Z8+eze3bt/tbDd1trb1o5MqVK1ldXU2z2UyhUOhvRTQwMJDp6emUSqXcunUrFy5cyObmZjY2NlKpVNLtdnPz5s3cuHEjGxsbKZfL6Xa7mZmZyeDgYD8QAgAAAAAAHg4CFAB4yO2NOiYmJjI6OprR0dEMDAzkP/2n/5SbN29mc3MzMzMzKRQKqdfrefTRR/PjH/84zzzzTAYHBz8ThPQUi8Vsb2+nWCz2t7ZpNBr92/bHIXunoOyNQ3rv70UoX+Re0cXec7fb7f77K5VKjh49mqWlpbzyyiup1Wp3DVl6U1MKhUK2traSpL9dUO98+4/fe+1Op/OlH8P+tTebzTQajXQ6ndy+fTs3btzIyspKBgYGUqlUUi6Xc+jQoTSbzayurqZQKGRnZ+euU0h6AcrHH3+c//N//k8+/PDD7Ozs5PDhw/n5z3+e559/PsPDw7l9+3ZOnjyZX/3qV2m32ykWi9na2srY2Fi2trZy+vTp/O53v8vt27fzox/9KC+//HKOHz9+x4QaAAAAAADg4SBA+YbZ/9PcAPB12r/NTe/t4eHh1Gq1jI2N9bfM6XQ6mZqaysTERE6ePJm1tbU0m83U6/U7tp/p6QUcvekd5XI5Gxsb2dzcTKPRyMDAwB3H37p1K9euXcvKykoajUY/EukFFL0pKHvtv+be4GP/7YVCoR9G9B5PuVzO8PBwFhYWcv78+Vy9ejWNRqO/3v16z1MvItk76eRuE1j2bg90ryhjbwC0/7nrnX93dzenT5/OlStXMjs7m0KhkGazmTfeeCMvvfRShoaG+teYn5/P4OBgBgcHMzw83A9+9q6xUChkaGgojz/+eKampvpbJbXb7Vy5ciX//b//99y8eTNzc3OZn5/Pv/t3/y6lUimbm5s5f/58Tp06lXfffTcLCwuZnp7O9PR0nn766czNzfW3BAIAAAAAAB4uApRviP0v/O19GwC+Kr1JHNevX8/q6mqmp6dTr9dTrVb7x3Q6naytrWV3dzdjY2MZHR3tb78zOTmZmZmZVCqVXLhwIVNTU/3QoRdR3Lp1K7dv3069Xk+tVkupVOqHK91uN2fOnEm9Xs8TTzyRcrmcdrud7e3tnD17NqdPn8729vZnJpjs/7q4N5y5W2xyN3e7vVAopFar5ejRo7l06VIuX76cDz74IEly6NChOwKQ69evp1KpZGxsrP987Y9N7vZ832vbn+TT7YwqlUra7XYajUaazWaq1Wo/VGm329nc3MzVq1dz9uzZtFqtfPe7302n08nNmzfz8ccf5/DhwxkfH8/4+HiKxWKGhoYyNDTUnxzTarXuumVRqVTqT09pNBr9571YLGZ4eDidTicTExM5fPhwlpaWcuPGjWxtbWV4eDg7OztpNpuZmJjoh0J71w0AAAAAADx8BCjfMPfawgAAvgq9mOLDDz/MO++8kxdffDHLy8sZHx+/I7b45JNPsrKyksnJyUxOTvannIyPj2d+fj7Ly8v55JNPsru7m9nZ2UxNTWVgYCDFYjFnz57NmTNncuzYsSwtLWVycjKHDx/OkSNH8vvf/z6//e1v0263c+jQoQwPD6fZbGZlZSXvvvtuP/7ohRu9qGX/9JK7TUPZe7+9v/ZGK81m845gpVgsZmRkJMvLyzl58mQ++uijvPbaaymVSqnX6/1A5ubNm3njjTcyNjaWJ598MpOTk/24o7ctT+/6+9fTbrfTarXuukXP3iklGxsb2djYSLlczuDgYIrFYlqtVq5fv553330358+fz+LiYn70ox+l2Wzm5MmTOXfuXC5cuHDHx2j/NfZOZultY5SkHyK9+eab+dWvfpWrV69mbm4u/+bf/Jv84Ac/yOjoaLrdblqtVm7fvp3XX389Fy9ezPz8fCYmJjI8PJzFxcXUarXcuHEjV69ezejoaOr1+mcmugAAAAAAAA8+AQoAPAT2hhHVajWPPPJIisVi3n///bz22mvZ3NzsH1OpVDI+Pp6lpaX8+Mc/zpEjR1KtVvtTMw4dOpSf/exnef3113P69On8x//4H+/YZubYsWN59NFHs7CwkHq93t/S58SJEymXy3nttdfy9ttv58yZMykWixkdHc2hQ4dy9OjRVKvV/O///b/72/PsDyjuFZ701lYul++YirL3+F7Esv9+vSkoL730UkZGRvL666/nf/yP/5Ff/vKX/a1qJiYmcvz48SwtLWVsbKwfelQqlUxOTqbZbH7h899ut/sBTG9NMzMzeeKJJ3Lx4sWcOnUq586dy/z8fJ5//vmcOHEiFy9ezNtvv5133303zz77bE6cOJFarZZOp5Njx45la2srt2/fzuXLl7O8vNyPdHrX6HQ6aTQaWV9fz+rq6h2TZUqlUmZnZ/Pyyy/n2LFj2dnZSbVazcLCQkZHR9PpdPLOO+/k3Llz2dnZyaFDh/LEE0+kWCzm3Xff7W+jtLi4mGq1mvPnz6dWq/XjlEql8uU/QQEAAAAAgG89AQoAPER6ocbMzEzK5XJu376djY2N/vYrvUjj0KFDefzxx/Poo4/2o47e/ev1eo4fP55Go5FSqZQLFy6k0Wj0b5+YmMji4mImJydTqVT6kcfs7GwGBweztbWVs2fP5vbt20mSgYGBjIyM9EOX4eHhDA0N3bEtULVazeLiYkqlUorFYmq12h3bvZTL5YyPj+fZZ5/N0NBQRkZGPjMNZGRkJMePH8/W1lYmJyf7txeLxVQqlSwuLqZSqWR7eztXrlzJ+vp6kk9DjaGhoSwsLGRmZiaDg4NJPo1PRkdHc+LEiTSbzf7j26tcLmdsbCzf+c53srm52X9O9j6XS0tLee6553L+/Pmsrq6mWCym2WxmbW0tH330UVZWVjI9PZ3HHnssi4uL/Y/HzMxMnn766Vy8eLF/zs3NzayurubSpUvZ3d1Nu93Ozs5OLl68mFKplOHh4QwMDPSny4yMjKRWq+Xw4cPZ3d3N+vp6Ll26lNOnT6dQKOTmzZvpdDoZHh7O0aNHc+jQody8eTPFYrG/7c7k5GTK5XJu3LiRK1euJEmOHTuWiYmJzzwfAAAAAADAg0uAAgAPgb3boXS73VQqlUxPT+df/at/ddepIr2JJqVS6TNbqZRKpZRKpXznO9/JU0899ZlrFYvFO+KQvfcbHx/Pv/yX//KOSRy9QOXWrVu5evVqCoVCRkZGMjIy0p9mUq/X8/LLL/e3semtrbf2arWaQ4cO5V//63/dP2cvfuk95unp6fzwhz+845p7H1tvmsfhw4fveE5628ns3Q6oUCikWq32tx/aOz1mr6GhoSwuLmZ+fj7JpyHN/vBleno6P/nJT+74+GxtbfVDkMnJyfz0pz/N5ORkhoaG+scNDw9naWkpS0tLST7dUufChQv5zW9+k//8n/9zbt682V/T8ePH8+KLL2Z6ejpDQ0NptVr9mKdQKKTdbmdzczMffPBB/st/+S85d+5cjh49mr/8y7/MK6+80t9WZ3NzM2tra9nY2Ein00m1Wk2tVku1Ws2TTz6ZV199Nb/97W/z53/+53nyyScFKAAAAAAA8BARoADAQ6gXVPTe3h+Z3G2bm96xPb0Q5W73T3JHZLL3OnuP3RuIrK+vZ2NjIyMjIxkdHc3w8HA/BOmtd2/YsncqS+/33nSP/Y/rXo+vF7jsPbYXiOw/Zv/99x9/t+skn05B6W3904zdt48AACAASURBVAs+9uttOdQ7d7FYzMLCQn7xi1+kWq1mamrqjqBm/7X2bunz8ssvZ25u7o6pNPV6PdPT0/3zJEmz2czHH3+ckydP5urVq6lUKpmZmcmf//mf96esrK+v57/+1/+a27dvp9FopNFopNVq5ciRI3nyySdTr9f7nwfz8/P5wQ9+kPn5+Zw5cyY3btzI0aNHc/z48YyOjn7mMQMAAAAAAA8WAQoAPGT2BxB3CyLu9r4/5pieTqeT27dvZ319vT/JoxeTtFqtbG9v5/Tp07ly5UqOHDmS6enpDA8P33GtL1p3L9zYG44cxP7Y425Rzpd57u4VjXze/QcGBlKpVDI+Pn7P4/bfp7c10fDwcJaXl+96zN7gJ/l0asr29nY2NzczOjqaiYmJPP744xkfH8/m5mbeeeedXL9+PWtra2k2m+l2u/3zHz9+PMPDw/0IaXR0NMePH8/IyEjeeuutdDqdtFqte8ZMAAAAAADAg0WAAgAPqa8y0Pg83W43u7u7+fDDD/Pmm2/mpz/9aZaWllKtVpMkW1tbuXz5cn71q1/l1q1b+cUvfpH5+fnPBCi933tBw/7Q5MvEHQfxZSKUP2YN9zrmD13/vSbR3MvAwEAee+yxHD16tD+tplwu9yetjI2N5c/+7M/y4osvpt1up9Pp9Ce/VKvVVCqV/vSX3nUHBwezuLiYubm5JP+8zRAAAAAAAPDgE6AAAF+7YrGYmZmZHD9+PG+88Ub+4R/+Ibu7u2m329nd3c3W1lampqbyve99L88991ympqbuGpbcLQDZux3O/uO/Ln+Ka/wpFIvFVKvVe8Yre7cPSj4b29ztee9tyQMAAAAAADxcBCgAwNdib5xQLpdz6NChVCqVXL9+PVeuXMnGxkba7XZ/65xXXnkl3/nOdzI3N5disXjPySZ381Vtu/Ow2fsc75/w8sdszXS327vdro8PAAAAAAA8BAQoAMDXrlwup1QqZXBwMH/xF3+RZrN5R5iQJNVq9f+zdyfPbZzpAYff7sZGcAdJiZZEcSRbyjiTZMapmkoqx5xymltu+RNTOSWHpCrnLJUaO55K2U5GXiRZsiVRJEVxw9KdgwsYEKZkyy0SIPE8VSxxAYEm1YQgfj+8X9Tr9RPxCWev/73ub7HTf99olDL8dv9l+HJ9o1skDb/u7xYAAAAAAC4vAQoAcKaGg4Msy2J+fv7Uy50WOkyayxRPDE8/OW1CyU+ZdvI2LgsAAAAAAFxMAhQA4Fy8adAwqRHKZfSmgcjrQpX+39tP2cIHAAAAAAC4uAQoAMC5EiFMjjeZePIml/N3DAAAAAAA0ycd9wEAALyKkGFy+LsAAAAAAABeR4ACAAAAAAAAAEAptuABAJgyppkAAAAAAABvmwAFADgTIofLwd8jAAAAAADwY9iCBwAAAAAAAACAUgQoAAAAAAAAAACUIkABAAAAAAAAAKAUAQoAAAAAAAAAAKUIUAAAAAAAAAAAKEWAAgAAAAAAAABAKZVxHwAAwI+VJMlbv563dZ0AAAAAAADTzAQUAAAAAAAAAABKEaAAAAAAAAAAAFCKAAUAAAAAAAAAgFIEKAAAAAAAAAAAlCJAAQAAAAAAAACgFAEKAAAAAAAAAAClCFAAAAAAAAAAAChFgAIAAAAAAAAAQCkCFAAAAAAAAAAAShGgAAAAAAAAAABQigAFAAAAAAAAAIBSBCgAAAAAAAAAAJQiQAEAAAAAAAAAoBQBCgAAAAAAAAAApQhQAAAAAAAAAAAoRYACAAAAAAAAAEApAhQAAAAAAAAAAEoRoAAAAAAAAAAAUIoABQAAAAAAAACAUgQoAAAAAAAAAACUIkABAAAAAAAAAKAUAQoAAAAAAAAAAKUIUAAAAAAAAAAAKEWAAgAAAAAAAABAKQIUAAAAAAAAAABKEaAAAAAAAAAAAFCKAAUAAAAAAAAAgFIEKAAAAAAAAAAAlCJAAQAAAAAAAACgFAEKAAAAAAAAAAClCFAAAAAAAAAAAChFgAIAAAAAAAAAQCkCFAAAAAAAAAAAShGgAAAAAAAAAABQigAFAAAAAAAAAIBSBCgAAAAAAAAAAJQiQAEAAAAAAAAAoBQBCgAAAAAAAAAApQhQAAAAAAAAAAAoRYACAAAAAAAAAEApAhQAAAAAAAAAAEoRoAAAAAAAAAAAUIoABQAAAAAAAACAUgQoAAAAAAAAAACUIkABAAAAAAAAAKAUAQoAAAAAAAAAAKUIUAAAAAAAAAAAKEWAAgAAAAAAAABAKQIUAAAAAAAAAABKEaAAAAAAAAAAAFCKAAUAAAAAAAAAgFIEKAAAAAAAAAAAlCJAAQAAAAAAAACgFAEKAAAAAAAAAAClCFAAAAAAAAAAAChFgAIAAAAAAAAAQCkCFAAAAAAAAAAAShGgAAAAAAAAAABQigAFAAAAAAAAAIBSBCgAAAAAAAAAAJQiQAEAAAAAAAAAoBQBCgAAAAAAAAAApQhQAAAAAAAAAAAoRYACAAAAAAAAAEApAhQAAAAAAAAAAEoRoAAAAAAAAAAAUIoABQAAAAAAAACAUgQoAAAAAAAAAACUIkABAAAAAAAAAKAUAQoAAAAAAAAAAKUIUAAAAAAAAAAAKEWAAgAAAAAAAABAKQIUAAAAAAAAAABKEaAAAAAAAAAAAFBKZdwHAAAXXVEUg9eTJBnjkQAwafwbwWXnHAcAAACgzwQUYGIURXHiF9gAABeZxzVMm9ed8x7rAwAAAFx+JqAA58ozJJlWr1tw8bPANPAzAHB59e/jkySJoijcrwMAAABMKQEKcC7e5NmOnhnJRVN20cVCDZed+3Wm0WnnfdmfBf9WcBH5NwAAAABgeghQgHP1qoWT/i+mjebmIho9r08LSn7o3IfL5FXntcVzpoX7dqbVaY+Bhh/fp6ldgAEAAAAuMwEKMHaiEy6DHxOhwGU3HBOO8vPAtLHtINNkeBocAAAAANNLgAKci9N+GZ3neeR5Ht1uNzqdzisvB5NueJHxtAXHH4qshs97PwNcZKMByvCCpGe9M02Koog8zyPiu/O//wKX1ej5nmVZVCqVyLIs0jSNNE0jz3OhCgAAAMAlJ0ABxqbb7caTJ0/i/v378fXXX8fe3l70er1xHxa8seG4pL8AM6zT6cTh4eGpEUqWZYOX/kKNRRkuotEQq9frDe7T+4uPFuG5zEa3ExxekO+f//23y/AzxKQYPheHt9jJsizW19djc3MzNjY2Ym5uLpIkEZ8AAAAATAEBCjA2nU4nHj9+HB999FF8+umn8ezZs+h2u+M+LHgjo4vup21B0m63Y39//3sBSn+Rpv9SrVYHzxQ+z+OGt60oiuh2u9Hr9U5EJ8OL8KMsSHKRjd7396e8RZycgFJ24pWIi0kxGlT1tx5M0zQqlUrcunUr9vb2Ynl5OWZnZz3uAAAAAJgSAhRgbLrdbnzzzTfx2Wefxeeffx4vXrw4dXoEXBSjW+30FwqH3z+6YHPaYuKrtvR528cKZ2H4vO/7MdtQWVTnIhu+T+9vM/JDj2l+aoDyUz8XzkOSJFGtVqPdbkeapvHLX/4yrly5MvgYAAAAAJebAAU4F6ctPPZ6vXj58mXs7u7G0dHR4JnyWZYNFitt2cBF0l9w7C86Zlk2eLvX6w222anX64PpEKc5rwVGEQpnoR+f9Hq9wVSr/jPja7XauUz4gfM0fJ+dpml0u91ot9sntiSpVCrfO/d/yn28+20mzfD532634/j4OLrdbrx8+fLE9pplp/8AAAAAcDEIUICxKYoiOp3OID6pVqvRarXixo0bMTs7GxGvHlsPk2R464V+bBLx3fn74MGDePz4cbx8+TKq1Wqsrq7Ge++9F9Vq9UcHKGdx7v/QRAooo91ux8OHD+PLL7+MPM8jy7JYWFiIO3fuxOLi4rgPD85EmqaR53k8fPgwHjx4EMfHx5FlWbRardjY2PjeuS9A4TJJkiTu378fn3/+eXQ6neh0OtFut793GQAAAAAuNwEKMBH6zw7+oz/6o/jNb34T77333rgPCX6U07YZ6b+v2+3GP/zDP8S//uu/xt7eXtRqtbhz50783d/9Xayurg4m/PzQ9Z71ccPb9uLFi/inf/qn+OqrryIiotFoxObmZvzt3/5t3LlzxxQULqUkSeLly5fxL//yL7G9vR3dbjeazWb8/Oc/j9/85jdx586dUz/nx3K/zSQaftzzz//8z7G3txfPnz+PLMvGfGQAAAAAjIMABZgI/V9eVyqVWFxcjFarFRFh+gkTb3RBcDhC6S8+9rfeybIs6vV6tFqtWFtbe22Actp1n/Wxw9tSq9Wi2WxGRESlUolqtRqNRiOWl5djbW3NwiSXVr1ej5mZmYj4bqvBoiiiWq3G4uJirK2tjfno4O0bfiyxuLhoqzUAAACAKSdAASbGaYvhw+8ToTCJhs/L0fN1+CXLsjcOqpzzXFSj537//E/TdPACl81wgNh/yfM88jwf96HBmek/VimKwtaZAAAAAAhQgMkwvEiZpmlkWRZ5nkev1xssWvYvB5OqKIro9XonFtn7009GTcLizLhvn+mQ5/lgYVJ8wrToP65J0/TEFiVwWfUfA/V6vXEfCgAAAABjJEABJsrws4YjTi7Sjy7eWDxnUgyfm8Pb6oyezzAtJiGwgnFy/gMAAAAA00iAAkyM0+KTLMss3nNhDC+6v2prHgAAAAAAALiMzEAHAAAAAAAAAKAUAcoEeNWIbqO7mWYmRgAAwMXQnwI3jv/Djt6u/0cDAAAAjI8AZYKMbj0CAAAAvNrw9of+Hw0AAAAwXgKUCdEPT4YjFAAAALhIxv3/2XHfPgAAAMA0q4z7AAAAuJyGn40+zu0ZAJgupz2xw78/AAAAAGfPBBQAAM6URT8AAAAAALj8BChjNvxs4P4ztDw7GAAAgItidMrVeW6DM3zb/h8NAAAAMF4ClAlz2qhgAAAAuAjOOz4Z/hMAAACA8RKgAAAAAAAAAABQigAFAAAAAAAAAIBSBCgAAAAAAAAAAJQiQAEAAAAAAAAAoBQBCgAAAAAAAAAApQhQAAAAAAAAAAAoRYACAAAAAAAAAEApAhQAAAAAAAAAAEoRoAAAAAAAAAAAUIoABQAAAAAAAACAUgQoAAAAAAAAAACUIkABAAAAAAAAAKAUAQoAAAAAAAAAAKUIUAAAAAAAAAAAKEWAAgAAAAAAAABAKQIUAAAAAAAAAABKEaAAAAAAAAAAAFCKAAW4MJIkGfchAAAAAAAAAHCKyrgPAOCHCE8AAAAAAAAAJpsJKMBEK4oiiqIY92EAAAAAAAAA8BoCFOBCMhWFSSWYAgAAAAAAYBrZgge4UIQnTKL+eSk+AQAAAAAAYFqZgAJMpNNCE/EJAAAAAAAAwGQSoAAAAAAAAAAAUIoABZhotjQBAAAAAAAAmHwCFAAAAAAAAAAAShGgAAAAAAAAAABQigAFAAAAAAAAAIBSBCgAAAAAAAAAAJQiQAEAAAAAAAAAoBQBCgAAAAAAAAAApQhQAAAAAAAAAAAopTLuA4AfqyiKU9+fJMmZ39ZZ3MabHMM4bh8AAAAAAAAAfiwBChOjKIrI8zx6vV7kef69CKT/dpIkkWVZZFl2apjxJrFGURSD283zPJIkiTRNI0mSwe2l6dkNCurfxmlfd5qmkabp4PhGv/7+x/vvAwAAAAAAAIBxEaAwMbrdbuzu7sbz589je3s7Dg8Po9frDT5eFEWkaRoLCwuxuroaq6ur0Wg0Isuy0re7vb0dW1tbMTMzE8vLyzE7O3um4cmwXq8Xe3t78e2338bW1lYcHh5GtVqNlZWVWFpaik6nE9vb27G9vR1Jkgy+/uXl5Wg2mye+fiEKAAAAAAAAAOMgQGFitNvt+Oqrr+K///u/45NPPon9/f3I83wQWBRFEY1GIzY3N+NP//RPo9lsRr1e/8nRRX+yyNHRUdy7dy8++uijuHr1avziF7+Izc3NaDQaEXG2UUdRFNHpdOKbb76Jf/u3f4tPPvkknj9/Hq1WK/7sz/4s3n333djf349PP/00Pvnkk+h2u7GxsREffPBBvP/++7G+vh6NRkN4AgAAAAAAAMBYCVCYGP0YY29vL9rtdty9ezc2Nzej2WwOtqLJsiwWFhZibW1tMKWkKIo3DjCGt945Pj6OnZ2dePLkSczMzESn0/lJ1/lTJUkS3W438jyPtbW1eO+992JzczOuX78+mIDSarXinXfeia+++ioivpvaUqlUolarRZIkAhQAAAAAAAAAxkqAwkSamZmJ999/P37961/H4uLiYDucoigGl+nHJ2XkeR6dTieOj4/j+Pg48jwf3E7/us867ujfTr1ej42Njbh7927cuXMn5ubmBrd/+/btuH79eszOzsY333wziE8qFT/CAAAAAAAAAIyf1WsmxmhMkmXZIDzpGw5RhqeYtNvt6Ha7ERFRqVSi1+vF8fHx4DrTNI16vR71ej0qlcogPHn58mU8f/48dnd3o91ux8HBQezu7sb29nb0er2o1+uRZVl0u93odDqR5/kg+jg+Po6IiGq1GrVabTDBJc/zqFarUa/Xv3f8w8FLREStVoterzeYuJKm6WCiST986f/Z/1r7kczo984UFAAAAAAAAADGRYDCRBkOS141hWT043t7e/HFF1/Eo0ePIiLi+vXrsbOzE1988UUcHR1Ft9uNubm5uHv3bty+fTtWV1cjIuL58+fxv//7v/Hpp5/GJ598Eo8fP469vb3Y2tqK69evx507d+L27dsxNzcXz549iwcPHsTh4WG0Wq3Isiy+/PLL6HQ6ce3atbh9+3b0er14+PBh7O/vx9WrV+Pu3bsxMzNzIpo5ODiIr7/+Oj777LOIiPjFL34Ry8vLJ76un/I9E58AAAAAAAAAME4CFCbSq0KU0z62v78fv//97+PDDz+Mdrsdv/rVr6Lb7caXX34Z29vbcXBwEI1GI168eBF5nsfMzEzU6/U4PDyMra2tePLkSWxtbcXLly/j+Pg4Dg8P4+joKJaXl+PGjRtxfHwcjx49it/+9rfx9OnTuH79eqysrMTDhw+j1+tFmqZx5cqVaLfb8fnnn8dXX30Vt2/fjvX19cF0lIjvpp+8fPkyvvjii/jtb38bjUYjbty4EfPz84Ov68cYnZACAAAAAAAAAOMmQGHi9Lep2dvbi+fPn0e73R7EFpVKZRB1VCqVwfv7l9/Z2YmdnZ345S9/GX/xF38Rz58/j52dnXj8+HF88cUX8fHHH8fKykpcv349VldX44MPPogbN27E+vp6fPjhh9FqteLu3btx69at2NzcjLW1tTg6OookSeL4+Di2traiWq3GxsZG/M3f/E3UarXIsixWV1fj6Ogorly5Ev/3f/83iFrm5+ej0WhEURTR6/ViZ2cntre3Y2lpKa5duxZra2vRaDTG+e0GAAAAAAAAgNIEKEyMfkzS7Xbj6dOn8R//8R/x8OHDqNVqg21mZmdnY3NzM27duhVXrlyJarU6+Nwsy2Jubi7eeeed2NjYiPX19bh69Wrs7+/H3NxcfPPNN7GzsxPffvtttFqtaLVasba2FpVKJR48eBCzs7Nx9erVuH37drz77ruxvLwc9Xo92u324Dbq9XpcuXIlfvazn8XNmzejXq9HnudRrVajWq3G6upqzM/Px9HRUTx9+jTW19djfn4+iqKIdrs9CGQWFhZiY2Mj5ubmIsuysX3PAQAAAAAAAOBtEKAwcXq9Xuzv78ejR49if38/KpXKYHuapaWlaDQaceXKlej1elGtVgfxSbPZjIWFhfjZz34Wq6urUa/Xo1arxezsbBweHsbq6mpsb2/H7u5utNvtyLIs6vV6ZFl24jqWlpZicXFxMLmkr1qtxvLycty8eTNu3rwZc3NzgwAmz/NI0zRWVlZifX09Hj16FN98803cunUrVlZWIs/zODw8jO3t7djf34+rV6/G+vq66ScAAAAAAAAAXAoCFCZGURRRFEVUKpV455134i//8i/jT/7kT2Jubm5wmUqlEs1mM+bm5k7EG0mSRK1Wi5mZmZiZmYksyyLP80iSJNI0jXq9HnNzc3F4eHji/b1eL/I8jzzPTz2m/lSWiIg0TaPRaESz2Yx6vR5pmp64XJZlsbi4GJubm7G3txdbW1uxs7MT6+vrURRFvHjxIvb39wdTVFqtVmRZFr1e7wy+mwAAAAAAAABwfgQoTJw0TWNmZiauXr0at27divn5+ROxx/DlhuONLMuiUqlEpVKJNE1PxCP94KTb7cbR0VF0Op0T001GJUkSSZKcuEyaplGpVCLLshPH079MmqbRbDZjdXU1ZmZm4ttvv42dnZ04ODiINE1ja2srDg8PY2lpKVqtVszOzkaSJFMToPT/PvqhEQAAwHnpb+sKAAAAwNn5/qo+jEk/EknTdBB59EOQ/vuHX16nf5nR6KHT6cTBwUF0Op3I8/zUEKJMIFGtVmNpaSnm5uai2+0OtvzZ39+PZ8+exfHxcaytrcXi4mJUq9Uf/DouI7/0BQAAAAAAALh8pm/1m6nXj1qG3+4HL2Wnc2RZFrOzs7G2thYLCwuxu7sbT548iRcvXsTOzk5ERKyursbs7GzprwMAAAAAAAAAJoUAhakyHJiMTld5G5M50jSNRqMRKysrsby8HHt7e3H//v14/PhxvHjxItI0jYWFhajVaqVvCwAAAAAAAAAmhQCFqXTa1j5JkkSv14ter3fqZX/s9Var1Wi1WnHlypVot9vx4MGDePDgQXQ6nZibm4vZ2dmoVCqlp60AAAAAAAAAwKSojPsA4DTdbjf29/djd3c38jyPLMsGH0vTNCqVSlSr1Z88tWQ4/siyLJrNZjSbzTg+Po6tra3Y3d0dxCT9y46+vEqWZbG8vBw3btyIr7/+Ou7fvx/tdjuuX78et27divn5+UjTNPI8f+PjFa0AAAAAAAAAMIkEKEycPM9jZ2cnPvzww3j27Fk0Go3Bx2q1WszOzsb6+nrcvn07ZmdnTwQZafrdUJ/RSGN04klRFJHn+WDLnCtXrsT169fjwYMH8e///u/x9OnTeO+99+LmzZtRqZz8Mel/7mmKoogkSaLZbEar1YqFhYXodDqxt7cX8/PzceXKlWg0GoPjHD3G4esZ/hrEJwAAAAAAAABMMgEKEyNN02g2m7G8vByNRiPu378f9+/fPzEtpNlsxtraWvzxH//xIObIsmwQd8zOzkatVjsRcyRJEpVKJRYXF2NtbS2Wl5ejVqsNbnNmZiZu3LgR+/v78eTJk/jkk09ia2sr8jyPhYWFaLVag6Ck0+lEs9n8wckraZpGvV6PmZmZwW0tLi7GwsJCZFk2mOjSj2B+zCQXEQoAAAAAAAAAk0qAwsSo1WqxsbER8/Pz8cEHH0S32/3eZbIsi1qtNghDqtVqLC4uxq9+9au4e/duZFkWq6urg8AjSZLIsixarVb8+Z//eRwdHUWtVoulpaUTl5mdnY27d+9Gq9WKv/7rvx5so9OPVW7fvh1ra2uDKOVVU0z6+qFImqYxPz8fs7Ozg7Dmh6afjL6v/2c/VPmp2w4BAAAAAAAAwFkRoDAxKpXKIPqI+MM2OqNb0wwriiIajUbMzMwM3pckyfc+t9FoxDvvvPO92+xvmVOtVmNlZSVWVlZOTBnpxyKNRiNardb34o/+54++r9frxdHRURwcHESz2YybN2/GysrKYBpK//r7t5Xn+alf2yjxCQAAAAAAAACTSIDCRHrVNjP9AGM4MHnd9JDhmKQfpvSjkeGX0dvuX2Y4FBm97tcd3+HhYTx79iz29vZidnY2Njc3Y3FxcRC0DF9vt9uNbrcbnU4n2u12PHnyJGZnZ6PVakW9Xo+IiKOjo/j2229jd3c3jo+PbcMDAAAAAAAAwEQRoHChlZkI8qrPfVWU8rrP6UcrvV4vDg8P4+HDh/HVV19Fnuexvr4eq6ur0Wg0Tr2+NE2jUqlEt9uN+/fvx7179+Kzzz6Lu3fvxvXr1+P4+Dju378fv//972NnZ2cQspiGAgAAAAAAAMCkEKBwIZ1lfDE8+eQ0p30sz/PY39+Pp0+fxv379+P+/fuxt7cX77zzzmD6SaXy/R+3JEkGWw/dvn07KpVKvHjxIhqNRmRZFlmWRZqmkWVZzM3NxcLCQqytrcW1a9dOBC0AAAAAAAAAME4CFCbS2wpMhq/nVdv1/Jjb72+d8yp5nsfe3l58+eWX8dFHH8Xz589jc3Mz3n333djc3IxGo3HiOoavv1qtxtWrV2N5eTl+/etfD7b/qVQqUa1WI8/zuHv3bnS73YiIwfur1eobf10AAAAAAAAAcBYEKPAj9AOPV01GybIsFhYW4r333ovl5eXodruxsLAQV69ejWaz+dqAJUmSE0HJmxzT6ya1AAAAAAAAAMB5EaDAG3hV9JGmaczNzcXs7GxsbGycOu1ELAIAAAAAAADAZfX6fUWA7+lvefO6bW+Kojjz4GT4+sUtAAAAAAAAAIyTCShceq8LRd7GdQ/HH/3bGv1z+PWzikWKojjTrxUAAAAAAAAAXkWAAm/JadHJqy5nYgkAAAAAAAAAl4kABUr6KZNNTCoBAAAAAAAA4DJJx30AAAAAAAAAAABcbAIUAAAAAAAAAABKsQUPvCW21QEAAAAAAABgWpmAAgAAAAAAAABAKSagAOeiKIpxHwIAAAAAAAAAZ0SAApw72xUBAADnyf9BAAAAAM6eLXgAAAAAAAAAAChFgAIAAAAAAAAAQCkCFAAAAAAAAAAAShGgAAAAAAAAAABQigAFAAAAAAAAAIBSBCgAAAAAAAAAAJQiQAEAAAAAAAAAoBQBCgAAAAAAAAAApQhQAAAAAAAAAAAoRYACAAAAAAAAAEApAhQAAAAAAAAAAEoRoAAAAAAAAAAAUIoABQAAAAAAAACAUgQoAAAAAAAAAACUIkABAAAAAAAAAKAUAQoAAAAAAAAAAKUIUAAAAAAAAAAAKEWAAgAAAAAAZYQraQAAIABJREFUAABAKQIUAAAAAAAAAABKEaAAAAAAAAAAAFCKAAUAAAAAAAAAgFIEKAAAAAAAAAAAlCJAAQAAAAAAAACgFAEKAAAAAAAAAAClCFAAAAAAAAAAAChFgAIAAAAAAAAAQCkCFAAAAAAAAAAAShGgAAAAAAAAAABQigAFAAAAAAAAAIBSBCgAAAAAAAAAAJQiQAEAAAAAAAAAoBQBCgAAAAAAAAAApQhQAAAAAAAAAAAoRYACAAAAAAAAAEApAhQAAAAAAAAAAEoRoAAAAAAAAAAAUIoABQAAAAAAAACAUgQowMQpiiKKohj3YQAAAAAAAADwIwlQgInQj06GwxMRCsDl4T4dYDqIyQEAAACmlwAFGCu/oGZaJEky7kOAsXFfz7RxvgMAAAAA06gy7gMAps+bLMpYtOeicc7CHyRJ4mcCYMoIsAAAAACmlwAFOHf9X0r3/+wvUPYXKYffb0seLpLhc3Z0WykL8Uwr00+YRqdtLQjTwLkPAAAAMN0EKMC5GI1LTvu4xXmmgXOdaVIUxYnz3aIk08RCPNNi9Fx33gMAAABMLwEKMHZFUUSv14skSaLX60Wn04nj42ML9VxoRVFEp9OJXq93YgpKnudxfHwcx8fHkabpmI8Szsbx8XF0u93B2/37+Xa7HUdHR+7buZSKohic+8ML8f1z//j4eMxHCGdj+DzP83zchwMAAADAGAlQgHM1HJUMT0XJ8zw6nU48e/Ysfve738X29rYFSi6c4Wf7JkkSnU4nvvzyyzg8PIxerxfdbjeePn0aH374YSwsLLw2svLMYS6yg4ODePjw4eD87na7sb29Hb/73e/i+fPnYz46ODsHBwfx4MGDaLfbURRFdLvd2Nraio8//jh2dnbGfXjw1ow+fsnzPD7//PM4PDz0GAYAAABgiglQgHOXpmnkeX5iKkR/WsS9e/fi+fPn0Ww2I8IiPBdLP6ZK03Qw0ef58+ext7cXeZ7H4eFh3Lt3L/7+7/8+siyLPM9fGaE497nIer1e7O7uDt4+OjqK+/fvxz/+4z9Go9GIXq83xqODs9GfarW9vR0HBwcREdHpdOKLL76I7e3tmJmZGefhwVs1HJT3X3Z2dmJ3d9cUFAAAAIApJkABzt3wPvFpmka1Wo1KpRLdbjcODw9PbE3iF9hcJKMBynBoFfHdovze3l4cHh5GnucnApTRCEWAwmXRjwyPjo7i0aNHERECFC6lJEkGkW3/8Uue53FwcBAHBwcmu3GpjAYoEX94HJQkSWRZZqtBAAAAgCkkQAHGplKpxPLycly7di06nc5gSsToL7Jhko2eo6OTffI8j16vF51O58TH+osyaZpGlmWDhRoLlFxUwz8Lo9tRFUURvV4vKpXvHnr27+t5+4Yjz2HuX/7gLL4Po+d///6/z/efSfG2zsPR6xl+O03TWF1djWvXrkW9Xp+Yc78oiok5FgAAAIDLSoACjEWaptFoNOLdd9+N4+PjWFtbi+3t7eh2u+M+NHgjrwpQ+q/3er1ot9uDqScR31+0qdVqUa/Xo1KpvHJLHph0rwpQht9+3YIl5fW3s9vd3Y29vb3BYmuz2YxWqxW1Wm3chzgW53GeDYc//fikPwUrSZKoVCqRZdmZHwf8kLP6eeg/funHVjdu3Ij3338/lpaW3NcDAAAATBEBCjA21Wo1rl27FjMzM/Huu+/G4eGhiSdcOD90zvZ6vcEElFd9fpZlUa1WB4s2/YkRcFH92PPXouTbVRRFbG1txX/+53/G//zP/0S32416vR4bGxvxV3/1V9FqtSJi+r7v5xmgDL8+OvVq2r7vTKazPA+Ht+VZWFiIVqsV8/Pzzn0AAACAKSJAAcamUqnEwsJCLCwsxObmZkRM36IYl8votiOvet/w5ftTUfpb8gx/jp8HLrJXnb/iqrNTFEU8ePAg7t27F51OJ9rtdlQqlVhZWYkPPvggrl+/HkVRiCHOwA99P533XEannfej07BMdgMAAACYLgIUYCLYk53LYjQ4ed153X9W/OjnD/88+LngsnFOn600TQeByWlbIY1O55gG57H103A4+LqIcNq+90ye8/55cJ8PAAAAMF0EKMDYWISBkws/ows2Fm2ANzUcto3+O+t+5eyMTn3o8/1m2onMAQAAAKaLAAUYq9OeMQwXWZnJJRaHgbdpeKJSP0yZ9n9rx30fO+7bh2FlzscfmvAGAAAAwHQSoABjc9r2IwDA2/W6LWGmzXl8D04LEX9oax4Yh/P8eQAAAABgOghQgLEa/aX0tD8zGwDeNv+2nr3+4xmRCfyBnwMAAACA6SNAASaKX1Rz0VnoBQCmlcfyAAAAANPN3hcAAAAAAAAAAJQiQAEAgClhOsH4+N4DAAAAAJedLXiAc2cBhsvM+Q1MOvdTZ+eHvre+9wAAAADAZWYCCgAAAAAAAAAApQhQAAAAAAAAAAAoRYACAAAAAAAAAEApAhQAAAAAAAAAAEoRoAAAAAAAAAAAUIoABQAAAAAAAACAUgQoAAAAAAAAAACUIkABAAAAAAAAAKAUAQoAAAAAAAAAAKUIUAAAAAAAAAAAKEWAAgAAAAAAAABAKQIUAAAAAAAAAABKEaAAAAAAl1qSJOM+BAAAAIBLT4ACAAAAAAAAAEApAhQAAAAAAAAAAEoRoAAAAAAAAAAAUIoABQAAAAAAAACAUgQoAAAAAAAAAACUIkABAAAAAAAAAKAUAQoAAAAAAAAAAKUIUAAAAAAAAAAAKEWAAgAAAAAAAABAKQIUAAAAAAAAAABKEaAAAAAAAAAAAFCKAAUAAAAAAAAAgFIEKAAAAAAAAAAAlCJAAQAAAAAAAACgFAEKAAAAAAAAAAClCFAAAAAAAAAAAChFgAIAAAAAAAAAQCkCFAAAAAAAAAAAShGgAAAAAAAAAABQigAFAAAAAAAAAIBSBCgAAAAAAAAAAJQiQAEAAAAAAAAAoBQBCgAAAAAAAAAApQhQAAAAAAAAAAAoRYACAAAAAAAAAEApAhQAAAAAAAAAAEoRoAAAwCVUFEUURTHuwwAAAAAAYEoIUAAAAAAAAAAAKEWAAgAAAAAAAABAKZVxHwAAAPDmTttep7/tTv9jSZJEkiSD9/VfH5YkybkcLwAAAAAAl5sABQAALojhwOS0ACXP88jzfPCxNP1u4GGv14tutxtpmkZRFJHn+eDj/RcAAAAAAChDgAIAABdIr9eLTqcTvV7vRIRSFEUcHBxEu90ehCi9Xi/a7XYcHh7G4eFhJEkyCFSSJIksy6JWq0W1WjUJBQAAAACAUgQoAABwQfQnn7x8+TK+/vrr2N7ePjHxZGtrK7799tvodrtRFEUcHh7Go0eP4qOPPoqvv/56MAElImJhYSE2NzejVquN80sCAAAAAOCSEKAAAMAFkSRJJEkS+/v78V//9V/x8ccfx/HxcXS73YiI6HQ6sbOzM3j7+Pg47t27Fzs7OzEzMzPYbqder8fPf/7zWFtbi9XV1XF+SQAAAAAAXBICFAAAuEDSNI0kSeLg4CAeP34cW1tb0W63B9NRsiyLNE0Hl9/b24u9vb1BvFKr1aLVasXNmzcjz/OIiMjzfHC9AAAAAADwU6Q/fBEAAGASJEkSaZpGo9GI1dXVWF5eHkQjRVFEnucntuRJ0zSyLDtxmUqlEleuXIlr165FvV4fhCv9zwEAAAAAgJ/CBBQAAJhw/ThkdIrJ0tJSRMRgksno5Ydf7/9ZrVZjfX09NjY2otFonLheAAAAAAD4qQQoAABwwdRqtVhdXY1WqxVZlp16mf5ElNHJJmmaxtLSUqytrUWtVhOfAAAAAADwVtiCBwAAJtxoJFKtVmNlZSXW1tai2Wy+MkI5bUueer0ei4uLsbS0FNVq9VyOHwAAAACAy0+AAgAAF0ylUomFhYVYW1uLlZWVqNfrg48VRXFi6kmSJJFlWaRpGrVaLZaXl2NlZSXm5+ejUqmYgAIAAAAAwFshQAEAgAsmSZJoNBpx9erVuHXrViwtLb3ychExCFLm5ubixo0bg+130jT93mUBAAAAAOCnEKAAAMAFkyRJVCqVuHLlSty9ezdardYgJulvuTMclPTfXlxcjNu3b8fKyspg8onwBAAAAACAt0GAAgAAF1ClUolWqxUbGxuxvLw82E4n4g/BSZIkg9er1Wq0Wq3Y3NyMVqt1IkARoQAAAAAAUJYABQAALpgkSSJN05iZmYnl5eVYXFyMer0eaZpGURSR53l0u93I83xw+WazGSsrK7G6uhqzs7OiEwAAAAAA3ioBCgAAXEBJkkSWZdFsNmNpaSkWFxcjy7JI03Qw+aR/uUqlEktLS7G2thbNZjOyLDP5BAAAAACAt0qAAgAAF1SaptFoNOLq1atx5f/bu7fdNs6rAcPrmxmKlkRJhOrYdKXE6VG6O2qvo1fa6yjQgwA9SA+KAkHbAI0DNRvXVuyK1Mz8BwH5S6qz6yJNinwegHAky8ECTQvk8NX6Hj2Kvb29qKpqEaJU1TdP9weDQTx8+DAmk0k8ePBg8XkAAAAAAFgWV54BAOAemh/D8+DBg5hMJvHkyZNbccnN7SZN08TDhw/j8ePHMRwObT8BAAAAAGDpBCgAAHCPDYfDePToUTx58iQODw+jqqro+35xBE9VVbG/vx/vvPNOPH78OPb29tY8MQAAAAAA20iAAgAA99j8eJ0nT57EyclJDIfDRYQS8U2g8pOf/CTOzs5ubUAB2CXz74kAAAAArI4ABQAA7rH5hpPT09N455134uDgICJicczOaDSK8/PzmEwmcXh4GHVdr3liAAAAAAC2kQAFAADuuVJKHB8fx/n5eRwfH0cpJeq6jqZp4uTkJN599904OTlZRCkAAAAAALBsAhQAALjn6rqO8Xgc7733XozH46iqKkopUVVVHB0dxWQyiaOjo4j45hgKR1EAAAAAALBsAhQAALjH5ttOjo6O4vHjxzEej6NpmqiqKgaDQYxGozg9PY39/X3hCQAAAAAAKyNAAQCAe66UEsPhMI6Pj+P4+DgODg6iaZo4ODiI8XgcJycnMRwO1z0mAAAAAABbrFn3AAAAbJ/5po1Sypon2R1N08RoNIqHDx/GeDyOvu9jPB7Ho0ePYjQaxWAwuPX3cXcbir8rAAAAAAAyBCgAAKzMzRDlbvDgOJjlKqXEwcFBnJ2dxfn5eVxfX8fZ2Vk8ffo0Dg8Po6qq6Pv+W0OT7/o9AAAAAAD4PgIUAACWqu/7mM1mMZ1OYzqdRtu23/p1LE8pJV6/fh37+/txenoaFxcXcXp6GkdHR3F5eRnX19cREVFVTuFcpm+LdqqqiqZpYjAYxN7eXtR1/ZYnAwAAAAB4uwQoAAAsVdu28dVXX8Wnn34a//znP+PFixcxm82ilPLGN+tt3cib37fX19fx/PnzePbsWVxeXsann34af/rTn+Ivf/nLIjy5GaCIgPLe9PhtmiYODw9jPB7HZDKJn/70pzEajdYwHQAAAADA2yNAAQBgqa6vr+Ozzz6LDz/8MP7617/G559/vti+UUqxgWMF5gFK3/dxdXUVl5eXcXV1FVdXV/Hs2bPFfX73/heg5N0NUPq+j7qu4+joKCaTSfzqV7+Ko6MjAQoAAAAAsPUEKAAALFXbtvHs2bP46KOP4h//+Ed8/fXXUUqJ2WwWfd9H03gKukzziOTmFpS2baOqqnj9+nV8+eWXi68tpbj/l+zu/d+2bfR9H4PBIC4uLmI4HMYvf/nLNU8JAAAAALB6rj4DALBUXdfFy5cvF8fATKfTRRjR9/1iGwrLcTeA6Lpu8fmu6xYfz7/G/b9cd7fIzO/v+eP+yy+/jOl0uo7RAAAAAADeKgEKAABLNY9Mrq6uIiJiMBjE4eFhvPvuu3F0dLTm6XbPzUDi7nEx5Ny8b7uui9lsFhcXF3FxcRHT6TS6rou2bW9FQAAAAAAA20qAAgDA0rVtG7PZLNq2jb29vXjy5En87ne/i5/97GfrHg2W5maA0rZtvHz5Mv74xz/GH/7wh7i4uLi1nQYAAAAAYNsJUAAAWIn5ETCllBiNRvH+++/Hz3/+83WPBSvRtm08f/48/va3v8VwOIyqqhbHIgEAAAAA7IJq3QMAALCdquqbp5p939/aFAHbqJSyiE7e9DEAAAAAwLYToAAAsHRVVS3efJ8fx9N13brHgpWZBydVVS22//R9bwsKAAAAALAzBCgAACzdzQCl7/to23bdI8FKvSk0EZ8AAAAAALtEgAIAAAAAAAAAQIoABQAAAAAAAACAFAEKAABL1/f94gYAAAAAAGw/AQoAAAAAAAAAACkCFAAAVq6Usu4RAAAAAACAFRKgAACwdDeP36mqKqrK004AAAAAANhm3gkAAGAl5gFKKWVxm38OAAAAAADYLgIUAACWbh6a3NyCAgAAAAAAbC/vBAAAsBJ3N6AAAAAAAADbS4ACAMBK9H2/uAEAAAAAANtNgAIAAAAAAAAAQIoABQAAAAAAAACAFAEKAAAAAAAAAAApAhQAAAAAAAAAAFIEKAAAAAAAAAAApAhQAAAAAAAAAABIEaAAAAAAAAAAAJAiQAEAAAAAAAAAIEWAAgAAAAAAAABAigAFAAAAAAAAAIAUAQoAAAAAAAAAACkCFAAAAAAAAAAAUgQoAAAAAAAAAACkCFAAAAAAAAAAAEgRoAAAAAAAAAAAkCJAAQAAAAAAAAAgRYACAAAAAAAAAECKAAUAAAAAAAAAgBQBCgAAAAAAAAAAKQIUAAAAAAAAAABSBCgAAAAAAAAAAKQIUAAAAAAAAAAASBGgAAAAAAAAAACQIkABAAAAAAAAACBFgAIAAAAAAAAAQIoABQAAAAAAAACAFAEKAAAAAAAAAAApAhQAAAAAAAAAAFIEKAAAAAAAAAAApAhQAAAAAAAAAABIEaAAAAAAAAAAAJAiQAEAAAAAAAAAIEWAAgAAAAAAAABAigAFAAAAAAAAAIAUAQoAAAAAAAAAACkCFAAAAAAAAAAAUgQoAAAAAAAAAACkCFAAAAAAAAAAAEgRoAAAAAAAAAAAkCJAAQAAAAAAAAAgRYACAAAAAAAAAECKAAUAAAAAAAAAgBQBCgAAAAAAAAAAKQIUAAAAAAAAAABSBCgAAAAAAAAAAKQIUAAAAAAAAAAASBGgAAAAAAAAAACQIkABAAAAAAAAACBFgAIAAAAAAAAAQIoABQAAAAAAAACAFAEKAAAAAAAAAAApAhQAAAAAAAAAAFIEKAAAAAAAAAAApAhQAAAAAAAAAABIEaAAAAAAAAAAAJAiQAEAAAAAAAAAIEWAAgAAAAAAAABAigAFAAAAAAAAAIAUAQoAAAAAAAAAACkCFAAAAAAAAAAAUgQoAAAAAAAAAACkCFAAAAAAAAAAAEgRoAAAAAAAAAAAkCJAAQAAAAAAAAAgRYACAAAAAAAAAECKAAUAAAAAAAAAgBQBCgAAAAAAAAAAKQIUAAAAAAAAAABSBCgAAAAAAAAAAKQIUAAAAAAAAAAASBGgAAAAAAAAAACQIkABAAAAAAAAACBFgAIAAAAAAAAAQIoABQAAAAAAAACAFAEKAAAAAAAAAAApAhQAAAAAAAAAAFIEKAAAAAAAAAAApAhQAAAAAAAAAABIEaAAAAAAAAAAAJAiQAEAAAAAAAAAIEWAAgAAAAAAAABAigAFAAAAAAAAAIAUAQoAAAAAAAAAACkCFAAAAAAAAAAAUgQoAAAAAAAAAACkCFAAAAAAAAAAAEgRoAAAAAAAAAAAkCJAAQAAAAAAAAAgRYACAAAAAAAAAECKAAUAAAAAAAAAgBQBCgAAAAAAAAAAKQIUAAAAAAAAAABSBCgAAAAAAAAAAKQIUAAAAAAAAAAASBGgAAAAAAAAAACQIkABAAAAAAAAACBFgAIAAAAAAAAAQIoABQAAAAAAAACAFAEKAAAAAAAAAAApAhQAAAAAAAAAAFIEKAAAAAAAAAAApAhQAAAAAAAAAABIEaAAAAAAAAAAAJAiQAEAAAAAAAAAIEWAAgAAAAAAAABAigAFAAAAAAAAAIAUAQoAAAAAAAAAACkCFAAAAAAAAAAAUgQoAAAAAAAAAACkCFAAAAAAAAAAAEgRoAAAAAAAAAAAkCJAAQBg5fq+j77v1z0GvBVVVUVd11FVXm4BAAAAALvDFVEAAFailBKllMXHIhR2QSkl6rqOwWAQdV3f+jcAAAAAALDNBCgAACzd3dhk/nHXdWucClZn/ni/GV51XRdd1wmvAAAAAICd0Kx7AAAAtlvbtvH8+fP46KOP4t///nfUdb3ukWAlXr16FX//+9/j1atXcX19HYPBQHwCAAAAAOwMAQoAAEtXVdUiNPnPf/4Tn3zySfz+97+Pvb09W1DYSlVVRSklLi8v4+XLl9H3fQwGA0fwAAAAAAA7Q4ACAMBSlVLiwYMHcXx8HF9//XXMZrOYzWbx+eef/9fRPLAt5tFV27bRdV3UdR3D4TAODg6iabzsAgAAAAC2nyuhAAAsVV3XMR6P4+nTp3F9fR0vXrxY90jwVpRSouu6RYQ1mUzi0aNH8eDBg3WPBgAAAACwcgIUAACWqq7rmEwm8etf/zrquo6Li4uYTqeOImGr3Txaam9vL8bjcZyfn8fTp0/j4OBgjZMBAAAAALwdAhQAAJaqaZp4/Phx/Pa3v433338/Xr16FW3brnssWLn58VJN08RwOIyjo6M4PT2N0Wi05skAAAAAAFZPgAIAwFJVVRUnJydxcHAQ77333uJNedglpZSoqirquo66rtc9DgAAAADAyglQAABYuqqqYm9vL6qqcvQOW28eWZVSbv33/Fge/wYAAAAAgF1QrXsAAAC2kzfdAQAAAABgd9iAAgDAUt0MT0Qo7IJve8x7/AMAAAAAu0SAAgDA0t19431+LAlss7uPewEKAAAAALBLHMEDAAAAAAAAAECKDSgAAKycTRAAAAAAALDdbEABAAAAAAAAACBFgAIAAAAAAAAAQIoABQAAAAAAAACAFAEKAAAAAAAAAAApAhQAAAAAAAAAAFIEKAAAAAAAAAAApAhQAAAAAAAAAABIEaAAAAAAAAAAAJAiQAEAAAAAAAAAIEWAAgAAAAAAAABAigAFAAAAAAAAAIAUAQoAAAAAAAAAACkCFAAAAAAAAAAAUgQoAAAAAAAAAACkCFAAAAAAAAAAAEgRoAAAAAAAAAAAkCJAAQAAAAAAAAAgRYACAAAAAAAAAECKAAUAAAAAAAAAgBQBCgAAAAAAAAAAKQIUAAAAAAAAAABSBCgAAAAAAAAAAKQIUAAAAAAAAAAASBGgAAAAAAAAAACQIkABAAAAAAAAACBFgAIAAAAAAAAAQIoABQAAAAAAAACAFAEKAAAAAAAAAAApAhQAAAAAAAAAAFIEKAAAAAAAAAAApAhQAAAAAAAAAABIEaAAAAAAAAAAAJAiQAEAAAAAAAAAIEWAAgAAAAAAAABAigAFAAAAAAAAAIAUAQoAAAAAAAAAACkCFAAAAAAAAAAAUgQoAAAAAAAAAACkCFAAAAAAAAAAAEgRoAAAAAAAAAAAkCJAAQAAAAAAAAAgRYACAAAAAAAAAECKAAUAAAAAAAAAgBQBCgAAAAAAAAAAKQIUAAAAAAAAAABSBCgAAAAAAAAAAKQIUAAAAAAAAAAASBGgAAAAAAAAAACQIkABAAAAAAAAACBFgAIAAAAAAAAAQIoABQAAAAAAAACAFAEKAAAAAAAAAAApAhQAAAAAAAAAAFIEKAAAAAAAAAAApAhQAAAAAAAAAABIEaAAAAAAAAAAAJAiQAEAAAAAAAAAIEWAAgAAAAAAAABAigAFAAAAAAAAAIAUAQoAAAAAAAAAACkCFAAAAAAAAAAAUgQoAAAAAAAAAACkCFAAAAAAAAAAAEgRoGyovu9v3QAAAAAAAAAANlWz7gH4YW5GKKWUNU4CAAAAAAAAAHCbDSgbppSyuAEAAAAAAAAA3AcClA1yNz4RoQAAAAAAAAAA94EAZYP1fb+4AQAAAAAAAABsKgEKAAAAAAAAAAApAhQAAAAAAAAAAFIEKAAAAAAAAAAApAhQAAAAAAAAAABIEaAAAAAAAAAAAJDSrHsA/l/f97duAAAAwI/zptfUpZQ1TQMAAACwO2xA2RBvCk5EKAAAAPDDfdvraD/oAQAAALB6NqCsmY0nAAAAsBx930fXdf+18aSq/PwNAAAAwKo10+l03TPstFJKtG37XxHKdwUpfd9bHwwAAAA3fNextm3b/k//PwAAAAB+uGY2m617hp1WSomu6259bh6YzG9v4jxrAAAAuK3rujduQOm67kcFJeITAAAAgB/PETwbYBlH8HzXnxenAAAAsCveFKAISgAAAABWT4CyAd4UoLg4BgAAAN/u7nE733UEDwAAAACrV617gF3nwhgAAAD877yuBgAAANgMAhQAAAAAAAAAAFIEKAAAAAAAAAAApAhQAAAAgHvJ0TsAAAAAm0OAAgAAANxbfd/fugEAAACwHgIUAAAA4F4SnAAAAABsDgEKAAAAAAAAAAApAhQAAAAAAAAAAFIEKAAAAMC9VFUuawAAAABsCldqNkDf986tBgAAgB+hlBJ1XUcpZd2jAAAAABARzboHIBYXy/q+j1JKdF0Xz58/jz//+c/xxRdfrHk6AAAA2Bx930fXdfHxxx/H1dVVdF0XpZRo29YPdwAAAACskQBlA5RSFreIiOl0Gv/617/iww8/jPF4vObpAAAAYHP0fR9t28Ynn3wSr1+/Fp0AAAAAbAgByoaoqiqapomu62I6ncZnn30WX3zxRdR1ve7RAAAAYON0XRdt20ZExGAwiL29vagqJw0DAAAArIsAZQOUUmIymcQHH3wQH3/8cbx48WKxOrjrunWPBwAAABunlBJN00Rd13F2dha/+MUv4vDwcLFdFAAAAIC3S4CyAZqmibOzs/jNb34TJycn8fLly2jbNmazmVXCAAAAcMM8MJn/2jQoCErJAAABW0lEQVRNnJ+fxwcffBDHx8cCFAAAAIA1KZeXlwqHNev7PmazWbx+/TpevXoVs9ksrq+vBSgAAADwBjcjk6ZpYn9/Pw4PD+Pg4CAGg0E6QvFaHAAAAOD7jUajWxdhbEDZAPO1waPRKPb396PrusXxOy56AQDwffy0P7Br5t/32rZdvKZumiaqqlrzZAAAAAC7S4CyIeYXyeq6XvMkAADcRyIUYJeUUqLv+2jbdvE58QkAAADAeglQNtDNrSfeSAAA4Pt4zgjsmvnr5pvRie+FAAAAAOvlx4M2nCN4AAD4Pp4zAruqlLK4AQAAALBeAhQAAAAAAAAAAFIcwbOB5mdZAwDAD+X5IwAAAAAA6yRA2VDWBwMAAAAAAAAA94UjeAAAAAAAAAAASBGgAAAAAAAAAACQIkABAAAAAAAAACBFgAIAAAAAAAAAAAAAAAAAAAAAAAAAAAAAAADAPfV/so2LLzKJmKUAAAAASUVORK5CYII=;" vertex="1" parent="1">
          <mxGeometry x="-20" y="140" width="792.73" height="395.64" as="geometry" />
        </mxCell>
        <mxCell id="gvpjUYc1p56nosvnUNie-4" value="&lt;h1 style=&quot;margin-top: 0px;&quot;&gt;CorrentHashMap JDK1.7 源码 线程安全&lt;/h1&gt;&lt;div&gt;&lt;ol style=&quot;box-sizing: border-box; padding-left: 2em; margin-top: 0px; margin-bottom: var(--base-size-16); color: rgb(209, 215, 224); font-family: -apple-system, BlinkMacSystemFont, &amp;quot;Segoe UI&amp;quot;, &amp;quot;Noto Sans&amp;quot;, Helvetica, Arial, sans-serif, &amp;quot;Apple Color Emoji&amp;quot;, &amp;quot;Segoe UI Emoji&amp;quot;; font-size: 16px; background-color: rgb(33, 40, 48);&quot; dir=&quot;auto&quot;&gt;&lt;li style=&quot;box-sizing: border-box;&quot;&gt;底层是有两个数字的 一个是 segment 每个 segment 里面存放一个小型 HashMap&lt;/li&gt;&lt;li style=&quot;box-sizing: border-box;&quot;&gt;put 时候会先计算在 segement 中的数组下标，再计算 Entry 数组中的下标&lt;/li&gt;&lt;li style=&quot;box-sizing: border-box;&quot;&gt;1&lt;/li&gt;&lt;li style=&quot;box-sizing: border-box;&quot;&gt;为了实现线程安全，只有调用 segment.put() 方法内部才会获取加锁&lt;/li&gt;&lt;ol&gt;&lt;li style=&quot;box-sizing: border-box;&quot;&gt;使用 &lt;code&gt;(hash &amp;gt;&amp;gt;&amp;gt; segmentShift) &amp;amp; segmentMask&lt;/code&gt; 计算哈希值所属的 &lt;code&gt;Segment&lt;/code&gt; 索引【和 HashMap 计算 table 下标一样】&lt;/li&gt;&lt;li style=&quot;box-sizing: border-box;&quot;&gt;在 &lt;code&gt;Segment&lt;/code&gt; 中，使用 &lt;code&gt;ReentrantLock&lt;/code&gt; 进行加锁，以保证单个 &lt;code&gt;Segment&lt;/code&gt; 的线程安全&lt;/li&gt;&lt;li style=&quot;box-sizing: border-box;&quot;&gt;当两个线程同时加锁，如果失败，还会涉及到自旋锁【自旋锁内部检查是否需要 new Entry 本来也没事干，不如完成一些后面的铺垫工作】&lt;/li&gt;&lt;/ol&gt;&lt;li&gt;同时，还包含容量、并发程度【就是 segment 个数，因为不同线程访问不同的 segment 不会加锁】&lt;/li&gt;&lt;ol&gt;&lt;li&gt;运用除法就可以计算出每个 segment 中的格子数量&lt;/li&gt;&lt;li&gt;同时，只会初始化一个 segment 放入【0】下标处，后面用到再初始化&lt;/li&gt;&lt;li&gt;segment 大小和 entry 大小都是找到最小的 2 次幂&lt;/li&gt;&lt;li&gt;同时，segment 的大小并不支持扩大！！！&lt;/li&gt;&lt;/ol&gt;&lt;li&gt;读取操作无锁，通过 &lt;code&gt;volatile&lt;/code&gt; 保证链表节点的 &lt;code&gt;value&lt;/code&gt; 字段对线程的可见性&lt;/li&gt;&lt;ol&gt;&lt;li&gt;因为变量声明是&amp;nbsp;&lt;span class=&quot;hljs-keyword&quot;&gt;volatile&lt;/span&gt; V value;&lt;/li&gt;&lt;li&gt;&lt;span class=&quot;hljs-keyword&quot;&gt;volatile&lt;/span&gt; HashEntry&amp;lt;K,V&amp;gt; next;&amp;nbsp;&amp;nbsp;&lt;/li&gt;&lt;/ol&gt;&lt;li&gt;&lt;br&gt;&lt;/li&gt;&lt;li&gt;实现了 Hashtable 更细的锁粒度【Hashtable 是在每个方法上面都进行了 syn 关键字修饰】&lt;/li&gt;&lt;/ol&gt;&lt;/div&gt;" style="text;html=1;whiteSpace=wrap;overflow=hidden;rounded=1;labelBackgroundColor=none;" vertex="1" parent="1">
          <mxGeometry x="10" y="600" width="610" height="470" as="geometry" />
        </mxCell>
        <UserObject label="16578835.html" linkTarget="_blank" link="https://www.cnblogs.com/jeremylai7/p/16578835.html" id="gvpjUYc1p56nosvnUNie-5">
          <mxCell style="fontColor=#0000EE;fontStyle=4;rounded=1;overflow=hidden;spacing=10;" vertex="1" parent="1">
            <mxGeometry x="920" y="560" width="120" height="40" as="geometry" />
          </mxCell>
        </UserObject>
        <mxCell id="gvpjUYc1p56nosvnUNie-6" value="&lt;font style=&quot;font-size: 16px;&quot;&gt;在 JDK1.8 下面的实现，看这个博客就可以了&lt;/font&gt;" style="text;html=1;align=center;verticalAlign=middle;resizable=0;points=[];autosize=1;strokeColor=none;fillColor=none;" vertex="1" parent="1">
          <mxGeometry x="900" y="488" width="340" height="30" as="geometry" />
        </mxCell>
      </root>
    </mxGraphModel>
  </diagram>
</mxfile>
